<?xml version="1.0" encoding="UTF-8"?>
<svg width="200px" height="200px" viewBox="0 0 200 200" version="1.1" xmlns="http://www.w3.org/2000/svg" xmlns:xlink="http://www.w3.org/1999/xlink">
    <title>american-static-200</title>
    <g id="american-static-200" stroke="none" stroke-width="1" fill="none" fill-rule="evenodd">
        <g id="american-static" transform="translate(0.000000, 43.000000)">
            <path d="M6.75669737,73.5982107 C-4.22560005,78.3850048 -1.61795502,92.8558515 33.3900698,103.086966 C68.3980947,113.318081 95.1303599,120.498272 144.857786,109.436044 C194.585213,98.3738152 211.750908,76.096812 191.972363,68.548406 L172.245866,61 L6.75669737,73.5982107 Z" id="Path" fill="#EFEFEF" fill-rule="nonzero"></path>
            <path d="M7,74.3486213 C7,74.3486213 28.7532522,110.849796 105.495191,107.821474 C182.23713,104.793151 194,74 194,74 L7,74.3486213 Z" id="Path" fill="#002C1F" fill-rule="nonzero"></path>
            <path d="M0.110360611,57.0024617 C-1.71124139,71.0772134 18.4148585,102.084114 105.549889,99.8893016 C191.425412,97.7307244 198.71182,68.9445184 197.951952,57.8876336 C197.134833,45.6764018 163.128126,27.626141 102.853918,26.1197957 C43.1157816,24.6238033 2.67101257,37.26468 0.110360611,57.0024617 Z" id="Path" fill="#8ACFBB" fill-rule="nonzero"></path>
            <path d="M129.69596,66.1417322 C125.994172,72.1559463 123.941644,73.4356784 123.155789,78.1754268 C122.369935,82.9151752 124.531035,86.8281009 130.23365,85.8485529 C135.936266,84.8690049 142.723063,72.9669699 146.332312,74.2309029 C149.94156,75.4948358 156.588619,78.7073319 161.140483,78.7073319 C165.692346,78.7073319 167.117211,77.2554121 170.078787,74.2309029 C173.040362,71.2063936 174.913618,72.5298598 181.309026,64.9620615 C187.704434,57.3942632 185.703607,51.2694549 185.703607,51.2694549 C185.703607,51.2694549 148.752933,72.77738 152.795948,71.5029143 C156.838963,70.2284486 174.670623,56.3515185 174.148443,50.2109111 L173.631434,44.0650373 L144.885702,41 L133.904418,49.6158094 L129.69596,66.1417322 Z" id="Path" fill="#639384" fill-rule="nonzero"></path>
            <path d="M129.69596,66.9081966 C125.994172,72.8665461 123.941644,74.134391 123.155789,78.830113 C122.369935,83.525835 124.531035,87.4024144 130.23365,86.4319652 C135.936266,85.461516 135.920756,84.7467228 139.369209,86.5832718 C142.817663,88.4198209 146.183396,90.6320277 152.35132,87.2093681 C158.519244,83.7867085 161.140483,79.3570774 161.140483,79.3570774 C161.140483,79.3570774 161.140483,80.1396977 169.521208,74.9222288 C177.901933,69.7047599 174.913618,73.2369863 181.309026,65.7394835 C187.704434,58.2419807 185.703607,52.1740644 185.703607,52.1740644 C185.703607,52.1740644 162.153821,68.7186583 160.370138,74.3952644 C158.586455,80.0718706 149.275113,86.2597887 147.108843,82.8736514 C144.942573,79.4875141 148.752933,73.4822074 152.795948,72.2195799 C156.838963,70.9569524 174.670623,57.2089219 174.148443,51.1253531 L173.631434,45.0365669 L144.885702,42 L133.904418,50.5357791 L129.69596,66.9081966 Z" id="Path" fill="#639384" fill-rule="nonzero"></path>
            <path d="M17,71.8519654 C19.2639537,79.3879374 18.2496188,81.4113379 25.2610781,82.4734904 C32.2725373,83.5356429 36.3717052,84.9164411 40.6591001,87.8904681 C44.9464951,90.8644951 49.3280035,92.1390781 53.8088541,89.7598565 C58.2897047,87.3806349 63.2829512,87.6355515 66.4775833,86.9132878 C69.6722154,86.1910241 72.7988766,91.581448 80.1188191,88.6552179 C87.4387617,85.7289878 89.896171,79.6286647 100.7872,76.9892157 C111.678229,74.3497668 114.119952,76.2526672 114.940988,71.5882728 C115.762024,66.9238783 107.958292,70.7473268 95.1170209,66.9182671 C82.2757502,63.0892074 83.7003625,72.4733246 83.7003625,72.4733246 L17,71.8519654 Z" id="Path" fill="#639384" fill-rule="nonzero"></path>
            <path d="M20,72 C22.266927,79.6092062 21.25126,81.6522701 28.2719277,82.7247445 C35.2925955,83.797219 39.3971469,85.1914358 43.6901727,88.1943642 C47.9831985,91.1972927 52.3704614,92.4842621 56.8571969,90.0819193 C61.3439324,87.6795765 66.3437368,87.9369704 69.5425645,87.2076878 C72.7413923,86.4784051 75.8721598,91.921213 83.201716,88.9665459 C90.5312722,86.0118787 96.9708109,96.2164732 107.876143,93.5513741 C118.781476,90.8862751 117.37839,87.1862383 117.928106,84.0170763 C118.477823,80.8479142 116.090482,90.5645328 103.232346,86.6982624 C90.3742103,82.831992 86.7879632,72.6273976 86.7879632,72.6273976 L20,72 Z" id="Path" fill="#639384" fill-rule="nonzero"></path>
            <path d="M91.3710369,78.2487145 C93.6403945,76.4482954 94.3308478,72.6347277 95.9859051,70.7876118 C97.6409623,68.940496 98.3009545,78.3005998 105.317179,81.0868391 C112.333403,83.8730784 117.227499,83.2452665 117.943336,81.5538065 C118.659174,79.8623466 112.424787,81.5278639 108.718677,78.6586082 C105.012567,75.7893524 100.595696,67.1037573 100.148933,66.206142 C99.7021686,65.3085267 91.3710369,67.6329871 91.3710369,67.6329871 L88,73.6049823 L91.3710369,78.2487145 Z" id="Path" fill="#639384" fill-rule="nonzero"></path>
            <path d="M109.977982,74.9123271 C114.994526,75.5995312 126.947263,72.1843351 135.304634,66.8637095 C143.662005,61.543084 118.40429,63.2663003 118.40429,63.2663003 L108,68.2485299 L109.977982,74.9123271 Z" id="Path" fill="#639384" fill-rule="nonzero"></path>
            <path d="M74.166379,31.2167579 C68.4400742,31.816864 63.4727403,26.8594658 63.4727403,26.8594658 C63.4727403,26.8594658 54.9670316,15.4261401 50.5597659,18.5362552 C46.1525002,21.6463703 45.6029005,29.8756512 39.9080014,30.2722431 C34.2131023,30.668835 26.5972215,26.0193173 25.5503651,31.634223 C24.5035086,37.2491287 29.9209908,45.3427336 23.3676694,44.5391132 C16.8143479,43.7354929 17.7460502,46.3394315 12.8991048,47.3361295 C8.05215937,48.3328274 13.459173,54.2660503 18.2223699,57.7936305 C22.9855668,61.3212106 19.6251575,63.5755222 17.1284049,64.3165228 C14.6316522,65.0575234 13.9878355,70.1923442 19.4681291,71.9770076 C24.9484226,73.7616709 26.6233929,74.3200305 29.9366936,76.9239691 C33.2499943,79.5279077 39.3584018,75.4471863 40.7821265,79.6635839 C42.2058513,83.8799815 43.3992677,86.5256667 47.9164533,84.0365309 C52.4336389,81.5473952 52.8157415,77.7745543 55.1554657,81.4952121 C57.4951899,85.2158699 61.8239414,81.7352545 66.7808067,78.1450546 C71.737672,74.5548546 72.2872717,75.4471863 78.6416904,76.9239691 C84.9961091,78.400752 93.4704121,63.1215289 93.4704121,63.1215289 C93.4704121,63.1215289 100.311619,44.1373031 100.981607,37.2491287 C101.651595,30.3609544 83.8550355,30.1991867 74.166379,31.2167579 Z" id="Path" fill="#65A43A" fill-rule="nonzero"></path>
            <path d="M11,39.2339438 L11,39.2339438 C11.4211742,38.8471226 23.0403172,28.3663586 32.1534737,38.1884811 C41.4298353,48.1569683 31.0426268,57.7647709 30.810981,58 L30.810981,58 L11,39.2339438 Z" id="Path" fill="#EA2145" fill-rule="nonzero"></path>
            <path d="M11,39.2339438 C11.4212927,38.8471226 23.0437052,28.3663586 32.1594262,38.1884811 C41.4278657,48.1569683 31.0377343,57.7647709 30.8060234,58 C31.0008712,57.6759066 36.9410984,47.5819638 28.9154723,40.0128136 C20.8898463,32.4436633 11.3949619,38.9621235 11,39.2339438 Z" id="Path" fill="#AF174A" fill-rule="nonzero"></path>
            <path d="M30.7738775,54.6403881 C32.8243222,51.1435359 32.173306,46.9153833 29.7845379,43.7738813 C27.6144995,40.8831772 24.2617509,39.1308654 20.6600588,39.0049783 C18.464936,38.9420977 16.2936435,39.4758854 14.3754457,40.5499793 C13.5142589,41.0392296 14.2883018,42.3730804 15.1546147,41.8889801 C18.8089925,39.8333274 23.3318977,40.167742 26.6473574,42.7387307 C29.9536996,45.3497823 31.7119559,50.0053852 29.4462145,53.8627376 C29.250867,54.2292548 29.3792893,54.6853606 29.7367935,54.8947612 C30.0942978,55.1041617 30.5526401,54.9917408 30.7738775,54.6403881 L30.7738775,54.6403881 Z" id="Path" fill="#FD879C" fill-rule="nonzero"></path>
            <path d="M27.1175915,49.0270108 L25.4922507,49.4496298 C25.1296743,49.5807255 24.9234111,50.0190507 25.0265369,50.4393073 C25.1464265,50.8476081 25.519974,51.0808094 25.8834502,50.9742681 L27.5087911,50.551649 C27.8697058,50.4182486 28.0750419,49.9818937 27.9745048,49.5619716 C27.8545096,49.151102 27.4779144,48.9172689 27.1129344,49.0270108 L27.1175915,49.0270108 Z" id="Path" fill="#FD879C" fill-rule="nonzero"></path>
            <path d="M23.5995466,45.2299896 L22.2438919,46.7299217 C22.1668179,46.7967613 22.1080813,46.8789393 22.07236,46.9699108 C22.0211557,47.0593663 21.9963786,47.1592519 22.0004273,47.2598977 C22.0073906,47.4604247 22.1007,47.6505766 22.2604917,47.7898737 C22.4100797,47.9189732 22.6070743,47.9937334 22.8138202,47.9998642 C23.0347483,48.0037526 23.247411,47.9239888 23.4003484,47.7798742 L24.7560031,46.2799421 C24.8377956,46.216723 24.8974068,46.1333214 24.927535,46.0399529 C24.979222,45.9506566 25.0040282,45.850654 24.9994677,45.7499661 C24.9992739,45.5511297 24.9117015,45.360501 24.7560031,45.21999 C24.6039431,45.0837824 24.4001156,45.0051058 24.1860748,45 C23.9660212,45.000175 23.7550511,45.0793039 23.5995466,45.21999 L23.5995466,45.2299896 Z" id="Path" fill="#FD879C" fill-rule="nonzero"></path>
            <path d="M19.0062696,42.7234727 L19.1191223,44.2765273 C19.1220113,44.4679236 19.2208351,44.6510734 19.3949843,44.7877814 C19.5719489,44.922613 19.8104979,44.9987886 20.0595611,45 C20.308981,45 20.5481853,44.9237772 20.7245518,44.7880998 C20.9009183,44.6524223 21,44.4684042 21,44.2765273 L20.8808777,42.7234727 C20.8759777,42.5333205 20.7799729,42.3512575 20.6112853,42.2122187 C20.4327752,42.0762172 20.1916752,41.9999465 19.9404389,42 C19.6919073,42.0032036 19.4542851,42.0790833 19.2758621,42.2122187 C19.0994452,42.347766 19.0002195,42.5316605 19,42.7234727 L19.0062696,42.7234727 Z" id="Path" fill="#FD879C" fill-rule="nonzero"></path>
            <g id="Group" transform="translate(37.000000, 0.000000)">
                <path d="M116.52204,38.8591204 C113.573199,53.1989359 109.49866,57.6475515 92.2583412,66.229622 C75.0180225,74.8116924 65.99408,65.4174769 34.8048875,67.4963259 C3.61569494,69.5751749 0,54.8595908 0,45.0714242 L0,32.7316675 L93.6042851,16.0948148 L116.69946,17.6160717 C116.69946,17.6160717 117.464201,34.2529244 116.52204,38.8591204 Z" id="Path" fill="#5E3636" fill-rule="nonzero"></path>
                <path d="M112.935472,32.5970158 C113.013549,36.1682357 113.352831,39.7296854 113.950788,43.2548148 C115.010524,40.1511364 114.128468,36.7413753 114.636126,33.5152639 C114.656452,33.0227961 114.885944,32.5600951 115.270699,32.2358382 C115.314058,32.4797394 115.41622,32.7103992 115.568948,32.9092201 C116.020557,31.194679 116.100488,29.4086726 115.80374,27.662963 C115.442336,27.9056403 115.155217,28.2375942 114.97245,28.6240626 L112.434159,32.9092201" id="Path" fill="#512928" fill-rule="nonzero"></path>
                <path d="M30.4317891,50.6103246 L30.3876106,60.7739724 C30.3876106,63.189575 30.3876106,65.6051776 31.1449563,67.9 C31.2867962,67.4128574 31.3756254,66.9129889 31.4100273,66.4083654 L32.4261329,56.6734871 L34.3194972,65.1280961 L34.9064401,54.8074341 C35.2504943,55.419563 35.4649628,56.0906268 35.5375615,56.7821892 C35.9484012,55.4963676 36.060412,54.1401323 35.8657447,52.808523 C35.8215662,52.5126117 35.7079643,52.1563103 35.3987148,52.0898812 C35.0894653,52.0234521 34.7675934,52.3495585 34.6350579,52.6515088 C34.3614983,53.2107209 34.1825526,53.8079791 34.1049159,54.4209377 L33.6505084,53.4486576 C33.3984004,54.8928366 33.3284763,56.3607622 33.4422384,57.8208983 C33.4081277,56.4577157 33.1482422,55.1083402 32.6722702,53.823076 C31.957835,54.9183008 31.5252343,56.1601275 31.4100273,57.4464799 L31.0439769,50.2962963 C30.7963039,50.3912717 30.6047615,50.5855938 30.5201461,50.8277289" id="Path" fill="#512928" fill-rule="nonzero"></path>
                <path d="M26.1861053,53.817037 C25.8387851,56.8181645 25.7448649,59.8494116 25.9055968,62.8703704 C26.1336562,62.6267616 26.2779481,62.3007476 26.313128,61.9495917 C26.6600082,60.5367862 26.8379881,59.0784848 26.8423894,57.6130213 C26.7402887,56.6689053 26.6907947,55.7185563 26.6941962,54.7675182 C26.7208125,54.5985339 26.7208125,54.4256189 26.6941962,54.2566346 C26.6572417,54.0838734 26.5240565,53.9584955 26.3660542,53.9477282 C26.2125684,53.9477282 26.0961309,54.191289 26.2019831,54.3160397" id="Path" fill="#512928" fill-rule="nonzero"></path>
                <path d="M50.1089265,53.2746119 C49.5559932,56.617158 49.4845984,60.0132649 49.8966257,63.3733333 C50.7344023,61.3959568 51.3803084,59.3529348 51.8266325,57.2686592 C51.8846992,56.676292 52.1062912,56.1078812 52.4699681,55.6184241 C52.8133657,56.8157438 52.9821424,58.0505114 52.9717699,59.2895993 C53.7530671,57.1362935 53.8953026,54.8270538 53.3835047,52.6049513 L52.1483003,54.2013744 C51.5049647,53.0055519 50.7972956,51.9173533 50.0703263,50.7992593 C49.807161,52.1349034 49.7680981,53.5003648 49.9545259,54.8471186" id="Path" fill="#512928" fill-rule="nonzero"></path>
                <path d="M66.9267471,54.6291065 C67.1468801,56.7279898 67.2362689,58.8407248 67.1942991,60.9527871 C67.1151882,61.6092119 67.2162118,62.2764741 67.4846214,62.8703704 C68.207581,61.443043 67.8831031,59.6061348 68.5491367,58.1477786 L68.9134628,60.5680293 C69.3288056,58.9546821 69.4715453,57.2724403 69.3347148,55.6034125 C69.3347148,55.293124 69.107011,54.8835431 68.8565368,55.0262758 C68.7763475,55.0810354 68.7160083,55.1643551 68.685759,55.2620951 C68.5033588,55.6831486 68.3455491,56.1163473 68.2132736,56.5591013 C68.0464938,55.091119 67.6800435,53.6584109 67.1259879,52.3081481 C66.8868989,52.4446751 66.8527434,52.7984041 66.8527434,53.0962811 C66.8574516,54.0730089 66.9106604,55.0487426 67.012136,56.0191992" id="Path" fill="#512928" fill-rule="nonzero"></path>
                <path d="M72.9302655,53.5746931 L72.9302655,63.3288374 C72.9302655,65.0530548 72.9302655,66.8326935 73.7832063,68.402963 L74.4028642,57.3187081 C74.4903453,55.7792282 74.548666,54.1473796 73.6738549,52.8111111 C73.3230322,52.9728583 73.148435,53.3161348 73.2510296,53.6424302" id="Path" fill="#512928" fill-rule="nonzero"></path>
                <path d="M76.7985444,55.9110462 L76.8979468,55.484229 L76.8979468,61.7602449 C76.876273,62.0934739 76.9183973,62.4277102 77.0221997,62.7461325 C77.1775159,63.1368806 77.5192116,63.4615021 77.5564875,63.8762963 C77.4818132,62.2394355 77.5629194,60.599398 77.7987807,58.976916 C77.9851602,57.6724185 78.2398787,56.2356677 77.4819357,55.141573 C77.3916672,54.9716743 77.2233178,54.8534051 77.0284124,54.822963 C76.6867168,54.822963 76.5314006,55.2197226 76.4754867,55.5503556" id="Path" fill="#512928" fill-rule="nonzero"></path>
                <path d="M83.7058296,52.5122388 C83.5021289,55.4654216 83.6135151,58.4319151 84.038102,61.3614815 L85.1497042,55.0811788 C85.2837517,54.1428949 85.5083292,53.2198099 85.8202903,52.3248572 L86.2673477,53.8239093 C86.7144051,53.5398148 86.8291901,52.9595365 87.0406362,52.4759714 C87.2520823,51.9924062 87.7897594,51.5148856 88.2488995,51.7687573 C88.4882166,51.9399379 88.6508953,52.1981937 88.7019982,52.4880605 L90.8406242,59.3305077 L91.3239295,52.4215703 C91.2954834,51.6150831 91.505645,50.8181425 91.9280611,50.1306803 C92.2058379,50.2333123 92.3942933,50.4934729 92.4053251,50.7895378 C92.6792181,50.1646051 93.1049554,49.6181217 93.643795,49.1998173 L94.5379098,50.577978 L97.7518901,46.0022426 C98.0675393,46.6649378 98.4544555,47.2912278 98.9057815,47.8700131 C99.8880701,46.5433636 100.369578,44.9117791 100.265078,43.2640548 C99.4857478,43.1794309 98.7849552,43.6932188 98.114369,44.1042492 C96.3334715,45.0767354 94.4173662,45.7775798 92.4294904,46.1835795 L83.7722841,48.4140239 C83.5946677,48.4458353 83.4282258,48.5228561 83.2889788,48.6376728 C83.1584177,48.8116651 83.0903079,49.0246224 83.0956566,49.2421292 C82.9995407,50.6007298 83.0951266,51.9661041 83.3795985,53.2980322" id="Path" fill="#512928" fill-rule="nonzero"></path>
                <path d="M108.981617,53.3858505 L108.888938,39.7340741 L110.173197,49.6420285 C110.371406,50.8336586 110.444566,52.0402461 110.391654,53.2449211 C110.392858,53.5322887 110.308082,53.8143544 110.146718,54.0598611 C109.965377,54.2983544 109.627559,54.3854959 109.339091,54.2681916 L109.226553,53.8515305" id="Path" fill="#512928" fill-rule="nonzero"></path>
                <path d="M18.2320008,49.035859 C18.1515262,49.2844204 17.9329134,49.4657892 17.6695795,49.5024632 C16.9341056,49.6721374 16.1800903,49.3873271 15.4260749,49.3630879 C13.7326307,49.3085498 12.3358482,50.5750469 11.0997575,51.7385274 C11.7178028,44.4667738 9.8204036,50.156921 9.24562143,49.2176528 C3.53488239,39.4068452 7.71286896,57.2832396 7.73141032,60.8585185 C6.62510914,60.1252834 4.783334,48.2844444 4.10348411,43.7395984 L3.188777,45.2787863 C3.10574065,44.1180113 2.87528308,42.9719338 2.50274666,41.8671218 L0.895828747,46.3574297 C0.747893372,46.031209 0.617917013,45.6974405 0.506460177,45.3575636 L0.506460177,33.6985185 C0.749080999,34.2833226 1.1841815,34.7717867 1.74255088,35.0862115 C2.72414442,35.4826263 3.61352183,36.0701537 4.35688271,36.813253 C5.38283799,37.7040428 6.40879327,38.6311914 7.37912447,39.5522802 C9.18999734,41.3338599 10.8216371,43.3335921 12.9415326,44.7818831 C14.6844205,45.993842 16.7610529,46.8240339 18.0342263,48.5025971 C18.1686993,48.6481763 18.2396914,48.8395932 18.2320008,49.035859 L18.2320008,49.035859 Z" id="Path" fill="#512928" fill-rule="nonzero"></path>
                <path d="M0.670689765,30.439971 C-0.518565213,37.0822952 4.12811145,51.9696329 35.3797706,49.8794337 C66.6314298,47.7892344 75.6795759,57.2347413 92.9482938,48.6058137 C110.217012,39.9768861 114.403925,35.5222631 117.260589,21.0797783 C120.0253,6.96026896 98.4348052,-9.99898639 67.3609212,7.36246474 C36.2870373,24.7239159 3.8032119,13.0846138 0.670689765,30.439971 Z" id="Path" fill="#804746" fill-rule="nonzero"></path>
                <path d="M111.421239,14.5859259 C107.632176,17.6617273 103.738545,20.5855621 99.8080074,23.4607677 C97.8519652,24.9135672 95.8590165,26.3116587 93.8845211,27.7158289 L87.8810709,31.9344181 L81.8407142,36.0435914 C79.8047081,37.386975 77.7933062,38.7546732 75.7388468,40.0676635 C71.6545323,42.7240374 67.5333114,45.3257033 63.3075221,47.7814815 C67.1150382,44.7056801 71.0086693,41.7757666 74.9638112,38.900561 C76.9198534,37.4477616 78.912802,36.0557487 80.8872975,34.6454999 L86.8722944,30.457304 L92.9126511,26.3481307 C94.9425062,25.0047471 96.9600592,23.6370488 99.0145186,22.3240585 C103.074229,19.6494487 107.19545,17.0477827 111.421239,14.5859259 Z" id="Path" fill="#D47163" fill-rule="nonzero"></path>
                <path d="M10.6356637,27.662963 C15.6987985,29.028064 20.7067661,30.5622925 25.6902147,32.1508835 C28.1911336,32.9300783 30.6675337,33.7757161 33.1561932,34.5669915 L40.554745,37.1159854 L47.9532967,39.7435028 C50.405178,40.6495433 52.8570593,41.5193421 55.3089405,42.4616242 C60.2127031,44.3039066 65.0796874,46.2065916 69.8915044,48.2844444 C64.8283696,46.9193434 59.8204021,45.3851149 54.8308237,43.7965239 C52.3360345,43.0112888 49.8596344,42.1716913 47.3709749,41.3804159 L39.9479044,38.8495428 L32.5861308,36.2039046 C30.1342496,35.2978641 27.6823683,34.3918236 25.230487,33.4797429 C20.3267245,31.6374606 15.4229619,29.7347755 10.6356637,27.662963 Z" id="Path" fill="#D47163" fill-rule="nonzero"></path>
                <path d="M34.439292,22.6333333 C39.5429765,23.9984766 44.5913199,25.5320076 49.6089182,27.1256771 C52.1300153,27.9074772 54.6265164,28.7494158 57.1291665,29.5312159 L64.6432659,32.0931147 L72.0958751,34.715152 C74.5554821,35.6172291 77.0519832,36.5193061 79.5115902,37.4334109 C84.4308041,39.2736481 89.3500181,41.1800376 94.2015929,43.2548148 C89.0979084,41.8896715 84.0557141,40.3561405 79.0319668,38.7624711 C76.5108696,37.980671 74.0205176,37.1387324 71.5117184,36.326863 L64.0283641,33.7890196 L56.581904,31.1669823 C54.122297,30.2588914 51.6257959,29.3628282 49.1661889,28.4487234 C44.2039318,26.6024724 39.2908668,24.6780413 34.439292,22.6333333 Z" id="Path" fill="#D47163" fill-rule="nonzero"></path>
                <path d="M53.6847788,15.5918519 C57.8651823,16.6606481 61.9842896,17.9004519 66.0788783,19.1952222 C68.1323024,19.805963 70.1673375,20.526637 72.2085023,21.1923444 L78.3013485,23.2810778 L84.3635465,25.4614222 C86.3679335,26.2248481 88.3907094,26.9516296 90.3889668,27.7455926 C94.3916113,29.2968741 98.3574779,30.9092296 102.304956,32.6925926 C98.1245522,31.6237963 94.005445,30.3901 89.9108562,29.0892222 C87.8574322,28.4784815 85.822397,27.7639148 83.7812322,27.0982074 L77.6883861,25.0033667 L71.626188,22.8230222 C69.621801,22.0595963 67.5990251,21.3328148 65.6007677,20.5388519 C61.5981233,18.9875704 57.6445158,17.3752148 53.6847788,15.5918519 Z" id="Path" fill="#D47163" fill-rule="nonzero"></path>
                <path d="M73.4367257,9.05333333 C76.7234939,9.79410656 79.9551766,10.7021512 83.1684975,11.6699355 C84.7782183,12.1359058 86.3695772,12.6616158 87.9670567,13.1634299 L92.7350129,14.752508 L97.4662453,16.4072998 C99.0331218,17.0046976 100.606119,17.5602775 102.160754,18.1994931 C105.282266,19.3942886 108.385416,20.6846678 111.421239,22.1303704 C108.12835,21.3895971 104.896667,20.4815525 101.683346,19.5137682 C100.073626,19.0477979 98.4883874,18.5161139 96.8847873,18.0202738 L92.1229517,16.4311957 L87.3855986,14.758482 C85.8187222,14.1610842 84.2396045,13.6055043 82.6849692,12.9662887 C79.5756987,11.7655192 76.4725488,10.4930619 73.4367257,9.05333333 Z" id="Path" fill="#D47163" fill-rule="nonzero"></path>
                <path d="M101.292035,5.02962963 C96.4896461,8.82029578 91.5831233,12.4590923 86.633722,16.0492905 C84.1835234,17.8717262 81.6720698,19.6091148 79.1912437,21.389027 L71.6875103,26.6497912 L64.122522,31.8255085 C61.5865664,33.5264484 59.0628618,35.2516875 56.5024042,36.9222535 C51.4059911,40.2937594 46.2666994,43.6045175 41.0232743,46.7755556 C45.8317892,42.9848894 50.7383119,39.3460929 55.6815877,35.7558947 C58.1317863,33.933459 60.64324,32.1960704 63.1301916,30.4161582 L70.6339249,25.155394 L78.1989132,19.9796767 C80.7348688,18.2787368 83.2585734,16.5534977 85.819031,14.8829317 C90.9093187,11.5175005 96.0486103,8.20066766 101.292035,5.02962963 Z" id="Path" fill="#D47163" fill-rule="nonzero"></path>
                <path d="M63.3075221,14.082963 C59.8897172,16.9081425 56.3739107,19.5875063 52.8397288,22.2121892 C51.0695754,23.536682 49.2687964,24.8125695 47.4802677,26.106684 L42.0411802,29.9161196 L36.5653422,33.6526473 C34.7278127,34.8677783 32.8902831,36.1132875 31.0527536,37.2980403 C27.3776945,39.7283022 23.5985087,42.055278 19.7519469,44.2607407 C23.1636268,41.4355612 26.6794333,38.7561974 30.2319904,36.1315145 C32.0021438,34.8009461 33.8090479,33.5311342 35.5975766,32.2309441 L41.0121637,28.4215085 L46.4941268,24.6849807 C48.3316564,23.4698497 50.1691859,22.2547188 52.0067154,21.0395878 C55.7124,18.6457798 59.4548352,16.2884257 63.3075221,14.082963 Z" id="Path" fill="#D47163" fill-rule="nonzero"></path>
                <path d="M28.8682301,21.6274074 C27.2751495,23.1702927 25.5968725,24.6241748 23.8411599,25.9823306 C22.1098196,27.3624119 20.3290124,28.6627552 18.5111051,29.9262963 C16.6931978,31.1898374 14.850557,32.3797742 12.9460827,33.5329088 C11.0551347,34.700781 9.10024275,35.7635476 7.09044248,36.7162963 C8.6818848,35.1697345 10.3602565,33.7137225 12.1175127,32.3552394 C13.848853,30.9751581 15.6296602,29.6748148 17.4475675,28.4174074 C19.2654748,27.16 21.1081155,25.9639295 23.0125899,24.8107949 C24.9035379,23.6429227 26.8584298,22.5801561 28.8682301,21.6274074 L28.8682301,21.6274074 Z" id="Path" fill="#D47163" fill-rule="nonzero"></path>
                <path d="M94.8654739,35.0891192 C94.3289521,35.6381785 93.4285821,35.6381785 92.7995566,36.0885305 C92.3298723,36.5012296 91.9857938,37.0378492 91.8066829,37.6370012 C91.6956784,37.9084462 91.5846739,38.2539217 91.7635145,38.4883515 C91.9732905,38.6847747 92.2651041,38.7675242 92.546713,38.7104429 C94.2718289,38.6837403 95.9919105,38.51662 97.6899219,38.2107373 C98.6766287,38.0009843 99.8545099,37.4087405 99.768173,36.4093292 C99.6880031,35.5209636 98.6642948,35.08295 97.7885926,34.9225507 C95.9875327,34.5898858 94.1367938,34.6382204 92.3555386,35.0644424" id="Path" fill="#A05956" fill-rule="nonzero"></path>
                <path d="M11.8938279,37.202446 L15.4613844,35.9142332 C15.7813954,35.7733625 16.1275533,35.7039911 16.476345,35.7108312 C17.0349341,35.8252375 17.5361414,36.135021 17.8924279,36.5860763 C18.250688,36.9048254 18.5244235,37.3095892 18.6885947,37.7633424 C18.8561841,38.489622 18.5986994,39.2490606 18.0261353,39.7172345 C17.4592317,40.1698125 16.7837947,40.4612585 16.0691453,40.561661 C13.9369549,40.9731773 11.7305954,40.6680483 9.78489766,39.6925797 C9.46278439,39.5323236 9.11028307,39.2857757 9.11628319,38.9221176 C9.12243829,38.5584594 9.4020083,38.3735485 9.66942309,38.200965 C10.6204614,37.5925244 11.6696539,37.1585572 12.7690036,36.9189159" id="Path" fill="#A05956" fill-rule="nonzero"></path>
                <path d="M43.2009214,34.6124935 C44.0121978,35.1421899 44.9179274,35.5043913 45.8665612,35.6784832 C46.8402281,35.8372817 47.8138369,35.3939683 48.3462261,34.5494172 C48.4985544,34.2185135 48.5869465,33.8609001 48.6065909,33.4960428 C48.6933791,32.4678989 48.3710227,31.2820643 47.4473475,30.8468377 C46.5236724,30.4116112 45.4636156,30.9225293 44.5275421,31.3388329 C43.5412855,31.7707314 42.5155093,32.1024414 41.465156,32.329131 C41.1872683,32.3576188 40.923997,32.4696005 40.7088582,32.6508202 C40.5537045,32.8556796 40.4883767,33.1165414 40.5282607,33.3719684 C40.5681447,33.6273954 40.7097151,33.8548104 40.9196297,34.0006533 C41.3544907,34.2803716 41.8742755,34.3901814 42.382632,34.3097272 C42.8808532,34.2431263 43.385758,34.2473721 43.8828293,34.3223425" id="Path" fill="#A05956" fill-rule="nonzero"></path>
                <path d="M58.0205176,40.1058176 C59.0415883,40.1652054 59.9901569,39.6604095 60.9689348,39.3991034 C61.9477126,39.1377974 63.2164987,39.2387565 63.6998458,40.1176952 C63.8324646,40.3160854 63.850766,40.567934 63.7481805,40.7828379 C63.5730139,40.987325 63.3131894,41.1030155 63.0412854,41.0975929 C60.8472542,41.3484121 58.6273586,41.2743432 56.4556814,40.8778583 C56.1949082,40.8631331 55.9520453,40.7426978 55.7850373,40.5452869 C55.5010709,40.0998788 56.0871293,39.6128993 56.5765182,39.3931647 L58.4676136,38.5498587 C59.5913956,38.0510016 60.811847,37.5343283 62.0141728,37.7896956 C63.2164987,38.0450629 64.2254857,39.4466136 63.5850509,40.4799604" id="Path" fill="#A05956" fill-rule="nonzero"></path>
                <path d="M30.1868312,43.528936 L33.1804634,43.8107929 C33.4316861,43.863534 33.6930263,43.8250235 33.9194772,43.7018937 C34.1899921,43.4475605 34.2227767,43.0228063 33.9946312,42.7282063 C33.7581294,42.4542305 33.424456,42.2881962 33.0677325,42.2669859 C31.9592118,42.1388691 30.8444283,42.7410179 29.7546961,42.5104078 C29.4657994,42.4194713 29.1706094,42.3509481 28.8716372,42.3054209 C28.3350567,42.3396266 27.8215219,42.5407905 27.3998724,42.8819464 C26.9189509,43.1609108 26.4939585,43.5304032 26.1473066,43.9709389 C25.7928209,44.4317219 25.7294352,45.0601037 25.9844731,45.5852101 C26.3106572,46.0105447 26.7833525,46.2923891 27.30593,46.3731282 C28.6218193,46.7978938 30.0191271,46.8880442 31.3767687,46.6357676 C32.7549128,46.3649162 33.906542,45.4013774 34.439292,44.0734323" id="Path" fill="#A05956" fill-rule="nonzero"></path>
                <path d="M69.8321703,15.1834329 C70.6934624,15.5993356 71.6070527,15.8919029 72.5469919,16.0528247 C72.8996565,16.1639934 73.2834244,16.0912422 73.5732541,15.8582755 C73.8131823,15.495352 73.7288811,15.0041227 73.3823216,14.7456971 C73.0360192,14.5105973 72.6343061,14.3741565 72.2188266,14.350519 C70.2916016,14.0769341 68.2450438,13.8155086 66.4789181,14.6362632 C66.2237661,14.7132129 66.009111,14.890377 65.8822541,15.1287159 C65.8094492,15.3584712 65.8309709,15.6084664 65.9419205,15.8217975 C66.3839491,16.7291201 67.2323427,17.3598841 68.2152106,17.5119439 C69.1847419,17.6536821 70.1706025,17.6310851 71.132898,17.4450676 C72.1949601,17.3052354 73.4002215,17.0681285 73.9431858,16.119701" id="Path" fill="#A05956" fill-rule="nonzero"></path>
                <path d="M77.6279729,29.8447784 L75.4898419,30.150844 C74.783223,30.2592422 73.973048,30.4186514 73.601464,31.0626644 C73.306631,31.6697136 73.4144643,32.4059687 73.8694918,32.8926815 C74.3245546,33.3602421 74.9263237,33.6389417 75.5629404,33.6769745 C77.3294874,33.8555128 78.9924782,32.8926815 80.5214551,31.961732 C80.7833914,31.8023228 81.0818769,31.5663973 81.0270531,31.2539553 C80.9722292,30.9415134 80.7285675,30.8586206 80.497089,30.7629752 L78.4259649,29.8575311 C77.85336,29.6088529 76.9579034,29.5323365 76.8482556,30.1635967" id="Path" fill="#A05956" fill-rule="nonzero"></path>
                <path d="M98.2841373,10.0741624 C97.2360934,9.95802579 96.2353382,10.5296053 95.8294838,11.4761335 C95.4933499,12.4464962 95.9610577,13.5074399 96.915668,13.940023 C97.5931652,14.1306096 98.312353,14.1306096 98.9898502,13.940023 C100.098553,13.7785129 101.176191,13.4567795 102.187036,12.9854895 C102.476461,12.8560559 102.698377,12.6165842 102.8007,12.3232819 C102.825741,12.1583094 102.806722,11.9898485 102.74547,11.8340835 C102.359023,10.9175703 101.492622,10.2761541 100.481052,10.1576841 C99.4853817,10.052298 98.4783107,10.1854312 97.5477413,10.5454633" id="Path" fill="#A05956" fill-rule="nonzero"></path>
                <path d="M86.0982301,25.5174339 C86.0982301,25.5174339 91.497446,19.9206827 93.4359309,22.1535227 C94.4646362,23.3256172 92.2466764,24.8317586 90.0287165,25.394364 C88.739361,25.6885757 87.4039342,25.7303901 86.0982301,25.5174339 Z" id="Path" fill="#65A43A" fill-rule="nonzero"></path>
                <path d="M65.3333628,29.6748148 C70.2809141,29.6748148 79.2892492,29.0672086 87.1111504,25.1481481" id="Path" stroke="#65A43A" stroke-width="2.3474" stroke-linecap="round" stroke-linejoin="round"></path>
                <path d="M69.9214194,29.6748148 C69.9214194,29.6748148 69.4338746,22.0123203 72.395258,22.1317522 C73.9602167,22.194611 73.568977,24.7969676 72.4855441,26.7707357 C71.8210398,27.904663 70.949862,28.8913425 69.9214194,29.6748148 L69.9214194,29.6748148 Z" id="Path" fill="#65A43A" fill-rule="nonzero"></path>
                <path d="M75.9988321,29.1718519 C75.9988321,29.1718519 75.5130715,21.5093574 78.463617,21.6287892 C80.0288454,21.691648 79.6630257,24.2940047 78.5535727,26.2677727 C77.8913756,27.4016013 77.0234068,28.3882573 75.9988321,29.1718519 L75.9988321,29.1718519 Z" id="Path" fill="#65A43A" fill-rule="nonzero"></path>
                <path d="M82.5828144,27.662963 C82.5828144,27.662963 82.0970538,20.0004685 85.0475993,20.1199003 C86.6128277,20.1827592 86.247008,22.7851158 85.137555,24.7588838 C84.4753579,25.8927124 83.6073891,26.8793684 82.5828144,27.662963 L82.5828144,27.662963 Z" id="Path" fill="#65A43A" fill-rule="nonzero"></path>
                <path d="M82.5530088,27.16 C82.5530088,27.16 90.1895884,27.7811938 89.6122957,30.8064079 C89.3048245,32.3966641 86.8011308,31.6139598 85.019053,30.185214 C84.0057752,29.3455118 83.1680558,28.3178415 82.5530088,27.16 L82.5530088,27.16 Z" id="Path" fill="#65A43A" fill-rule="nonzero"></path>
                <path d="M76.9819469,28.6688889 C76.9819469,28.6688889 84.4307663,30.1957615 83.4825079,32.9870754 C82.9771859,34.4662332 80.6003014,33.4165083 79.0281887,31.8657784 C78.1308499,30.9406129 77.4352375,29.8538422 76.9819469,28.6688889 Z" id="Path" fill="#65A43A" fill-rule="nonzero"></path>
                <path d="M70.3979646,29.6748148 C70.3979646,29.6748148 77.4644594,31.7388344 76.3578764,34.5461468 C75.7564726,36.0265894 73.5613487,34.7918634 72.1480497,33.0964187 C71.3508395,32.0840252 70.7562082,30.9214572 70.3979646,29.6748148 L70.3979646,29.6748148 Z" id="Path" fill="#65A43A" fill-rule="nonzero"></path>
            </g>
            <g id="Group-2" transform="translate(57.000000, 55.000000)" fill-rule="nonzero">
                <path d="M26.0017473,25.6729091 L26.0017473,25.6729091 C25.4392983,25.9945455 9.95603301,34.7050909 2.35235954,21.5865455 C-5.37866087,8.24654545 8.52337994,0.195090909 8.8682779,0 L8.8682779,0 L26.0017473,25.6729091 Z" id="Path" fill="#EA2145"></path>
                <path d="M25.9858289,25.6834545 C25.4233799,26.0050909 9.94011464,34.7156364 2.33644117,21.5970909 C-5.39457924,8.25709091 8.50746158,0.205636364 8.85235954,0.0105454545 C8.55521668,0.321636364 -0.550089444,10.0287273 6.41154321,20.3790909 C13.3731759,30.7294545 25.4817473,25.8838182 25.9858289,25.6834545 Z" id="Path" fill="#AF174A"></path>
                <path d="M8.35358403,3.99672727 C5.16991056,7.32909091 4.83562484,12.0745455 6.61848198,16.182 C8.30609712,20.0510052 11.6916522,22.9329789 15.7980738,23.9961818 C18.242826,24.6094607 20.8085247,24.5584696 23.2266453,23.8485455 C24.2029718,23.5638182 23.7890942,22.0347273 22.8021555,22.3247273 C19.0550628,23.4398318 14.9978461,22.7238709 11.8662371,20.3949091 C8.91284426,18.1551932 7.15344927,14.6954585 7.09072688,11.0041818 C7.10395394,8.80966094 7.95993679,6.70297529 9.48378811,5.11454545 C10.1841963,4.37636364 9.05929831,3.25327273 8.35358403,3.99672727 L8.35358403,3.99672727 Z" id="Path" fill="#FD879C"></path>
                <path d="M10.7625636,10.6350909 L12.8850126,10.6350909 C13.3245862,10.6350909 13.680931,10.2809888 13.680931,9.84418182 C13.680931,9.40737479 13.3245862,9.05327273 12.8850126,9.05327273 L10.7625636,9.05327273 C10.32299,9.05327273 9.96664525,9.40737479 9.96664525,9.84418182 C9.96664525,10.2809888 10.32299,10.6350909 10.7625636,10.6350909 Z" id="Path" fill="#FD879C"></path>
                <path d="M13.4633799,16.298 L15.2780738,14.8849091 C15.429413,14.7380873 15.513762,14.5361617 15.5115432,14.326 C15.5113574,14.1163085 15.4273801,13.9152729 15.2780738,13.7670909 C15.1303221,13.6167042 14.9271176,13.5328861 14.7156248,13.5350909 L14.5086861,13.5350909 C14.3738007,13.5707909 14.2510277,13.641806 14.1531759,13.7407273 L12.338482,15.1538182 C12.1871428,15.30064 12.1027938,15.5025656 12.1050126,15.7127273 C12.1050126,16.1495343 12.4613574,16.5036364 12.900931,16.5036364 L13.1078697,16.4772727 C13.2427551,16.4415727 13.3655281,16.3705576 13.4633799,16.2716364 L13.4633799,16.298 Z" id="Path" fill="#FD879C"></path>
            </g>
            <g id="Group-4" transform="translate(86.000000, 58.000000)" fill-rule="nonzero">
                <path d="M10.8663441,7.35362453 L10.8663441,8.90362453 C14.0002915,8.95692337 17.08677,9.66140982 19.9207727,10.9702912 C23.6207727,12.6287912 26.686487,15.0209579 28.5470584,17.6869579 C30.2437727,20.1462912 30.7036299,22.5177912 29.8367727,24.3726245 C28.7796299,26.5736245 25.8830584,27.8911245 22.0192013,27.8911245 C18.8852939,27.8375109 15.7988822,27.1330398 12.9647727,25.8244579 C5.707487,22.5797912 1.16705843,16.4366245 3.04877272,12.3911245 C4.079487,10.1849579 7.002487,8.87262453 10.8663441,8.87262453 L10.8663441,7.32262453 M10.8663441,7.32262453 C6.50034415,7.32262453 2.96420129,8.87262453 1.60577272,11.7452912 C-0.677655853,16.6277912 4.11120129,23.5562912 12.3093441,27.2194579 C15.3498039,28.6187834 18.659109,29.3724481 22.0192013,29.4307912 C26.3852013,29.4307912 29.9477727,27.8807912 31.2797727,25.0029579 C33.5632013,20.1204579 28.7743441,13.1919579 20.581487,9.53395786 C17.5399914,8.13228107 14.2284426,7.37851569 10.8663441,7.32262453 L10.8663441,7.32262453 Z" id="Shape" fill="#D589AA"></path>
                <path d="M10.8663441,7.35362453 C14.2284426,7.40951569 17.5399914,8.16328107 20.581487,9.56495786 C28.7743441,13.2229579 33.5632013,20.1514579 31.2797727,25.0339579 C29.9266299,27.9324579 26.3852013,29.4617912 22.0192013,29.4617912 C18.6680504,29.3998143 15.3681349,28.6462369 12.3357727,27.2504579 C4.13762986,23.5872912 -0.651227281,16.6587912 1.63220129,11.7762912 C2.99062986,8.88295786 6.52677272,7.35362453 10.8927727,7.35362453 M10.8927727,6.32029119 C5.892487,6.32029119 2.16605843,8.15445786 0.67020129,11.3474579 C-0.593084424,14.0496245 -0.0592272814,17.3201245 2.17662986,20.5492912 C4.29091558,23.6492912 7.75834415,26.3411245 11.8917727,28.1907912 C15.0715896,29.6521604 18.5323813,30.4375583 22.0456299,30.4951245 C27.0459156,30.4951245 30.7723441,28.6609579 32.2682013,25.4679579 C33.531487,22.7606245 32.9976299,19.4952912 30.7617727,16.2609579 C28.647487,13.1609579 25.1800584,10.4691245 21.0466299,8.62462453 C17.8680893,7.15966108 14.4064956,6.37408122 10.8927727,6.32029119 Z" id="Shape" fill="#99224C"></path>
                <path d="M19.2072013,1.03995786 L19.2072013,2.58995786 L19.2072013,2.58995786 C22.1672013,2.58995786 25.8513441,4.31045786 28.8219156,7.08495786 C33.4152013,11.3732912 35.233487,17.1134579 32.7862013,19.6141245 C31.8742259,20.4430624 30.6575998,20.8755078 29.4139156,20.8127912 C26.4539156,20.8127912 22.7697727,19.0871245 19.7992013,16.3177912 C17.5812453,14.3375674 15.9490775,11.8106136 15.0737727,9.00179119 C14.4659156,6.76462453 14.735487,4.90979119 15.8349156,3.78345786 C16.7487049,2.95793487 17.9645427,2.52763253 19.2072013,2.58995786 L19.2072013,1.03995786 M19.2072013,1.03995786 C17.5287247,0.962823454 15.8925653,1.56887737 14.6879156,2.71395786 C11.590487,5.88112453 13.3929156,12.4737912 18.7050584,17.4337912 C22.1143441,20.6216245 26.1473441,22.3627912 29.4139156,22.3627912 C31.0923922,22.4399256 32.7285516,21.8338717 33.9332013,20.6887912 C37.0306299,17.5164579 35.233487,10.9289579 29.9160584,5.96379119 C26.5067727,2.77595786 22.4737727,1.03995786 19.2072013,1.03995786 L19.2072013,1.03995786 Z" id="Shape" fill="#D589AA"></path>
                <path d="M19.2072013,1.03995786 C22.4737727,1.03995786 26.5067727,2.77595786 29.9160584,5.96379119 C35.233487,10.9289579 37.0306299,17.5164579 33.9332013,20.6887912 C32.7285516,21.8338717 31.0923922,22.4399256 29.4139156,22.3627912 C26.1473441,22.3627912 22.1143441,20.6216245 18.7050584,17.4337912 C13.3929156,12.4737912 11.590487,5.88112453 14.6879156,2.71395786 C15.8925653,1.56887737 17.5287247,0.962823454 19.2072013,1.03995786 M19.2072013,0.00662452608 L19.2072013,0.00662452608 L19.2072013,0.00662452608 C17.2379573,-0.0776511349 15.322079,0.645221831 13.921487,2.00095786 C12.1560584,3.80412453 11.6592013,6.52695786 12.515487,9.66829119 C13.5155786,12.9351443 15.4003091,15.8770823 17.9703441,18.1829579 C21.4642013,21.4482912 25.7403441,23.3961245 29.4086299,23.3961245 C31.3772373,23.4766122 33.2916198,22.7543036 34.6943441,21.4017912 C38.2463441,17.7851245 36.4650584,10.6551245 30.645487,5.21462453 C27.1357727,1.95445786 22.8649156,0.00662452608 19.2072013,0.00662452608 L19.2072013,0.00662452608 Z" id="Shape" fill="#99224C"></path>
            </g>
            <path d="M141.812822,68.2911971 C140.460997,76.551246 130.58268,80.9920759 127.463489,79.8120689 C126.689673,79.5747245 126.006877,79.1059789 125.506761,78.4687574 C124.454757,76.9674092 125.007059,74.2544467 127.479269,68.2911971 C130.950881,59.9415941 131.119202,52.8299448 133.007549,52.1398514 C133.327455,52.0249176 133.668248,51.9800093 134.006953,52.0081542 C137.857287,52.2504771 143.054186,60.7107058 141.812822,68.2911971 Z" id="Path" fill="#CE7F00" fill-rule="nonzero"></path>
            <path d="M136.999392,63.5486596 C136.940344,69.6857292 135.142052,75.6675609 125.517168,79 C124.443561,77.5252405 125.007204,74.8603241 127.53018,69.0026826 C131.073083,60.8009497 131.24486,53.8152466 133.171984,53.1373747 C133.498459,53.0244763 133.846251,52.9803634 134.19191,53.0080098 C135.324565,55.2900062 137.036968,59.3934599 136.999392,63.5486596 Z" id="Path" fill="#FFA300" fill-rule="nonzero"></path>
            <path d="M129.108735,69.5393703 C129.643402,69.9412682 130.151016,70.4028471 130.626017,70.9190499 C130.712688,71.0269834 130.848095,71.0269834 130.934766,70.9190499 C130.976516,70.8643964 131,70.7899997 131,70.712389 C131,70.6347784 130.976516,70.5603817 130.934766,70.5057282 C130.433778,69.9545833 129.896476,69.4636304 129.32927,69.0387271 C129.224434,68.9592406 129.090653,69.0059794 129.029342,69.1435129 C128.969118,69.2818805 129.00453,69.4584491 129.108735,69.5393703 L129.108735,69.5393703 Z" id="Path" fill="#CE7F00" fill-rule="nonzero"></path>
            <path d="M130.172417,68.5851675 C130.667979,68.76237 131.173586,68.8975865 131.685398,68.9897897 C131.771471,69.0172761 131.863403,68.9883642 131.926566,68.913945 C131.989728,68.8395258 132.014524,68.7309052 131.991614,68.6289997 C131.968704,68.5270942 131.901568,68.4473855 131.815495,68.4198992 C131.303029,68.3291465 130.797214,68.1919692 130.302515,68.009578 C130.17488,67.9695673 130.043797,68.0585226 130.008592,68.2090397 C129.974098,68.3597426 130.046434,68.5157539 130.172417,68.5623718 L130.172417,68.5851675 Z" id="Path" fill="#CE7F00" fill-rule="nonzero"></path>
            <path d="M132.781134,64.2519488 C132.276438,64.2356465 131.773136,64.1556366 131.275339,64.0125724 C131.159389,63.9600533 131.040306,64.076818 131.008323,64.2743903 C130.992323,64.3696642 130.999583,64.4719504 131.028449,64.5579238 C131.057314,64.6438971 131.105324,64.7062276 131.161529,64.7307016 C131.696547,64.8914487 132.238019,64.9814815 132.781134,65 C132.901033,64.9960203 132.997671,64.8308719 133,64.6259744 C133,64.4194057 132.902011,64.2519488 132.781134,64.2519488 L132.781134,64.2519488 Z" id="Path" fill="#CE7F00" fill-rule="nonzero"></path>
            <path d="M131.39479,61.9911571 L132.771083,61.509816 C132.851148,61.4917062 132.919179,61.4475604 132.959958,61.387253 C133.000737,61.3269457 133.010861,61.2555091 132.988066,61.188922 C132.937308,61.0532986 132.769009,60.9739811 132.603696,61.0077721 L131.227403,61.4891132 C131.153177,61.5133207 131.08869,61.5545962 131.041418,61.6081545 C131.000466,61.6696318 130.989369,61.7418938 131.01042,61.8100073 C131.058509,61.9474152 131.229026,62.0277782 131.39479,61.9911571 L131.39479,61.9911571 Z" id="Path" fill="#CE7F00" fill-rule="nonzero"></path>
            <path d="M131.356403,61.9646782 C132.259589,61.6800197 133.109265,61.2117758 133.863761,60.5829101 C133.994664,60.4939891 134.038716,60.3032561 133.962953,60.1534416 C133.886351,60.0063931 133.719208,59.9564208 133.588227,60.0414064 C132.875316,60.6442954 132.070183,61.09371 131.213125,61.3671568 C131.060952,61.4118446 130.969665,61.5874042 131.00923,61.7592802 C131.048795,61.9311562 131.20423,62.0342626 131.356403,61.9895749 L131.356403,61.9646782 Z" id="Path" fill="#CE7F00" fill-rule="nonzero"></path>
            <path d="M174.19305,42 L175.80695,42 C175.913568,42 176,41.7761424 176,41.5 C176,41.2238576 175.913568,41 175.80695,41 L174.19305,41 C174.086432,41 174,41.2238576 174,41.5 C174,41.7761424 174.086432,42 174.19305,42 Z" id="Path" fill="#CE7F00" fill-rule="nonzero"></path>
            <path d="M174.130669,47.5361017 C175.188102,48.3778629 176.439361,48.8845743 177.745578,49 C178.084807,49 178.084807,48.4236621 177.745578,48.4236621 C176.532806,48.3082563 175.373217,47.8294472 174.395692,47.0404511 C174.335503,47.0010575 174.263204,46.9898565 174.195291,47.0094035 C174.127378,47.0289505 174.069644,47.0775781 174.035261,47.1441919 C173.962888,47.2811797 174.005444,47.4559875 174.130669,47.5361017 L174.130669,47.5361017 Z" id="Path" fill="#CE7F00" fill-rule="nonzero"></path>
            <path d="M173.078877,56.5140058 C173.372562,57.093363 173.829418,57.5961572 174.405614,57.9741509 C174.503961,58.0086164 174.613436,58.0086164 174.711784,57.9741509 C174.81016,57.9488997 174.894225,57.8918176 174.947299,57.8142303 C174.99949,57.7342723 175.013613,57.6392073 174.986551,57.5500135 C174.954354,57.4645748 174.890789,57.3911419 174.80599,57.3414214 C174.743186,57.2997029 174.853093,57.3414214 174.80599,57.3414214 L174.758887,57.3414214 L174.672531,57.2788437 L174.49982,57.1397823 L174.334959,56.9798616 L174.264304,56.9033779 L174.225052,56.8616594 L174.225052,56.8616594 C174.225052,56.9033779 174.225052,56.8616594 174.225052,56.8616594 L174.185799,56.819941 L174.068042,56.7295511 L173.942433,56.5557243 C173.863952,56.4317727 173.793192,56.3041087 173.73047,56.1733053 C173.678618,56.0947556 173.594063,56.0373407 173.494954,56.0133847 C173.393955,55.9878189 173.2856,55.9991737 173.194126,56.0449092 C173.102652,56.0906447 173.035692,56.1669445 173.008223,56.2567422 C172.989385,56.3485536 173.003097,56.4432786 173.047475,56.527912 L173.078877,56.5140058 Z" id="Path" fill="#CE7F00" fill-rule="nonzero"></path>
            <path d="M159.157221,29.8499323 C159.737009,30.1175654 160.361134,30.024774 160.89764,29.5911764 C160.960836,29.5348078 160.999855,29.4303952 161,29.3172698 C161.000144,29.2041445 160.961391,29.0994929 160.89834,29.0427362 C160.835288,28.9859795 160.757516,28.9857404 160.69432,29.0421091 C160.252624,29.3984488 159.737974,29.4687927 159.262948,29.2377537 C159.190308,29.2084421 159.113111,29.2415016 159.060436,29.3244791 C159.00776,29.4074566 158.987609,29.5277458 159.007573,29.640035 C159.027536,29.7523242 159.084582,29.8395539 159.157221,29.8688656 L159.157221,29.8499323 Z" id="Path" fill="#CE7F00" fill-rule="nonzero"></path>
            <path d="M159.210675,34.9971938 C159.862314,35.0407998 160.491546,34.5744142 160.929588,33.7231382 C160.990315,33.6161265 161.014031,33.4601537 160.991804,33.3139731 C160.969576,33.1677925 160.904782,33.0536124 160.821828,33.0144434 C160.738873,32.9752745 160.650362,33.0170673 160.589636,33.1240789 C160.545494,33.2174085 160.497481,33.3048357 160.445994,33.38564 C160.388537,33.478452 160.355021,33.5206393 160.311928,33.5797014 L160.139558,33.7737629 L160.048585,33.8497 L160.005493,33.8918873 L160.005493,33.8918873 C159.880915,33.9847121 159.750825,34.0526358 159.61766,34.0943862 L159.560203,34.0943862 C159.560203,34.0943862 159.521899,34.0943862 159.560203,34.0943862 L159.239403,34.0943862 C159.107184,34.0943862 159,34.283265 159,34.5162589 C159.004916,34.7455689 159.109275,34.9294693 159.239403,34.9381316 L159.210675,34.9971938 Z" id="Path" fill="#CE7F00" fill-rule="nonzero"></path>
            <path d="M154,35.2778714 L154.24812,38.7242868 C154.24812,39.0919044 155,39.0919044 155,38.7242868 L154.75188,35.2778714 C154.75188,34.9102538 154,34.9045097 154,35.2778714 Z" id="Path" fill="#CE7F00" fill-rule="nonzero"></path>
            <g id="Group-3" transform="translate(170.000000, 26.000000)" fill-rule="nonzero">
                <path d="M16.664653,20.8043921 C16.1495015,31.9396421 9.51950152,38.7383921 4.81616819,40.8908921 C3.92728728,41.3379982 2.95751068,41.5935665 1.96738031,41.6416421 C1.70126331,41.6251017 1.45943228,41.4784028 1.3182894,41.2478921 C-0.0623166602,39.4418921 -0.294134842,31.7611421 0.324046976,25.2773921 C0.360107582,24.8993921 0.401319703,24.5266421 0.442531825,24.1591421 L0.519804552,23.4556421 C0.952531825,19.5286421 1.2513197,15.6698921 1.51404698,12.2626421 C1.94162273,6.66089206 2.24556213,2.28764206 2.78647122,0.822892057 C4.38859243,-3.50835794 17.1385924,10.4776421 16.664653,20.8043921 Z" id="Path" fill="#FFA300"></path>
                <path d="M16.664653,20.8043921 C16.1495015,31.9396421 9.51950152,38.7383921 4.81616819,40.8908921 C7.79374395,36.8116421 10.6219258,31.1206421 10.7301076,24.0908921 C10.9619258,9.10739206 2.78647122,0.801892057 2.78647122,0.801892057 C4.38859243,-3.50835794 17.1385924,10.4776421 16.664653,20.8043921 Z" id="Path" fill="#CE7F00"></path>
                <path d="M3.37889546,13.4071421 C4.03313789,13.0868921 4.69768334,12.7928921 5.37253182,12.5303921 C5.50929739,12.4896685 5.58928471,12.3452679 5.55283485,12.2048921 C5.51519555,12.0662312 5.37505072,11.984283 5.23859243,12.0211421 C4.51738031,12.3046421 3.81162273,12.6143921 3.11616819,12.9503921 C2.99564674,13.0271315 2.95684623,13.1876267 3.02859243,13.3126421 C3.10356944,13.4320609 3.255764,13.4731179 3.37889546,13.4071421 L3.37889546,13.4071421 Z" id="Path" fill="#CE7F00"></path>
                <path d="M3.6313197,23.3663921 C4.23637958,23.6932229 4.88566973,23.9267651 5.55798637,24.0593921 C5.69405019,24.093307 5.83229446,24.0124701 5.87222879,23.8756421 C5.8911704,23.8080992 5.88275768,23.7356373 5.84887236,23.6744643 C5.81498704,23.6132913 5.75845665,23.5685119 5.69192576,23.5501421 C5.06479335,23.4313644 4.45873414,23.2172237 3.89404698,22.9148921 C3.77005126,22.8427124 3.61218894,22.8846812 3.53859243,23.0093921 C3.4682531,23.1341775 3.50961325,23.2934141 3.6313197,23.3663921 L3.6313197,23.3663921 Z" id="Path" fill="#CE7F00"></path>
                <path d="M3.04404698,28.5218921 C3.82937822,29.6131134 5.01156532,30.3374991 6.32556213,30.5326421 C6.4625554,30.5642346 6.60071737,30.4847488 6.64495607,30.3488921 C6.68140592,30.2085162 6.60141861,30.0641156 6.46465304,30.0233921 C5.28101538,29.8635882 4.20906131,29.2285324 3.48707728,28.2593921 C3.40939008,28.1505275 3.26348997,28.1191941 3.14930195,28.1868517 C3.03511394,28.2545092 2.98964966,28.399228 3.04404698,28.5218921 L3.04404698,28.5218921 Z" id="Path" fill="#CE7F00"></path>
            </g>
            <path d="M163.181654,41.3106185 L163.181654,41.3106185 L163.181654,41.3106185 C162.86066,41.5644281 162.49944,41.7478399 162.117189,41.8511075 C160.181798,42.4240259 157.409351,41.3106185 154.825604,39.0783987 C153.582115,34.9490624 153.828877,30.8575603 154.99495,29.4414791 C155.474327,28.7741341 156.129362,28.2919955 156.867441,28.063232 C158.352854,27.7065092 160.293083,28.8307264 163.810656,32.1601389 C163.994518,37.0623746 164.323535,40.3755724 163.181654,41.3106185 Z" id="Path" fill="#CE7F00" fill-rule="nonzero"></path>
            <path d="M181,44.5834897 C181.00024,44.9171888 180.920581,45.2467577 180.766796,45.5483114 C179.784008,47.5553471 175.714047,48.9535647 171,49 C171.466408,45.1407129 171.788451,41.3484991 172.071627,38 C177.074403,41.2865854 180.97779,43.1439962 181,44.5834897 Z" id="Path" fill="#CE7F00" fill-rule="nonzero"></path>
            <path d="M180,46.388885 C180,46.7369033 179.927047,47.0806144 179.785783,47.395108 C178.230167,51.0056732 168.248717,52.7221713 161.317296,48.6111851 C153.768729,44.1342996 152.835359,32.9689901 155.048925,30.4345994 C155.55425,29.77022 156.244742,29.290224 157.022774,29.062477 C158.83341,28.6535308 161.291794,30.2139836 166.203463,34.8738188 C173.134884,41.4115783 179.974498,44.3118684 180,46.388885 Z" id="Path" fill="#FFA300" fill-rule="nonzero"></path>
            <path d="M180,47.3848415 C178.43146,51.0056893 168.367089,52.727076 161.378085,48.6043819 C153.766808,44.1147464 152.825684,32.9176387 155.057639,30.3760301 C155.567162,29.7097586 156.26339,29.2283956 157.047885,29 C160.200394,51.3348573 180,47.3848415 180,47.3848415 Z" id="Path" fill="#CE7F00" fill-rule="nonzero"></path>
            <path d="M161.328032,36.9515006 C161.816253,36.489979 162.321057,36.0785155 162.839608,35.7194221 C162.95475,35.6597323 163.02209,35.4618194 162.993402,35.267417 C162.961296,35.0748658 162.841756,34.9610685 162.725361,35.0122529 C162.170489,35.3936927 161.630437,35.8319613 161.108326,36.3245257 C161.004513,36.4258665 160.969234,36.6469901 161.029232,36.8202733 C161.090313,36.9925118 161.223589,37.0510445 161.328032,36.9515006 L161.328032,36.9515006 Z" id="Path" fill="#CE7F00" fill-rule="nonzero"></path>
            <path d="M162.472399,38.917138 C162.913243,38.4045521 163.395001,37.9268322 163.913158,37.4884582 C163.9687,37.4353646 164,37.3626939 164,37.28683 C164,37.2109662 163.9687,37.1382955 163.913158,37.0852018 C163.857722,37.0306722 163.782261,37 163.703539,37 C163.624818,37 163.549357,37.0306722 163.493921,37.0852018 C162.987437,37.5241438 162.515682,37.9998048 162.082686,38.5081208 C161.972438,38.6232458 161.972438,38.802013 162.082686,38.917138 C162.19949,39.0276207 162.385119,39.0276207 162.501923,38.917138 L162.472399,38.917138 Z" id="Path" fill="#CE7F00" fill-rule="nonzero"></path>
            <path d="M166.439588,39.0427453 C165.805279,39.4919491 165.317816,40.0422063 165.014264,40.651677 C164.986843,40.7223384 164.999286,40.7982006 165.048755,40.8619641 C165.098223,40.9257276 165.180501,40.971956 165.276824,40.9901075 C165.4752,41.0298243 165.680564,40.9465346 165.741929,40.8014741 C165.754889,40.7651879 165.772471,40.7298923 165.794441,40.6960614 L165.794441,40.6683211 L165.794441,40.6683211 C165.83195,40.6017447 165.87696,40.5296201 165.92197,40.4630437 C166.011902,40.3330444 166.112098,40.2070712 166.222039,40.0857769 C166.274551,40.0302965 166.327063,39.969268 166.387076,39.9137876 L166.387076,39.8749514 C166.424585,39.8361151 166.334564,39.9248837 166.387076,39.8749514 C166.416388,39.8501378 166.443931,39.8242118 166.469595,39.7972788 C166.601902,39.6846441 166.742128,39.5772336 166.889691,39.4754924 C167.03677,39.366717 167.03677,39.1903571 166.889691,39.0815816 C166.742611,38.9728061 166.504149,38.9728061 166.357069,39.0815816 L166.439588,39.0427453 Z" id="Path" fill="#CE7F00" fill-rule="nonzero"></path>
            <path d="M167.279068,40.1247442 C166.774242,40.6158551 166.350209,41.1391382 166.013757,41.6862152 C165.958525,41.8168855 166.074351,41.9521586 166.276077,41.9925798 C166.48181,42.0248408 166.691258,41.9491147 166.754427,41.8196321 C167.070416,41.3133285 167.468659,40.8297099 167.942585,40.3767538 C168.015762,40.3007541 168.019221,40.20538 167.951632,40.1272862 C167.884042,40.0491924 167.755922,40.0005312 167.616511,40 C167.4771,39.9994774 167.348092,40.0471668 167.279068,40.1247442 L167.279068,40.1247442 Z" id="Path" fill="#CE7F00" fill-rule="nonzero"></path>
            <path d="M170.448875,41.1890637 C170.194319,42.0140475 170.04357,42.8665881 170,43.7276224 C170,43.8780524 170.124054,44 170.277083,44 C170.430112,44 170.554166,43.8780524 170.554166,43.7276224 C170.59542,42.9157729 170.740649,42.1122769 170.986416,41.3361476 C171.091707,40.9983994 170.554166,40.8567631 170.43225,41.1890637 L170.448875,41.1890637 Z" id="Path" fill="#CE7F00" fill-rule="nonzero"></path>
            <path d="M154.237154,64.4906352 C145.633347,66.9317266 137.182334,59.9848092 137.024273,56.6498706 C136.932589,55.8263614 137.102028,54.9949835 137.508994,54.2715053 C138.536393,52.7033524 141.407841,51.9454118 148.236091,51.5376921 C157.80934,50.973157 164.795652,47.9675306 166.260353,49.3684139 C166.361383,49.4665643 166.451469,49.5752185 166.529058,49.6924988 C166.645476,49.8526182 166.737769,50.0287054 166.803031,50.2152164 C168.183433,53.8062866 162.129684,62.2481766 154.237154,64.4906352 Z" id="Path" fill="#FFA300" fill-rule="nonzero"></path>
            <path d="M154.243848,64.5008675 C145.6367,66.8929216 137.182405,60.0855557 137.024282,56.8176103 C136.932563,56.010644 137.102067,55.195967 137.509192,54.4870222 C137.509192,54.4870222 139.148397,61.3865872 151.239516,61.5043972 C160.932439,61.5965963 165.222836,53.3089228 166.524713,50 C166.641177,50.1569029 166.733505,50.3294528 166.798792,50.5122171 C168.195543,54.031149 162.139443,62.3034559 154.243848,64.5008675 Z" id="Path" fill="#CE7F00" fill-rule="nonzero"></path>
            <path d="M146.111298,54.2007164 L145.015439,56.6389465 C144.951607,56.7916219 145.091514,56.9488071 145.32793,56.9900295 C145.564347,57.0312518 145.807747,56.9409013 145.871579,56.7882259 L146.984561,54.3610535 C147.048393,54.2083781 146.908486,54.0511929 146.67207,54.0099705 C146.435653,53.9687482 146.192253,54.0590987 146.128421,54.2117742 L146.111298,54.2007164 Z" id="Path" fill="#CE7F00" fill-rule="nonzero"></path>
            <path d="M146.10455,54.2336449 C145.982165,55.0795533 145.967208,55.9287615 146.059778,56.7757009 C146.059778,57.0747664 146.955228,57.0747664 146.955228,56.7757009 C146.862658,55.9287615 146.877615,55.0795533 147,54.2336449 C147,54.1046064 146.799547,54 146.552275,54 C146.305003,54 146.10455,54.1046064 146.10455,54.2336449 L146.10455,54.2336449 Z" id="Path" fill="#CE7F00" fill-rule="nonzero"></path>
            <path d="M152.011613,53.2994365 C152.305559,54.1877528 152.74503,55.0537414 153.322731,55.8830306 C153.371405,55.9372414 153.452046,55.9766646 153.546548,55.9924484 C153.64105,56.0082322 153.741494,55.9990538 153.825327,55.9669741 C153.991012,55.8990994 154.047975,55.7613218 153.956439,55.6498542 C153.412351,54.8529597 153.002142,54.0212864 152.732728,53.1688577 C152.638036,52.8750555 151.938773,52.9963072 152.004329,53.2901094 L152.011613,53.2994365 Z" id="Path" fill="#CE7F00" fill-rule="nonzero"></path>
            <path d="M153.014319,53.2983057 C153.33913,53.8425152 153.737887,54.3720834 154.207114,54.8823932 C154.328834,54.9953935 154.589918,55.0334214 154.794992,54.9680195 C154.990004,54.8970365 155.056409,54.7549114 154.948351,54.6397852 C154.507632,54.1692313 154.137177,53.6791826 153.840756,53.1746232 C153.774668,53.0483309 153.540327,52.9744689 153.312518,53.0081275 C153.087492,53.0428845 152.954503,53.1722972 153.014319,53.2983057 L153.014319,53.2983057 Z" id="Path" fill="#CE7F00" fill-rule="nonzero"></path>
            <path d="M158.864505,53.4376297 C158.634889,53.2222833 158.420087,53.0006032 158.212691,52.804258 L158.138621,52.7219196 C158.138621,52.6839173 158.175656,52.759922 158.138621,52.7219196 L158.138621,52.6839173 L157.983075,52.5065733 C157.879377,52.3925663 157.783086,52.2722257 157.686796,52.1518851 C157.578992,52.0078155 157.360163,51.9582835 157.183121,52.0378781 C157.007173,52.128364 156.947961,52.3224536 157.049796,52.4749047 C157.451535,52.9766014 157.891995,53.4548047 158.368238,53.9063248 C158.437777,53.9662775 158.532436,54 158.631185,54 C158.729934,54 158.824594,53.9662775 158.894133,53.9063248 C159.035289,53.7831836 159.035289,53.5861059 158.894133,53.4629646 L158.864505,53.4376297 Z" id="Path" fill="#CE7F00" fill-rule="nonzero"></path>
            <path d="M171.230348,67 C169.94184,65.2374402 169.725486,57.7414374 170.30243,51.4136428 C170.670385,51.1062338 171.135142,50.9613158 171.600554,51.0088689 C171.903984,51.0842783 172.186983,51.2333202 172.427507,51.4443851 C174.802592,53.4528835 174.552583,61.17433 171.230348,67 Z" id="Path" fill="#CE7F00" fill-rule="nonzero"></path>
            <path d="M169.792516,70.6496304 C163.715168,76.8419002 153.051943,75.3588133 150.923545,72.7188168 C150.883637,72.6781645 150.848074,72.6337727 150.81739,72.5863074 C150.308465,71.9426284 150.022587,71.1619023 150,70.3540323 C150.063693,68.5090927 152.170861,66.4755819 157.87136,62.76022 C165.864798,57.5464818 170.355135,51.5478797 172.345533,52.0269524 C172.68051,52.1019615 172.992931,52.250212 173.258462,52.4601565 C176.315713,54.7943619 175.461169,64.8650821 169.792516,70.6496304 Z" id="Path" fill="#FFA300" fill-rule="nonzero"></path>
            <path d="M169.811079,71.5608165 C163.752377,77.879503 153.121869,76.3661386 151,73.6722459 C154.608764,73.9062713 159.831418,73.1937939 165.286895,68.9449323 C175.282431,61.1440848 173.255808,53 173.255808,53 C176.314262,55.3818588 175.46234,65.6581752 169.811079,71.5608165 Z" id="Path" fill="#CE7F00" fill-rule="nonzero"></path>
            <path d="M158.010666,66.3744089 L158.301895,67.7835647 C158.356993,67.9400966 158.552363,68.0316443 158.742288,67.9899264 C158.92507,67.9417851 159.033068,67.7855456 158.990898,67.6302674 L158.69967,66.2152155 C158.641513,66.0607165 158.448684,65.9703599 158.259276,66.0088538 C158.073147,66.0571274 157.964292,66.2171877 158.010666,66.3744089 L158.010666,66.3744089 Z" id="Path" fill="#CE7F00" fill-rule="nonzero"></path>
            <path d="M159.032311,65.3012049 C159.480295,66.5182892 159.987503,67.7100647 160.551902,68.8717574 C160.696625,69.1625024 161.111497,68.9074629 160.971599,68.6167179 C160.42279,67.4971999 159.930051,66.3479348 159.495425,65.1736852 C159.384471,64.8676378 158.916533,65.0002583 159.013015,65.3063057 L159.032311,65.3012049 Z" id="Path" fill="#CE7F00" fill-rule="nonzero"></path>
            <path d="M163.927798,64.5880911 C163.774105,64.4908854 163.628862,64.38613 163.492991,64.2744904 C163.365748,64.1723234 163.249042,64.062782 163.14392,63.9468478 C163.032297,63.8244207 162.932026,63.6961705 162.843842,63.563038 C162.79485,63.4928288 162.751981,63.4226197 162.709113,63.3524106 C162.666245,63.2822015 162.709113,63.3524106 162.709113,63.3524106 L162.678493,63.2962433 L162.623376,63.1792281 C162.59384,63.0956171 162.508185,63.0304009 162.398677,63.0081459 C162.289169,62.9858909 162.172446,63.0099781 162.092475,63.0713341 C162.012504,63.1326902 161.981435,63.2219935 162.010972,63.3056045 C162.295938,63.9401949 162.801982,64.5033572 163.474619,64.9344561 C163.597003,65.021848 163.787042,65.021848 163.909426,64.9344561 C163.967394,64.890513 164,64.8306958 164,64.7682945 C164,64.7058932 163.967394,64.646076 163.909426,64.6021329 L163.927798,64.5880911 Z" id="Path" fill="#CE7F00" fill-rule="nonzero"></path>
            <path d="M162.074249,62.401066 C163.129942,63.3649361 164.315252,64.2237781 165.606651,64.9605436 C165.899178,65.1265637 166.158588,64.7253483 165.882619,64.5593282 C164.630801,63.8458624 163.48405,63.011537 162.466125,62.0736373 C162.223272,61.8522771 161.836916,62.1797058 162.074249,62.401066 L162.074249,62.401066 Z" id="Path" fill="#CE7F00" fill-rule="nonzero"></path>
            <path d="M167.184674,59.4912689 L168.430805,59.9628135 C168.517088,59.9990278 168.62073,60.0093249 168.718086,59.9913554 C168.815441,59.9733859 168.898204,59.9286827 168.947493,59.8674449 C169.05257,59.7428862 168.995098,59.5825889 168.818321,59.5071637 L167.57219,59.0356191 C167.3893,58.9627761 167.156457,59.0051306 167.047904,59.1309876 C166.948425,59.2572987 167.008602,59.4158182 167.184674,59.4912689 L167.184674,59.4912689 Z" id="Path" fill="#CE7F00" fill-rule="nonzero"></path>
            <path d="M55,59.7776818 C55,65.813948 51.3880289,77 40,77 C28.6119711,77 25,66.8951468 25,60.8640047 C25,54.8328627 31.7182663,55.1403125 40,55.1403125 C48.2817337,55.1403125 55,53.7414155 55,59.7776818 Z" id="Path" fill="#AF174A" fill-rule="nonzero"></path>
            <ellipse id="Oval" fill="#EA2145" fill-rule="nonzero" cx="40" cy="60" rx="15" ry="11"></ellipse>
            <path d="M38.6329549,54.7042918 C38.0390924,53.0672265 40.3121521,52.4917733 41.5664305,52.4917733 C43.228255,52.5545689 44.8423173,53.0479314 46.2405374,53.9204848 C47.6485001,54.7339623 48.8684083,55.8197984 49.82419,57.1102816 C50.6689081,58.2711096 51.8719915,60.1512542 51.4214751,61.6345345 C50.9709588,63.1178148 48.4879995,64.1943092 47.2286016,63.0781284 C46.5016321,62.4332239 45.4111778,63.4849143 46.1432668,64.1298188 C47.7968665,65.6180599 50.3617379,65.0277242 51.8668719,63.6337384 C53.7047738,61.952026 52.9880433,59.5212321 51.9539035,57.6162835 C50.0084921,54.0395441 45.7029895,50.8795121 41.3923674,51.0035322 C39.1807418,51.0680226 36.2421466,52.5215381 37.1790158,55.1011561 C37.506664,55.9990615 38.9913201,55.5972364 38.6585524,54.7042918 L38.6329549,54.7042918 Z" id="Path" fill="#FD879C" fill-rule="nonzero"></path>
            <path d="M158.128549,67.5944725 L158.128549,67.5944725 C160.344306,67.5944725 162.015378,68.3013553 162.845625,69.5769333 C163.675873,70.8525113 163.628279,72.8456019 162.602368,74.9928249 C161.210169,77.6702895 159.125818,79.9212268 156.568529,81.5089025 C153.749917,83.3478607 150.587572,84.4055275 147.895877,84.4055275 C145.68012,84.4055275 144.00376,83.7039596 143.1788,82.4230667 C141.248607,79.4414031 144.1201,73.9776774 149.450609,70.4964124 C152.26922,68.6521393 155.431566,67.5944725 158.128549,67.5944725 M158.128549,66 C155.230614,66 151.782706,67.0629817 148.583343,69.1570555 C142.433164,73.185756 139.403024,79.5211268 141.846173,83.2947117 C143.020154,85.1017805 145.230623,86 147.895877,86 C150.793812,86 154.24172,84.9370183 157.414641,82.8429445 C163.580685,78.814244 166.594961,72.4895031 164.151811,68.7106032 C162.983119,66.8982195 160.767362,66 158.107396,66 L158.128549,66 Z" id="Shape" fill="#D589AA" fill-rule="nonzero"></path>
            <path d="M158.070099,66.0569301 C160.698177,66.0569301 162.916275,66.950036 164.077885,68.7521018 C166.50623,72.5094883 163.51022,78.7929378 157.381542,82.8039875 C154.191055,84.8914245 150.77981,85.9430699 147.920461,85.9430699 C145.292383,85.9430699 143.074285,85.049964 141.907418,83.2531828 C139.479074,79.4957963 142.480339,73.2123469 148.603761,69.1960125 C151.799504,67.1138602 155.21075,66.0569301 158.091123,66.0569301 M158.091123,65 L158.091123,65 C154.869099,65 151.300169,66.1784771 148.03084,68.3134759 C141.318728,72.6997358 138.238621,79.5169349 141.024384,83.8292097 C142.348935,85.8743694 144.798304,87 147.920461,87 C151.137228,87 154.706159,85.8268076 157.975488,83.6918088 C161.097645,81.6466491 163.562782,78.9673313 164.908358,76.1400432 C166.338033,73.1436464 166.364313,70.3269277 164.981944,68.1760749 C163.657393,66.1256306 161.21328,65.0052847 158.091123,65.0052847 L158.091123,65 Z" id="Shape" fill="#99224C" fill-rule="nonzero"></path>
            <path d="M38.2244737,57.2530053 C39.8946552,59.2061101 41.7016494,61.0555896 43.633789,62.7895021 C44.3716642,63.4477901 45.4970566,62.4112322 44.7591814,61.7480316 C42.8270418,60.014119 41.0200476,58.1646395 39.3498661,56.2115347 C39.0366384,55.9294884 38.5377015,55.9294884 38.2244737,56.2115347 C37.9251754,56.5034445 37.9251754,56.9610954 38.2244737,57.2530053 L38.2244737,57.2530053 Z" id="Path" fill="#FD879C" fill-rule="nonzero"></path>
            <path d="M35.3302336,54.7920315 C33.3127283,53.4249643 30.5638773,53.9445507 28.7733413,55.4579093 C26.6902671,57.2083607 26.6448732,60.1240981 27.5981445,62.5202492 C29.5803435,67.4638871 34.9822139,69.5270992 40.0058021,68.8864441 C41.307093,68.7199747 42.820222,68.4980154 43.9096749,67.7009799 C44.4619717,67.3252659 44.8403132,66.7434989 44.9597988,66.0862286 C45.0792843,65.4289583 44.9299076,64.751228 44.5451891,64.2051217 C43.9802876,63.4282643 42.6638654,64.2051217 43.2388544,64.97189 C44.5855392,66.8080984 40.5858349,67.3175958 39.5720385,67.4235309 C37.4487238,67.6897242 35.2930456,67.3705099 33.3379471,66.5003821 C31.6861817,65.7188777 30.3170794,64.444732 29.418943,62.853188 C28.5564595,61.2893842 27.971383,58.8831441 29.1062297,57.3042067 C30.3066454,55.6445568 32.8335708,54.9332783 34.5787128,56.1086534 C35.3907587,56.6534625 36.1473232,55.3418851 35.3403211,54.8021206 L35.3302336,54.7920315 Z" id="Path" fill="#FD879C" fill-rule="nonzero"></path>
            <path d="M43.5237428,55.5848839 L43.9807591,54.7261173 C44.0064136,54.6519361 44.0064136,54.5741056 43.9807591,54.4999243 C43.9761198,54.4234903 43.9442091,54.3493701 43.8883289,54.2852327 C43.7857556,54.1558455 43.6201681,54.061065 43.4261775,54.0207019 C43.2270106,53.9795434 43.0140133,54.0002855 42.8356507,54.0782086 L42.6764652,54.1663855 C42.5833286,54.2382838 42.5161849,54.3266695 42.4813347,54.4232487 L42.0191833,55.2781816 C41.976497,55.4290446 42.005549,55.5862976 42.1013435,55.7229 C42.3146349,55.9856581 42.7669048,56.076827 43.1283466,55.9299241 L43.2823971,55.8379134 C43.3785495,55.7686299 43.4477573,55.6811879 43.4826627,55.5848839 L43.5237428,55.5848839 Z" id="Path" fill="#FD879C" fill-rule="nonzero"></path>
            <path d="M45.1862987,57.907259 L46.6060669,57.1942832 C46.7827163,57.1070711 46.9129587,56.9701654 46.9716043,56.8100447 C47.0281457,56.6430309 46.9995368,56.4647338 46.8921396,56.314804 C46.7884155,56.1709876 46.6193226,56.0653399 46.4206494,56.0202212 C46.2130887,55.9787275 45.9937595,56.0015837 45.8061229,56.084261 L44.3969499,56.8057754 C44.2203005,56.8929875 44.0900581,57.0298932 44.0314126,57.1900139 C43.9110881,57.5256699 44.1468073,57.8771027 44.5611768,57.9798374 C44.7675342,58.021997 44.9861664,57.9974832 45.1704058,57.9115283 L45.1862987,57.907259 Z" id="Path" fill="#FD879C" fill-rule="nonzero"></path>
            <path d="M46.7772222,61.9292605 L48.2227778,62 C48.4288295,61.9997749 48.6263756,61.8979968 48.7719854,61.7170418 C48.9168264,61.5355251 48.998657,61.2908398 48.9999583,61.0353698 C49.0021249,60.7790466 48.9197617,60.5327686 48.7719854,60.3536977 C48.6231368,60.1788423 48.427636,60.078118 48.2227778,60.0707395 L46.7772222,60 C46.3479972,60 46.0000417,60.4318797 46.0000417,60.9646302 C45.9978751,61.2209534 46.0802383,61.4672314 46.2280146,61.6463023 C46.3781562,61.8186693 46.5728708,61.9189886 46.7772222,61.9292605 L46.7772222,61.9292605 Z" id="Path" fill="#FD879C" fill-rule="nonzero"></path>
            <path d="M32.7823834,59 L34.2279792,58.8633558 C34.4328431,58.8562295 34.6283493,58.7589474 34.777202,58.5900675 C34.9201503,58.4137576 35.0000827,58.1775544 35,57.9316911 C34.9998185,57.6846815 34.917816,57.4478681 34.7720207,57.2733146 C34.6274003,57.0967721 34.4292004,56.9981496 34.2227979,57.0000263 L32.7772021,57.1366705 C32.5726448,57.1454968 32.3776197,57.2425396 32.2279793,57.4099588 C32.0831343,57.5852723 32.0013014,57.8215957 32,58.0683352 C32,58.5828795 32.3479652,59 32.7772021,59 L32.7823834,59 Z" id="Path" fill="#FD879C" fill-rule="nonzero"></path>
            <path d="M36.3792023,61.824 L37.7626306,61.024 C37.8398498,60.9719176 37.8973803,60.9057244 37.9295033,60.832 C37.9797864,60.7605597 38.0039188,60.680554 37.9994821,60.6 C37.9959066,60.4414369 37.9112194,60.2898339 37.7626306,60.176 C37.6106912,60.0641796 37.4058761,60.0010047 37.1920337,60 L36.9767142,60.024 C36.8427565,60.0512783 36.7204404,60.1036094 36.6214369,60.176 L35.2380086,60.976 C35.1584378,61.0265775 35.1004457,61.0933019 35.0711359,61.168 C35.0185112,61.2387915 34.9942301,61.31929 35.0011571,61.4 C35.0011571,61.7313708 35.362664,62 35.8086055,62 L36.023925,61.976 C36.1573441,61.9477683 36.2793595,61.8955658 36.3792023,61.824 Z" id="Path" fill="#FD879C" fill-rule="nonzero"></path>
            <path d="M39.2914251,62.4516365 L39.0278794,63.2270428 C38.9707312,63.3855884 39.0021313,63.5533415 39.115728,63.6963678 C39.1662324,63.7678087 39.2456295,63.8273917 39.3441342,63.8677734 C39.4259941,63.9241579 39.5298821,63.9624837 39.6428193,63.9779627 C39.8699724,64.0217762 40.1128995,63.999696 40.316325,63.9167464 C40.5123945,63.8358778 40.6568931,63.7059994 40.7204284,63.5535297 L40.9722609,62.7781234 C41.0291813,62.6182271 40.9978275,62.4492649 40.8844123,62.3047174 C40.8323088,62.2340507 40.7532844,62.1747475 40.6560061,62.1333118 C40.5716533,62.0793397 40.4687963,62.0413943 40.357321,62.0231224 C39.8987323,61.9330055 39.420651,62.1140629 39.2797119,62.431231 L39.2914251,62.4516365 Z" id="Path" fill="#FD879C" fill-rule="nonzero"></path>
        </g>
    </g>
</svg>