<svg viewBox="0 0 250 250" xmlns="http://www.w3.org/2000/svg" xmlns:xlink="http://www.w3.org/1999/xlink"><clipPath id="a"><path d="m46.23 111.29c20.44 8.48 35.45 11.92 57.15 11.57 30-.48 52.7 6.24 79.07-1.34 8.49-2.44 17-6.56 22.74-14.09a8.72 8.72 0 0 0 1.81-3.51 8.68 8.68 0 0 0 -1.14-5.53c-3.32-6.36-9.68-9.69-15.78-12.18-41.14-16.79-86.57-11.84-129.08-1.09-6.13 1.55-12.66 3.49-16.78 8.9a14.26 14.26 0 0 0 -3 9.44c.24 3.44 2.22 6.81 5.1 7.83"/></clipPath><clipPath id="b"><path d="m146.74 75.27c-2.25 1.93-5.23 2.72-8.07 3.61a81.66 81.66 0 0 0 -17.25 7.74 15.49 15.49 0 0 0 -3.81 2.9 16.08 16.08 0 0 0 -2.79 5.33 117.07 117.07 0 0 0 -3.66 12.15c-.75 3.08-1.36 6.36-.36 9.37 1.15 3.5 4.28 6 7.51 7.75 6.29 3.48 13.44 5.12 20.59 5.83s14.36.52 21.54.57c8.3 0 16.79.37 24.7-2.13a7.71 7.71 0 0 0 3.53-1.94 8.15 8.15 0 0 0 1.53-3.09c3.46-10.86 4.24-23.43-1.87-33.06a15.41 15.41 0 0 0 -2.84-3.44c-2.06-1.79-4.71-2.73-7.29-3.63l-15-5.28c-2.93-1-6.17-2.33-7.42-5.16-.52-1.18-.63-2.49-1.07-3.7-1.13-3.13-2.89-2.59-3.95 0a15.79 15.79 0 0 1 -4.02 6.18z"/></clipPath><clipPath id="c"><path d="m101.49 77.44c-2.25 1.94-5.23 2.73-8.06 3.62a81.43 81.43 0 0 0 -17.25 7.74 15.74 15.74 0 0 0 -3.82 2.9 16.3 16.3 0 0 0 -2.78 5.3 118 118 0 0 0 -3.66 12.16c-.75 3.08-1.36 6.36-.37 9.37 1.16 3.5 4.29 6 7.51 7.75 6.29 3.48 13.45 5.12 20.6 5.83s14.35.52 21.54.56c8.3.05 16.79.38 24.7-2.13a7.74 7.74 0 0 0 3.53-1.93 8.28 8.28 0 0 0 1.52-3.09c3.47-10.87 4.25-23.43-1.86-33.06a15.41 15.41 0 0 0 -2.84-3.46c-2.06-1.79-4.71-2.73-7.29-3.63l-15.05-5.28c-2.93-1-6.16-2.33-7.42-5.17-.52-1.17-.63-2.48-1.06-3.69-1.14-3.14-2.89-2.59-4 0a15.7 15.7 0 0 1 -3.94 6.21z"/></clipPath><path d="m122.29 185.53c27.85-1 56-.71 83-7.83 8.27-2.19 23.35-10.24 22.65-14s-15.85-5.38-22.7-6.36c-24.38-3.49-49.14-2.13-73.76-2.16-20.71 0-41.48-1-62.14.9-8.92.83-17.73 2.49-26.6 3.68-6.51.88-19.83 1.18-19.83 6.47s49.36 21.05 99.38 19.3z" fill="#efefef"/><path d="m33.64 165.1c1.12 2.67 43.18 18 93.06 18s88.64-17.12 89.71-19.62.66-45.84-.63-47.28-11.5-5.59-19.58-7.59c-38.13-9.41-75.84-9.75-114.86-5.24-10.66 1.23-21.88 1.38-31.95 5.08-5.37 2-14.18 4.65-15.3 6.32s-.89 15.23-.93 24.23c-.01 1.64-.64 23.43.48 26.1z" fill="#ec2044"/><path d="m205.86 98.39c-3.32-6.36-9.68-9.69-15.78-12.18-41.14-16.79-86.57-11.84-129.08-1.09-6.13 1.55-12.66 3.49-16.78 8.9a14.26 14.26 0 0 0 -3 9.44c.24 3.44 2.22 6.81 5.1 7.83 20.44 8.48 35.45 11.92 57.15 11.57 30-.48 52.7 6.24 79.07-1.34 8.49-2.44 17-6.56 22.74-14.09a8.72 8.72 0 0 0 1.81-3.51 6.54 6.54 0 0 0 .09-.89 9.39 9.39 0 0 0 -1.32-4.64z" fill="#ea5757"/><g clip-path="url(#a)"><path d="m110.86 104.9c26.24-1.28 52.8.28 78.15 7.14 5.09 1.38 10.24 3 14.44 6.22a7.23 7.23 0 0 1 2.41 2.72 7.59 7.59 0 0 1 .39 3.64 26 26 0 0 1 -3.12 11c-4.91 8.62-15.21 12.53-24.94 14.45-20.26 4-41.14 2.15-61.78 2.08-19.85-.07-40.59 1.36-58.62-6.93-6.36-2.93-9.87-7-9.34-14.17.31-4.15 1.18-8.39 4-11.6 7-7.92 22.28-10.11 31.92-11.82a210.13 210.13 0 0 1 26.49-2.73z" fill="#0c4f60"/></g><path d="m146.74 75.27c-2.25 1.93-5.23 2.72-8.07 3.61a81.66 81.66 0 0 0 -17.25 7.74 15.49 15.49 0 0 0 -3.81 2.9 16.08 16.08 0 0 0 -2.79 5.33 117.07 117.07 0 0 0 -3.66 12.15c-.75 3.08-1.36 6.36-.36 9.37 1.15 3.5 4.28 6 7.51 7.75 6.29 3.48 13.44 5.12 20.59 5.83s14.36.52 21.54.57c8.3 0 16.79.37 24.7-2.13a7.71 7.71 0 0 0 3.53-1.94 8.15 8.15 0 0 0 1.53-3.09c3.46-10.86 4.24-23.43-1.87-33.06a15.41 15.41 0 0 0 -2.84-3.44c-2.06-1.79-4.71-2.73-7.29-3.63l-15-5.28c-2.93-1-6.17-2.33-7.42-5.16-.52-1.18-.63-2.49-1.07-3.7-1.13-3.13-2.89-2.59-3.95 0a15.79 15.79 0 0 1 -4.02 6.18z" fill="#ffcf8f"/><path d="m150.65 91.67a9.21 9.21 0 0 0 .88-2.57 8.12 8.12 0 0 0 -.07-2.09 38.52 38.52 0 0 0 -.7-3.86c-3 4.12-4.09 9.35-4.47 14.44 0 .66-.22 2.8.78 3s1-1.76 1.13-2.38a31.47 31.47 0 0 1 2.45-6.54z" fill="#dba17b"/><path d="m133.42 88a15.5 15.5 0 0 0 -5.42 7.5c.93.68 2.23 0 3.13-.71a27.8 27.8 0 0 0 2.62-2.35 23.39 23.39 0 0 1 2.5-2.38c.91-.67 7.26-3.84 5.59-5.75-1.02-1.12-7.36 2.88-8.42 3.69z" fill="#dba17b"/><path d="m163.74 95.67c.62 1.14 1.59 2.45 2.88 2.25a.8.8 0 0 0 .71-.58 3.41 3.41 0 0 0 -.26-2.59c-.38-.81-.93-1.53-1.33-2.32-.67-1.35-1-2.93-2-4.05-.82-.92-2-1.41-2.89-2.31-.7-.74-1.55-2.72-2.71-2.37.95 4.06 3.61 8.3 5.6 11.97z" fill="#dba17b"/><path d="m174.7 90.23c1.46 1.41 3.11 3 5.13 2.92.24-.74-.41-1.44-1-1.94l-4.15-3.53c-.47-.4-.93-.79-1.43-1.14a7.93 7.93 0 0 0 -3.44-1.46c-.29 1.65 3.78 4.08 4.89 5.15z" fill="#dba17b"/><g clip-path="url(#b)"><path d="m108 122.34c9.74-1.35 19.51-2.69 29.34-3.08 4.28-.16 8.61-.15 12.77-1.15 2.52-.6 4.94-1.56 7.48-2.09a43.32 43.32 0 0 1 5.69-.68c4.45-.34 8.92-.68 13.38-.61 3.07 0 6.17.28 9.16-.37 2.09-.45 4.08-1.32 6.19-1.63 3.52-.5 7.06.61 10.45 1.71.79.26 1.69.63 1.91 1.43a2.31 2.31 0 0 1 -.13 1.32c-1.5 4.57-5.51 8-6.84 12.63a16.36 16.36 0 0 1 -1 3.16 8.28 8.28 0 0 1 -2.49 2.58c-7 5.15-15.83 7-24.45 7.82a131.79 131.79 0 0 1 -26.42-.07c-14.82-1.53-30.2-6.08-40.16-17.16" fill="#dba17b"/></g><path d="m101.49 77.44c-2.25 1.94-5.23 2.73-8.06 3.62a81.43 81.43 0 0 0 -17.25 7.74 15.74 15.74 0 0 0 -3.82 2.9 16.3 16.3 0 0 0 -2.78 5.3 118 118 0 0 0 -3.66 12.16c-.75 3.08-1.36 6.36-.37 9.37 1.16 3.5 4.29 6 7.51 7.75 6.29 3.48 13.45 5.12 20.6 5.83s14.35.52 21.54.56c8.3.05 16.79.38 24.7-2.13a7.74 7.74 0 0 0 3.53-1.93 8.28 8.28 0 0 0 1.52-3.09c3.47-10.87 4.25-23.43-1.86-33.06a15.41 15.41 0 0 0 -2.84-3.46c-2.06-1.79-4.71-2.73-7.29-3.63l-15.05-5.28c-2.93-1-6.16-2.33-7.42-5.17-.52-1.17-.63-2.48-1.06-3.69-1.14-3.14-2.89-2.59-4 0a15.7 15.7 0 0 1 -3.94 6.21z" fill="#fff5ca"/><path d="m105.4 93.85a6.76 6.76 0 0 0 .82-4.66 38.52 38.52 0 0 0 -.7-3.86c-3 4.12-4.09 9.35-4.48 14.44-.05.66-.22 2.8.79 3s1-1.76 1.13-2.39a31.57 31.57 0 0 1 2.44-6.53z" fill="#e2b283"/><path d="m88.18 90.34a15.55 15.55 0 0 0 -5.45 7.52c.93.68 2.23 0 3.13-.7a29.27 29.27 0 0 0 2.62-2.35 22.44 22.44 0 0 1 2.52-2.38c.91-.68 7.26-3.85 5.59-5.75-1.01-1.13-7.35 2.87-8.41 3.66z" fill="#e2b283"/><path d="m118.49 97.85c.63 1.14 1.6 2.44 2.89 2.25a.91.91 0 0 0 .45-.19 1 1 0 0 0 .26-.39 3.37 3.37 0 0 0 -.27-2.59c-.38-.81-.92-1.53-1.32-2.33-.68-1.34-1-2.92-2-4-.83-.92-2-1.41-2.89-2.31-.7-.74-1.56-2.72-2.72-2.37.96 4.02 3.62 8.29 5.6 11.93z" fill="#e2b283"/><path d="m129.46 92.41c1.45 1.41 3.1 3 5.13 2.92.24-.74-.41-1.44-1-1.94l-4.16-3.53a15.88 15.88 0 0 0 -1.43-1.14 7.83 7.83 0 0 0 -3.44-1.46c-.29 1.65 3.79 4.08 4.9 5.15z" fill="#e2b283"/><g clip-path="url(#c)"><path d="m54.07 105.66c6 4.46 13.54 6.07 20.43 8.93 6.43 2.68 12.47 6.55 19.33 7.78 5.51 1 11.2.23 16.74 1 3 .46 6 1.38 9 1.79 8.88 1.18 17.74-2.18 26.69-2.22 1.3 0 2.81.17 3.49 1.27a3.3 3.3 0 0 1 .39 1.83c-.1 5.27-4.77 9.21-9.24 12-14.62 9.19-31.48 14.46-48.57 17-7.58 1.11-15.45 1.67-22.78-.56a22.84 22.84 0 0 1 -6.16-2.84 26.77 26.77 0 0 1 -6.39-6.42c-8.39-11.41-11.75-27-6.38-40.16" fill="#e2b283"/></g><path d="m207.1 103.07s0 0 0 0a6.54 6.54 0 0 1 -.09.89 8.72 8.72 0 0 1 -1.81 3.51c-5.75 7.53-14.25 11.65-22.74 14.09-26.37 7.58-49.09.86-79.07 1.34-21.7.35-36.71-3.09-57.15-11.57-2.88-1-4.86-4.39-5.1-7.83.25 6.55.21 10.69.46 17.24 13.95 10.49 53.34 18.22 75.29 18.54 15 .22 30 1.19 44.9-.1s29.95-4.92 43.26-13.39a4.63 4.63 0 0 0 1.67-1.54 6.74 6.74 0 0 0 .62-2.83c.3-4.36-.55-14.02-.24-18.35z" fill="#9e1c4c"/><g fill="#ff6161"><path d="m150.47 149a50.26 50.26 0 0 0 -9.33.91c.44 1.38 2.28 1.55 3.72 1.46 18.81-1.1 38.06-2.31 55.36-9.78 3.2-1.38 6.66-3 10-2.1.54.15 1.15.49 1.12 1s-.48.76-.9 1c-11.61 6-24.8 8.05-37.75 9.81-2.62.35-5.41.78-7.39 2.53 7.38-.37 14.7-1.48 22-2.58 8.63-1.31 17.64-2.76 24.7-7.92 1.52-1.1 3.06-3 2.15-4.67s-3.52-1.92-3.57-3.69c0-.13-11.72 4.25-12.43 4.51q-7.6 2.76-15.46 4.76a159.63 159.63 0 0 1 -32.22 4.76z"/><path d="m121.61 159.14c-8.77-.64-17.55-2.15-26.3-1.31 6.69 2.37 13.91 2.62 21 2.85l13.77.45c12.35.4 24.87.78 36.9-2.07 1.56-.36 2.1-1.19.68-1.84-1.26-.59-4.93.49-6.35.62-4.43.43-8.87.83-13.32 1.14a187.31 187.31 0 0 1 -26.38.16z"/><path d="m39.19 131.66c4.83 5.29 14.14 4 19.13 9.18q-6.55-1.69-13.22-2.77c-.48.75.56 1.52 1.4 1.79a115.46 115.46 0 0 0 19.86 4.55 24.62 24.62 0 0 0 -3.86-2.87l20.33 4c1.36.26 2.89.49 4-.32.73-.53-4.16-1.84-4.47-1.87-1.9-.22-3.79-.33-5.69-.65a83.79 83.79 0 0 1 -12.52-3.35c-8.23-2.82-16.32-6.28-24.96-7.69z"/><path d="m40.13 154.4c-.27-1 1.21-1.31 2.2-1.15l22.4 3.62c-.87-1.64-2.83-2.31-4.61-2.81a150.29 150.29 0 0 0 -18.78-4c-1.23-.18-2.64-.3-3.59.51-1.24 1-1 3.15.12 4.34a9.08 9.08 0 0 0 4.27 2.18l21.41 6.44c-.82.91-2.26.78-3.47.57l-17.95-3.07c-.3.71.67 1.27 1.43 1.44q18.15 4 36.4 7.55c.24-.54-.46-1-1-1.2l-12.49-4.27c5.83 0 11.45 1.7 17.08 3 2.49.58 14 3.7 14.8-.11-8.4-2.15-17.21-3.44-25.7-5.32q-8.22-1.82-16.42-3.77c-2.73-.65-5.46-1.32-8.18-2-.93-.18-7.73-1.27-7.92-1.95z"/><path d="m147.59 170.89c-4.35 0-8.84-.11-12.87 1.52 2.35-.95 8.65.61 11.32.61 3.79 0 7.57-.15 11.35-.43 6.94-.5 16.21-.23 22.76-2.61 2.92-1.06 3.56-2.1.4-2.72-2.79-.54-7 1.24-9.8 1.69a151 151 0 0 1 -23.16 1.94z"/><path d="m193.27 158.9-11.58 2.1c-.88.16-1.94.48-2.13 1.36 4.51.31 21 .78 23.12-4-2.29-1.26-6.81.06-9.41.54z"/></g></svg>