<svg xmlns="http://www.w3.org/2000/svg" xmlns:xlink="http://www.w3.org/1999/xlink" viewBox="0 0 410 410"><defs><style>.cls-1,.cls-14{fill:none;}.cls-2{fill:#efefef;}.cls-3{fill:#89cfbb;}.cls-4{fill:#003d32;}.cls-5{fill:#639384;}.cls-6{fill:#ce7f00;}.cls-7{fill:#ffa300;}.cls-8{fill:#fff5ca;}.cls-9{fill:#ec2044;}.cls-10{fill:#b21b43;}.cls-11{fill:#71bc40;}.cls-12{fill:#e2b283;}.cls-13{clip-path:url(#clip-path);}.cls-14{stroke:#b21b43;stroke-linecap:round;stroke-miterlimit:10;stroke-width:3px;}.cls-15{fill:#975553;}.cls-16{fill:#824646;}.cls-17{fill:#fff0b0;}.cls-18{fill:#ffcf8f;}.cls-19{fill:#dba17b;}.cls-20{fill:#683c3a;}</style><clipPath id="clip-path"><path class="cls-1" d="M256.48,161.85s6.46,36.9,8,39.8,11.91,12.76,30.46,12.76,26.56-5.61,27.75-8,13.11-43.74,13.11-43.74-1.54,3.83-4.69,4.25a3.79,3.79,0,0,1-4.17-2s-.93,4.34-4.85,4.68-5.36-2-5.36-2-1.7,3.83-5.62,4-6.55-3.15-6.55-3.15a6.25,6.25,0,0,1-5.15,3.65,5.26,5.26,0,0,1-5.06-2.71s-2,3.55-5.79,3.06a7.52,7.52,0,0,1-5.45-3.4s-2.38,3.66-6.21,3.06a4.49,4.49,0,0,1-3.91-4.25,6.21,6.21,0,0,1-6.13,1.44,4.05,4.05,0,0,1-3-4.74S259.09,168.09,256.48,161.85Z"/></clipPath></defs><title>bakery icons</title><g id="static"><path class="cls-2" d="M17.77,230.39S2.69,236.21,2.69,248s8.85,20.75,46,29.22S131,290.84,180,301.56,331.9,333.73,369.25,321s30.31-40.34,35.37-70.47,7.16-53.66-33-48.11S17.77,230.39,17.77,230.39Z"/><path class="cls-3" d="M394.18,162.5a20.52,20.52,0,0,0-3.42.08h0c-9.55,1-18.31,8.29-26.53,12.85-9.19,5.11-26.21,0-82-10.55s-180.77-38.13-188.6-40.51S89.5,102.58,76.9,99.86a11.75,11.75,0,0,0-3.38-.25c-11.31.75-22.27,17.66-41.28,47.62-8.42,13.28-25.12,36.71-26.83,47.61s4.43,49.36,19.41,55.83,49,19.06,116.42,31,192,35.41,217.88,27.92,34.38-47,41.53-90.55S405.07,163.18,394.18,162.5ZM79.29,141.56c-1,4.42-20.51,35.24-30.64,49.36-7.34,10.23-12,13.26-14.44,11.19a3.76,3.76,0,0,1-.88-1.15c-2-3.91-6.17-13.48-2.21-21.1,2.38-4.6,4.75-7.39,13.78-20.6,7.92-11.57,15.87-23.76,20.9-29.81,2-2.45,3.58-3.89,4.46-3.89C73.33,125.56,80.31,137.13,79.29,141.56ZM383.5,191.32c-1.67,11.14-7.25,34.85-10.6,50.37-4.47,20.68-5.67,19.33-12.25,21.32a9.41,9.41,0,0,1-1.74.37c-6.06.74-4.62-6.88-2.86-14.16,1.92-7.92,12.13-51.45,13.79-55.28s11.62-9.44,13.79-8.81C384.17,185.29,384.05,187.61,383.5,191.32Z"/><path class="cls-4" d="M400.65,219c-7.15,43.57-15.66,83.06-41.53,90.55s-150.47-16-217.88-27.92-101.44-24.51-116.42-31S3.71,205.73,5.41,194.84s18.41-34.33,26.83-47.61c19-30,30-46.87,41.28-47.62C72.22,99.9,62.19,103,45.07,132c-18.38,31.15-34.21,48.76-33.95,66.38S21.33,237,29,242.33s69.7,24.25,163.4,39.31,144,25.28,165.19,16.86,29.36-45.2,36-78.13,7.13-55.07-2.82-57.79a20.52,20.52,0,0,1,3.42-.08C405.07,163.18,407.8,175.43,400.65,219Z"/><path class="cls-4" d="M79.29,141.56c-1,4.42-20.51,35.24-30.64,49.36-7.34,10.23-12,13.26-14.44,11.19,0,0,34.66-48.84,37.59-55.1,3.57-7.66-4.43-15-6-17.56,2-2.45,3.58-3.89,4.46-3.89C73.33,125.56,80.31,137.13,79.29,141.56Z"/><path class="cls-4" d="M383.5,191.32c-2.07,1.2-5.93,3.42-7.92,4.41-2.81,1.4-2.55.64-7.66,21.83s-9,45.82-9,45.82c-6.06.74-4.62-6.88-2.86-14.16,1.92-7.92,12.13-51.45,13.79-55.28s11.62-9.44,13.79-8.81C384.17,185.29,384.05,187.61,383.5,191.32Z"/><path class="cls-5" d="M297.24,218.89s15.92,2,27.83-2,10.9-6.22,6.47-8.94-15.61-3.79-15.61-3.79Z"/><path class="cls-5" d="M102.43,202.39c-.68,5.39-2.21,8.6.68,14.48s4.94,11.47,9.2,17.53,19.4,8.95,28.93,3.84,9.7-11.31,10.56-18.84,7.31-19.26,18.21-21.74,20.47-6.61,26.32-11.61,15.25-10.1,25.53-8.74,40.39,15.93,46.52,13.75S277,172,277,172l-97-14.39-57.61,35.17Z"/><path class="cls-5" d="M180.73,218.3s-7.83,6.36-3.4,15.7,10.08,15.31,16.7,15.31,14.79,3.74,22.79,2.72,9.87-2.35,15.06,4.44,24.26,19.39,39.74,20.41,36.09.22,45.79-5.25,2.39-15.91,0-18.69S239,232.8,239,232.8Z"/><path class="cls-6" d="M256.65,172.2c-6.14,1.23-12.66.26-18.81-.9-1-.18-2-.38-3-.57-2.17-.41-4.27-.81-6.28-1.09a81.33,81.33,0,0,0-12.61-.92c-1.14,0-2.32.07-3.5.17a38.77,38.77,0,0,0-10.77,2.32,31.57,31.57,0,0,0-3.15,1.41,26.28,26.28,0,0,0-6.39,4.68,41.87,41.87,0,0,1-14.06,8.75c-1.05.43-2.11.82-3.15,1.18-7.61,2.68-14.69,3.9-17.35,5.22l-.29.16a16.36,16.36,0,0,0-2,1.26,31.63,31.63,0,0,0-5.73,5.57c-.24.29-.48.58-.7.87a59.39,59.39,0,0,0-3.51,5,11.17,11.17,0,0,0-1.16,4.24c-.19,1.5-.32,3.22-.5,5-.7,7.35-2,16.15-10.77,17.36-13.44,1.87-21.44-9.19-24.17-17.36a46.49,46.49,0,0,1-6.4-8.25,20.41,20.41,0,0,1-1.09-2.13c-2.21-5.11-.68-13.62-.68-13.62a27.69,27.69,0,0,1-6-11.85,17.42,17.42,0,0,1-.28-1.94c-.68-7.66,7.83-15.32,7.83-15.32a18.74,18.74,0,0,1-2.53-9.75,26.11,26.11,0,0,1,.66-5.91c2.21-9.7,22.3-23.48,22.3-23.48a18.48,18.48,0,0,1,4.65-9.42c5.73-6.52,17.56-12.94,40.46-15.44,29.3-3.19,33.26,5.86,33.79,8.61a4.31,4.31,0,0,1,.08.73v0c1.66.18,3.35.42,5,.73a113,113,0,0,1,32.24,11.52,9.73,9.73,0,0,1,3.27,3c3,4.48,2.18,10.57,2.18,10.57s3.92,1.19,9.87,3.4c3.35,1.25,4.92,5.39,5.75,9,.64,2.82.84,5.3,1.06,5.82.51,1.19,2.56.68,7,6.64S266,170.33,256.65,172.2Z"/><path class="cls-7" d="M143.67,214.58c-.7,7.35-2,16.15-10.77,17.36-13.44,1.87-21.44-9.19-24.17-17.36C108.73,214.58,121.08,207.43,143.67,214.58Z"/><path class="cls-7" d="M148.84,200.31a59.39,59.39,0,0,0-3.51,5,11.17,11.17,0,0,0-1.16,4.24,73.45,73.45,0,0,0-21.82-5.35c-9.33-.65-15.94.74-20,2.13a20.41,20.41,0,0,1-1.09-2.13c-2.21-5.11-.68-13.62-.68-13.62s7-8.85,26.56-2.55C139.1,191.89,145.6,197,148.84,200.31Z"/><path class="cls-7" d="M155.27,193.87a31.63,31.63,0,0,0-5.73,5.57c-3.14-5.32-10.47-14.12-26.17-18.9-12.33-3.75-22.22-3.19-28.83-1.81a17.42,17.42,0,0,1-.28-1.94c-.68-7.66,7.83-15.32,7.83-15.32s13.62-4.76,33.2,11.24C146.1,181.55,152.08,189,155.27,193.87Z"/><path class="cls-7" d="M174.93,187.23c-7.61,2.68-14.69,3.9-17.35,5.22l-.29.16c-3.42-6.8-13.49-24.48-29-32.5-12.73-6.58-23.11-8.12-28.75-8.39a26.11,26.11,0,0,1,.66-5.91c2.21-9.7,22.3-23.48,22.3-23.48a47,47,0,0,1,38.64,25.53C171.66,168.05,174.3,182.34,174.93,187.23Z"/><path class="cls-7" d="M204.05,150.07c-2.39,10.72-4.19,17.84-5.52,22.55a26.28,26.28,0,0,0-6.39,4.68,41.87,41.87,0,0,1-14.06,8.75c-.65-6.55-4.66-39.92-19.82-55.38a67.35,67.35,0,0,0-31.09-17.76c5.73-6.52,17.56-12.94,40.46-15.44,29.3-3.19,33.26,5.86,33.79,8.61l.08.73v0S210.52,121,204.05,150.07Z"/><path class="cls-7" d="M242,122.14s-12.46,2.23-21.31,22.65a139.36,139.36,0,0,0-8.28,24.1,38.77,38.77,0,0,0-10.77,2.32c3.42-9.25,9.13-27.93,7.31-45.65-.87-8.44-1.72-14.14-2.46-18a113,113,0,0,1,32.24,11.52A9.73,9.73,0,0,1,242,122.14Z"/><path class="cls-7" d="M259.84,145.1s-20.46,9-25,25.63c-2.17-.41-4.27-.81-6.28-1.09a81.33,81.33,0,0,0-12.61-.92c2.74-7.4,11.26-26.76,28.27-36,0,0,3.92,1.19,9.87,3.4C257.44,137.36,259,141.5,259.84,145.1Z"/><path class="cls-7" d="M256.65,172.2c-6.14,1.23-12.66.26-18.81-.9.15-.42,4.65-13.18,23.06-20.38.51,1.19,2.56.68,7,6.64S266,170.33,256.65,172.2Z"/><ellipse class="cls-8" cx="168.48" cy="114.67" rx="3.06" ry="1.36"/><ellipse class="cls-8" cx="131.62" cy="144.2" rx="3.06" ry="1.36"/><ellipse class="cls-8" cx="185.81" cy="119.2" rx="3.06" ry="1.36" transform="translate(-29.72 71.43) rotate(-20.18)"/><ellipse class="cls-8" cx="108.45" cy="169.03" rx="3.06" ry="1.36" transform="translate(-51.66 47.8) rotate(-20.18)"/><ellipse class="cls-8" cx="126.51" cy="132.57" rx="3.06" ry="1.36" transform="translate(-37.97 51.79) rotate(-20.18)"/><ellipse class="cls-8" cx="184.41" cy="107.57" rx="1.36" ry="3.06" transform="translate(3.37 220.72) rotate(-62.26)"/><ellipse class="cls-8" cx="113.48" cy="142.33" rx="1.36" ry="3.06" transform="translate(-65.32 176.52) rotate(-62.26)"/><ellipse class="cls-8" cx="216.6" cy="117.9" rx="1.36" ry="3.06" transform="translate(11.43 254.72) rotate(-62.26)"/><ellipse class="cls-8" cx="152.65" cy="108.93" rx="3.06" ry="1.36" transform="translate(-31.06 71.28) rotate(-23.93)"/><path class="cls-9" d="M268.09,129.47l-6.31-9.21L260,117.61l-2.6-3.79-1.82-2.66L253,107.44l-1.83-2.68-1.84-2.69,5.36-5.79,5.69,9,1.77,2.8,2.27,3.59,1.75,2.77,2.32,3.65,1.75,2.77.92,1.46S273.71,128.58,268.09,129.47Z"/><path class="cls-10" d="M253,100.52c2.14-1.94,2.47-3.42,1.66-4.23-.64-.64-3.45.21-4.85,2.11s-.81,3.23-.51,3.67S251.14,102.22,253,100.52Z"/><polygon class="cls-11" points="262.15 108.07 253 107.44 251.17 104.76 260.38 105.27 262.15 108.07"/><polygon class="cls-11" points="266.17 114.43 257.37 113.82 255.55 111.16 264.42 111.66 266.17 114.43"/><polygon class="cls-11" points="270.24 120.85 261.78 120.26 259.97 117.61 268.49 118.08 270.24 120.85"/><path class="cls-9" d="M273.57,121.28l-3.38-10.64-1-3.06-1.39-4.39-1-3.07-1.37-4.3-1-3.09-1-3.11,6.81-4,2.84,10.25.89,3.19,1.13,4.1.87,3.16,1.17,4.16.87,3.16.46,1.66S279.21,122.05,273.57,121.28Z"/><path class="cls-10" d="M267.53,89.2c2.61-1.23,3.36-2.55,2.82-3.57-.43-.79-3.36-.79-5.26.62s-1.71,2.86-1.55,3.37S265.24,90.29,267.53,89.2Z"/><polygon class="cls-11" points="274.08 99.08 265.5 95.82 264.53 92.73 273.19 95.88 274.08 99.08"/><polygon class="cls-11" points="276.08 106.33 267.84 103.19 266.87 100.12 275.21 103.17 276.08 106.33"/><polygon class="cls-11" points="278.12 113.65 270.19 110.64 269.23 107.58 277.25 110.49 278.12 113.65"/><path class="cls-8" d="M336,161.41a7,7,0,0,1-.19,1.26L331,174.5l-51.15,9L259.2,172.77l-2.72-10.92a7.9,7.9,0,0,1-1.2-2.74,17.76,17.76,0,0,1-.59-4.49,9.55,9.55,0,0,1,3.58-7.31l.16-.13.22-.17.32-.24.1-.07s0,0,.05,0a9.68,9.68,0,0,1-.5-1.63,13.27,13.27,0,0,1,2.54-11.31c4.11-5.25,7.75-6.83,8.85-7.21l.22-.07.12,0a11,11,0,0,1-.75-2.33,9.36,9.36,0,0,1,3.39-9.84,35.17,35.17,0,0,1,8.17-4.38h0l.11,0,.23-.1c2.94-1.24,5.53-2.35,6.78-4,0,0,0,0,0,0a4,4,0,0,0,.72-1.71c.34-2.21-.45-7.15,4.85-10.85a16.18,16.18,0,0,0,9.38,9.89,41.94,41.94,0,0,1,9.13,4.86,16.54,16.54,0,0,1,6.82,9.69,20.4,20.4,0,0,1,.76,6.07s7.06,3.49,8,11.15a20.57,20.57,0,0,1-.07,5.52v.07a.06.06,0,0,0,0,0s0,.07,0,.1a19.39,19.39,0,0,1-2.61,7.28h0s6.22,1,8.94,6A13.79,13.79,0,0,1,336,161.41Z"/><path class="cls-12" d="M336,161.41a7,7,0,0,1-.19,1.26L331,174.5l-51.15,9L259.2,172.77l-2.72-10.92a7.9,7.9,0,0,1-1.2-2.74c2.66,6,8.6,2.9,8.6,2.9a4.07,4.07,0,0,0,3,4.74A6.2,6.2,0,0,0,273,165.3a4.5,4.5,0,0,0,3.91,4.26c3.83.6,6.22-3.06,6.22-3.06a7.49,7.49,0,0,0,5.44,3.4c3.83.49,5.79-3.06,5.79-3.06a5.26,5.26,0,0,0,5.06,2.71,6.25,6.25,0,0,0,5.15-3.65s2.64,3.32,6.56,3.15,5.61-4,5.61-4,1.45,2.38,5.36,2,4.85-4.68,4.85-4.68a3.8,3.8,0,0,0,4.18,2C333,164.2,334.8,162.65,336,161.41Z"/><path class="cls-9" d="M256.48,161.85s6.46,36.9,8,39.8,11.91,12.76,30.46,12.76,26.56-5.61,27.75-8,13.11-43.74,13.11-43.74-1.54,3.83-4.69,4.25a3.79,3.79,0,0,1-4.17-2s-.93,4.34-4.85,4.68-5.36-2-5.36-2-1.7,3.83-5.62,4-6.55-3.15-6.55-3.15a6.25,6.25,0,0,1-5.15,3.65,5.26,5.26,0,0,1-5.06-2.71s-2,3.55-5.79,3.06a7.52,7.52,0,0,1-5.45-3.4s-2.38,3.66-6.21,3.06a4.49,4.49,0,0,1-3.91-4.25,6.21,6.21,0,0,1-6.13,1.44,4.05,4.05,0,0,1-3-4.74S259.09,168.09,256.48,161.85Z"/><path class="cls-12" d="M262.52,136.29a12.61,12.61,0,0,1,3.58-4.44,16.93,16.93,0,0,1,5.06-2.8,31.27,31.27,0,0,1,5.53-1.2,17.07,17.07,0,0,1,5.66,0c-1.83.44-3.57,1-5.33,1.52s-3.57,1-5.21,1.56a29.48,29.48,0,0,0-4.83,2.19A31.28,31.28,0,0,0,262.52,136.29Z"/><path class="cls-12" d="M312.82,111.52a12.26,12.26,0,0,1,3.1,5.06,9.34,9.34,0,0,1,.48,3.09,7.9,7.9,0,0,1-.73,3.18,12.32,12.32,0,0,1-1.84,2.52,17.07,17.07,0,0,1-2.2,2,13.57,13.57,0,0,1-5.28,2.65,33.7,33.7,0,0,0,4.23-3.81,27.49,27.49,0,0,0,1.8-2.11,15.41,15.41,0,0,0,1.49-2.18,8.48,8.48,0,0,0,.54-5A25.77,25.77,0,0,0,312.82,111.52Z"/><path class="cls-12" d="M306.35,108.8a7.69,7.69,0,0,1,3.26,1.76,8.06,8.06,0,0,1,2.22,3.14,6.27,6.27,0,0,1-1.82,7.1,17.58,17.58,0,0,0,.48-3.39,7.83,7.83,0,0,0-.53-3A22.83,22.83,0,0,0,306.35,108.8Z"/><path class="cls-12" d="M258.43,147.18c.31-.25.54-.41.64-.48C258.85,146.88,258.63,147,258.43,147.18Z"/><path class="cls-12" d="M280.22,141.3s-13.6-.46-21.1,5.37a9.68,9.68,0,0,1-.5-1.63C260.45,143,266,139,280.22,141.3Z"/><path class="cls-12" d="M285.26,122.77a50,50,0,0,0-14.91,3.64,11,11,0,0,1-.75-2.33A31.14,31.14,0,0,1,285.26,122.77Z"/><path class="cls-12" d="M320,123.6a17.11,17.11,0,0,1-8.68,8.77c-6.64,3.06-10.3,4.85-.86-.85s8.78-14,8.78-14A20.4,20.4,0,0,1,320,123.6Z"/><path class="cls-12" d="M327.88,140.38a19.42,19.42,0,0,1-2.63,7.38h0s-2.21,3.07-8.34,4.85c-6,1.74-17.76,6.07-18.36,6.29.31-.18,5.53-3.19,16.75-7.56C326,147.18,327.68,141.24,327.88,140.38Z"/><path class="cls-12" d="M258,158.92a14.62,14.62,0,0,1,4.65-6.95,15.52,15.52,0,0,1,7.84-3.5c2.76-.36,5.49-.58,8.25-.68A57.28,57.28,0,0,1,287,148c-2.72.52-5.43.94-8.14,1.32l-8.11,1.1a15.05,15.05,0,0,0-1.89.38l-.94.25-.9.34a13.34,13.34,0,0,0-1.78.78c-.55.33-1.14.63-1.67,1A20.56,20.56,0,0,0,258,158.92Z"/><path class="cls-12" d="M265.24,157.65a7.42,7.42,0,0,1,3.41-3.8,10.7,10.7,0,0,1,5.06-1.36l4.84-.07c1.61,0,3.23-.06,4.9-.13a14.78,14.78,0,0,1-4.73,1.68,27.84,27.84,0,0,1-5,.52,14.3,14.3,0,0,0-4.45.77A12.31,12.31,0,0,0,265.24,157.65Z"/><path class="cls-12" d="M323.71,130.07a13.3,13.3,0,0,1-.84,9.82,13.47,13.47,0,0,1-3.28,4,14.72,14.72,0,0,1-2.17,1.42l-1.14.61-1.1.51c-3,1.31-6,2.59-9,3.79s-6,2.4-9,3.77a46.86,46.86,0,0,1,8.32-5.19c2.89-1.5,5.85-2.85,8.8-4.2l1.11-.49,1-.52a14.83,14.83,0,0,0,1.94-1.19,13.4,13.4,0,0,0,3.09-3.28A15.87,15.87,0,0,0,323.71,130.07Z"/><path class="cls-10" d="M291.71,118.37a1.89,1.89,0,0,1-1.85,1.87,1.8,1.8,0,0,1-1.75-1.87,1.75,1.75,0,0,1,1.75-1.81A1.84,1.84,0,0,1,291.71,118.37Z"/><path class="cls-10" d="M306.89,140a1.74,1.74,0,0,1-1.68,1.72,1.63,1.63,0,0,1-1.54-1.72,1.56,1.56,0,0,1,1.54-1.64A1.68,1.68,0,0,1,306.89,140Z"/><path class="cls-10" d="M301.42,119.18a1.4,1.4,0,0,1-1.46,1.36,1.31,1.31,0,0,1-1.34-1.36,1.29,1.29,0,0,1,1.34-1.34A1.39,1.39,0,0,1,301.42,119.18Z"/><path class="cls-10" d="M280.47,130.77a1.49,1.49,0,0,1-2.1,2.1,1.49,1.49,0,0,1,2.1-2.1Z"/><path class="cls-10" d="M297.25,130.07a1.67,1.67,0,0,1-1.62,1.69,1.62,1.62,0,0,1-1.56-1.69,1.57,1.57,0,0,1,1.56-1.63A1.62,1.62,0,0,1,297.25,130.07Z"/><path class="cls-10" d="M309.39,123.32a1.63,1.63,0,0,1-1.72,1.53,1.48,1.48,0,0,1-1.55-1.53,1.51,1.51,0,0,1,1.55-1.57A1.65,1.65,0,0,1,309.39,123.32Z"/><path class="cls-10" d="M289.76,138.38a2.12,2.12,0,1,1-2.13-2.27A2.18,2.18,0,0,1,289.76,138.38Z"/><path class="cls-12" d="M286,109.49h2.76l.94,2.37L287,113.71A22.53,22.53,0,0,0,286,109.49Z"/><g class="cls-13"><line class="cls-14" x1="262.88" y1="163.48" x2="272.19" y2="217.3"/><line class="cls-14" x1="272.52" y1="163.95" x2="278.05" y2="216.89"/><line class="cls-14" x1="282.9" y1="163.05" x2="285.4" y2="218.3"/><line class="cls-14" x1="294.65" y1="161.85" x2="294.65" y2="219.6"/><line class="cls-14" x1="305.21" y1="161.85" x2="302.22" y2="219.6"/><line class="cls-14" x1="317.88" y1="161.85" x2="310.59" y2="221.01"/><line class="cls-14" x1="327.2" y1="160.24" x2="316.99" y2="220.41"/></g><path class="cls-15" d="M301,107.25c-3.06,5.16-7.84,8.09-10.74,6.54l-.08,0c-2.88-1.63-2.72-7.18.37-12.4s7.93-8.14,10.81-6.51a2.61,2.61,0,0,1,.28.17C304.24,96.84,304,102.2,301,107.25Z"/><path class="cls-16" d="M301,107.25c-3.06,5.16-7.84,8.09-10.74,6.54,1.26-.25,2.93-1.09,5-3.24,3.83-4,2.19-5.16,4.65-7.23,2.22-1.88,2.68-5.56,1.76-8.31C304.24,96.84,304,102.2,301,107.25Z"/><path class="cls-17" d="M286.49,106c-.26.43-.45,4.51,2,5.45s8.18-4.43,10-8.77,2.77-8.85-.75-9.36-6.32,3.24-6.32,3.24Z"/><path class="cls-15" d="M294.81,103.15c-3,5.17-7.66,8.09-10.49,6.55l-.07,0c-2.82-1.63-2.66-7.18.35-12.41s7.75-8.13,10.57-6.5l.27.17C298,92.75,297.72,98.11,294.81,103.15Z"/><path class="cls-16" d="M294.81,103.15c-3,5.17-7.66,8.09-10.49,6.55,1.23-.25,2.87-1.09,4.85-3.24,3.75-4,2.15-5.16,4.55-7.23,2.17-1.88,2.62-5.56,1.72-8.31C298,92.75,297.72,98.11,294.81,103.15Z"/><path class="cls-8" d="M286.2,114.8s2.66-4.89,7.85-3.85,7.87-1.46,7.87-1.46l2.17,3-7.25,2.3-8.72.81-5.35,2.76Z"/><path class="cls-12" d="M286.2,114.8a7,7,0,0,1,2.69-3.76,6.89,6.89,0,0,1,2.25-1,6.81,6.81,0,0,1,2.5-.13l.61.09.51.09c.33.08.67.11,1,.16a12.5,12.5,0,0,0,2,.11,11.2,11.2,0,0,0,4.13-.84,6.44,6.44,0,0,1-3.93,2.39,9.36,9.36,0,0,1-2.36.23,9.24,9.24,0,0,1-1.18-.1l-.59-.09-.47,0a6.85,6.85,0,0,0-3.72.51A13.06,13.06,0,0,0,286.2,114.8Z"/><path class="cls-18" d="M263.47,233.78a51.09,51.09,0,0,1-5.9,3.58c-15.34,8-26.43,8.5-39.92,9.42q-2.78.19-5.71.43c-16.24,1.36-26.47-8-29.14-16.63-.39-1.24-.77-2.47-1.13-3.71a.22.22,0,0,0,0-.09v0c-2.13-7.28-3.24-14.64,3.05-25.08,7.39-12.26,25.86-19.66,40.21-21.87,17.95-2.76,41.76,1.71,50.33,16.77a24.64,24.64,0,0,1,1.24,2.46.69.69,0,0,1,0,.13,6.65,6.65,0,0,1,.28.69C281.75,212.19,275.78,225.09,263.47,233.78Z"/><path class="cls-19" d="M276.47,199.05c6.35,14.39-2.4,29.74-18.9,38.32-17.45,9.08-29.4,8.5-45.63,9.85s-26.47-8-29.14-16.63c-.39-1.25-.77-2.48-1.13-3.72.39,1.19,4.34,12.48,13.94,14.52,10.15,2.16,11.72-2,18,.1s13.28,3.22,16.92-.16,12.66-5.27,18.54-4.8,9.36-6,15.88-9.18,2.41-8.12,8-14.31C277.12,208.36,276.85,201.91,276.47,199.05Z"/><path class="cls-20" d="M236.48,196.9c.87,1.16-1.19,4.5-2.86,5.76s-4.43,1.54-5.31.38-.44-4.54,1.23-5.8S235.6,195.73,236.48,196.9Z"/><path class="cls-20" d="M252.64,205.9c.08-1.46,3.64-2.7,5.52-2.6s4,1.64,3.93,3.1-2.41,3.77-4.29,3.67S252.56,207.35,252.64,205.9Z"/><path class="cls-20" d="M212.79,196.24c0,1.32-3.47,2.67-5.36,2.69s-4.12-1.26-4.13-2.58,2.17-3.66,4.06-3.69S212.77,194.93,212.79,196.24Z"/><path class="cls-20" d="M220.82,228.48c0,1.32-3.47,2.67-5.36,2.69s-4.12-1.27-4.13-2.58,2.17-3.67,4.06-3.69S220.8,227.16,220.82,228.48Z"/><path class="cls-20" d="M191,214.5c-.12-1.31,3.23-2.95,5.11-3.12s4.21.91,4.33,2.22-1.86,3.83-3.74,4S191.1,215.81,191,214.5Z"/><path class="cls-20" d="M240.25,187.23c-.13-1.31,3.23-2.94,5.11-3.12s4.2.91,4.33,2.22-1.86,3.84-3.74,4S240.37,188.54,240.25,187.23Z"/><path class="cls-20" d="M217.92,210.23c.49,1.22-1.68,3.46-3.12,4s-3.59.08-4.08-1.14.41-3.83,1.85-4.41S217.43,209,217.92,210.23Z"/><path class="cls-20" d="M246,216.66c.5,1.22-1.67,3.45-3.11,4s-3.6.09-4.09-1.13.41-3.83,1.85-4.41S245.49,215.43,246,216.66Z"/><path class="cls-19" d="M196.46,201.21c.58.78,0,1.66-.77,2.24s-1.48.67-2.06-.11a1.46,1.46,0,0,1,.31-2.21A1.8,1.8,0,0,1,196.46,201.21Z"/><path class="cls-19" d="M223.93,189.88c.59.78,0,1.65-.77,2.24s-1.47.67-2.06-.11a1.46,1.46,0,0,1,.31-2.21A1.8,1.8,0,0,1,223.93,189.88Z"/><path class="cls-19" d="M233,189.7c-.83.51-1.65-.15-2.16-1s-.52-1.53.31-2a1.46,1.46,0,0,1,2.17.52A1.8,1.8,0,0,1,233,189.7Z"/><path class="cls-19" d="M234.44,227.94c-.18,1-1.21,1.12-2.17.95s-1.49-.63-1.32-1.59a1.47,1.47,0,0,1,1.84-1.27A1.8,1.8,0,0,1,234.44,227.94Z"/><path class="cls-19" d="M192.75,223.23c.59.78,0,1.66-.77,2.25s-1.47.66-2.06-.11a1.48,1.48,0,0,1,.32-2.22A1.8,1.8,0,0,1,192.75,223.23Z"/><path class="cls-19" d="M202.18,222.5c.87-.44,1.63.28,2.07,1.15s.4,1.57-.47,2a1.46,1.46,0,0,1-2.12-.7A1.79,1.79,0,0,1,202.18,222.5Z"/><path class="cls-19" d="M227.33,213.2c-.13-1,.81-1.44,1.77-1.57s1.62.15,1.74,1.12a1.46,1.46,0,0,1-1.37,1.76A1.78,1.78,0,0,1,227.33,213.2Z"/><path class="cls-19" d="M217.52,201.21c.58.78,0,1.66-.77,2.24s-1.48.67-2.06-.11a1.46,1.46,0,0,1,.31-2.21A1.8,1.8,0,0,1,217.52,201.21Z"/><path class="cls-19" d="M260,191.87c-.59-.77,0-1.65.77-2.24s1.47-.67,2.06.11a1.48,1.48,0,0,1-.32,2.22A1.79,1.79,0,0,1,260,191.87Z"/><path class="cls-19" d="M257.05,217.46c.58.78,0,1.65-.77,2.24s-1.48.67-2.06-.11a1.46,1.46,0,0,1,.31-2.21A1.8,1.8,0,0,1,257.05,217.46Z"/><path class="cls-19" d="M277,199.44l-.17.42-13.33,33.92a51.09,51.09,0,0,1-5.9,3.58c-15.34,8-26.43,8.5-39.92,9.42L215,241.94s9.6,1.65,9.14-3.51-5.47-18.91,6-31.38,14.11-12.54,26.37-12.83a38.79,38.79,0,0,1,20,4.95Z"/><path class="cls-18" d="M321.16,249a26,26,0,0,1-.49,2.71c-3.58,15.32-19.8,22.32-38.15,19.25-19.4-3.23-28.6-10.89-42.38-19.57s-16.34-22.3-13.28-30.81c.44-1.23.87-2.44,1.33-3.65a.23.23,0,0,0,0-.09h0c2.68-7.1,6.22-13.65,17.52-18.21,13.28-5.35,32.49-.15,45.28,6.71C307,213.88,323.37,231.77,321.16,249Z"/><path class="cls-19" d="M320.67,251.67c-3.58,15.32-19.8,22.32-38.15,19.25-19.4-3.23-28.6-10.89-42.38-19.57s-16.34-22.3-13.28-30.81c.44-1.23.87-2.44,1.33-3.65-.4,1.19-4,12.58,2.41,20,6.81,7.83,10.56,5.45,14.3,10.89s8.68,10.56,13.62,10,13.28,3.41,17.7,7.32,11.07.85,18.21,2.22,6.81-5,15-6.64C315.59,259.5,319.25,254.19,320.67,251.67Z"/><path class="cls-20" d="M290.22,225.9c0,1.46-3.87,2.91-6,2.91s-4.54-1.45-4.54-2.91,2.45-4,4.54-4S290.22,224.45,290.22,225.9Z"/><path class="cls-20" d="M297.64,242.92c.94-1.11,4.38,0,5.83,1.16s2.18,3.67,1.25,4.78-4.08,1.52-5.53.31S296.7,244,297.64,242.92Z"/><path class="cls-20" d="M271.32,211c-.78,1.06-4.21.13-5.73-1s-2.49-3.43-1.71-4.49,3.82-1.57,5.34-.45S272.1,210,271.32,211Z"/><path class="cls-20" d="M263,243.27c-.77,1.06-4.21.14-5.73-1s-2.49-3.43-1.71-4.49,3.82-1.56,5.34-.44S263.81,242.21,263,243.27Z"/><path class="cls-20" d="M243.18,212.68c.69-1.12,4.23-.47,5.83.51s2.78,3.23,2.09,4.35-3.7,1.89-5.31.91S242.49,213.8,243.18,212.68Z"/><path class="cls-20" d="M299,220.53c.69-1.13,4.23-.48,5.84.51s2.77,3.22,2.09,4.35-3.71,1.89-5.32.9S298.26,221.65,299,220.53Z"/><path class="cls-20" d="M267.18,225.4c-.34,1.27-3.44,1.76-4.94,1.35s-2.93-2.09-2.58-3.37,2.63-2.82,4.13-2.41S267.52,224.13,267.18,225.4Z"/><path class="cls-20" d="M285.74,247.41c-.34,1.27-3.44,1.76-4.94,1.35s-2.92-2.09-2.58-3.36,2.64-2.83,4.14-2.42S286.08,246.14,285.74,247.41Z"/><path class="cls-19" d="M255.44,205.29c0,1-1,1.32-2,1.32s-1.59-.35-1.59-1.32a1.47,1.47,0,0,1,1.59-1.58A1.8,1.8,0,0,1,255.44,205.29Z"/><path class="cls-19" d="M284.2,212.75c0,1-1,1.33-2,1.33s-1.58-.35-1.58-1.33a1.47,1.47,0,0,1,1.58-1.58A1.8,1.8,0,0,1,284.2,212.75Z"/><path class="cls-19" d="M291.53,218.05c-1-.1-1.22-1.11-1.13-2.09s.5-1.53,1.47-1.44a1.46,1.46,0,0,1,1.42,1.73A1.8,1.8,0,0,1,291.53,218.05Z"/><path class="cls-19" d="M269.71,249.48c-.72.66-1.64.17-2.3-.55s-.81-1.4-.1-2.06a1.47,1.47,0,0,1,2.24.1A1.79,1.79,0,0,1,269.71,249.48Z"/><path class="cls-19" d="M239.23,220.65c0,1-1,1.33-2,1.33s-1.58-.35-1.58-1.33a1.46,1.46,0,0,1,1.58-1.57A1.79,1.79,0,0,1,239.23,220.65Z"/><path class="cls-19" d="M247.21,225.74c1,.17,1.13,1.21,1,2.17s-.63,1.49-1.59,1.32a1.47,1.47,0,0,1-1.27-1.84A1.79,1.79,0,0,1,247.21,225.74Z"/><path class="cls-19" d="M272.89,233.43c.49-.85,1.52-.67,2.37-.19s1.2,1.09.71,1.94a1.46,1.46,0,0,1-2.15.59A1.8,1.8,0,0,1,272.89,233.43Z"/><path class="cls-19" d="M302.42,232.15c0,1-1,1.33-2,1.33s-1.58-.35-1.58-1.33a1.47,1.47,0,0,1,1.58-1.58A1.81,1.81,0,0,1,302.42,232.15Z"/><path class="cls-19" d="M309.12,238.43c0-1,1-1.33,2-1.33s1.58.35,1.58,1.33a1.47,1.47,0,0,1-1.58,1.58A1.81,1.81,0,0,1,309.12,238.43Z"/><path class="cls-19" d="M294.08,254.71c0,1-1,1.32-2,1.32s-1.58-.35-1.58-1.32a1.47,1.47,0,0,1,1.58-1.58A1.8,1.8,0,0,1,294.08,254.71Z"/></g></svg>