<svg viewBox="0 0 250 250" xmlns="http://www.w3.org/2000/svg" xmlns:xlink="http://www.w3.org/1999/xlink"><clipPath id="a"><path d="m137.19 100.63c9.1-.46 18.32-.91 27.19 1.83 10.75 3.33 20.36 11.14 29.76 18.83l18.94 15.5c2 1.63 2.95 5-.21 6.62s-13 3.21-22 4.92c-7.77 1.47-15.55 2.94-23.37 3.72s-15.63.88-23.46 1c-19.14.24-38.31.49-57.39-1.52-2.86-.3-5.77-.66-8.41-2.13-3.2-1.77-5.79-5-8.3-8.18l-17.26-21.83c-1.84-2.33-3.84-5.76-2.62-8.72a6.24 6.24 0 0 1 2.1-2.47c10.63-8.17 27.46-4.65 39.37-5.26z"/></clipPath><path d="m63.29 140.93c-3.59.25-7.19.54-10.78.86-3 .28-6.95 1.48-6.95 4.53a5.93 5.93 0 0 0 1.1 3c7 11.57 17.58 20.45 28 29.12 2.59 2.16 5.26 4.37 8.44 5.51 3.5 1.25 7.33 1.11 11 .95l18.92-.82 27.22-1.17c22.42-1 44.89-1.93 67.08-5.29 2-.3 4.13-.72 5.39-2.27 2.29-2.82 0-7.1-2.9-9.32-6.13-4.75-14.29-5.67-22-6.5-24-2.58-48-5.9-71.13-12.54-14.51-4.16-29.27-9.67-44.25-7.87" fill="#efefef"/><path d="m214.86 141v-.08a.28.28 0 0 1 0 .08z" fill="#e0b87c"/><path d="m213.08 136.79-18.94-15.5c-9.4-7.69-19-15.5-29.76-18.83-8.87-2.74-18.09-2.29-27.19-1.83l-45.66 2.31c-11.91.61-28.74-2.91-39.37 5.26a6.37 6.37 0 0 0 -2 2.34s-.05.08-.07.13a5.08 5.08 0 0 0 -.26.9 6.46 6.46 0 0 0 .35 3.49 16.11 16.11 0 0 0 2.53 4.33l17.29 21.81c2.51 3.17 5.1 6.41 8.3 8.18 2.64 1.47 5.55 1.83 8.41 2.13 19.08 2 38.25 1.76 57.39 1.52 7.83-.1 15.66-.2 23.46-1s15.6-2.25 23.37-3.72c9-1.71 18.84-3.31 22-4.92a3.41 3.41 0 0 0 2-2.3v-.15a.28.28 0 0 0 0-.09 4.69 4.69 0 0 0 -1.85-4.06z" fill="#0c4f60"/><g clip-path="url(#a)"><path d="m62 136.59c18.37-1.92 36.83 1.76 55.24.76 13.62-.74 40.2-4.14 44.45-3 7.19 1.87 19.4 13.15 22.22 15.08 6.23 4.29 12.69 8.84 16.78 16.42 1.12 2.08 2 4.85 1.16 7.12a5.6 5.6 0 0 1 -3.68 3.08c-4.84 1.71-9.91 1.74-14.92 1.71q-23.44-.14-46.87-1.53c-17.08-1-34.19-2.53-51-6.44-6.23-1.44-12.58-3.29-17.86-7.92a26.54 26.54 0 0 1 -8.79-21" fill="#9e1c4c"/></g><path d="m160.83 118.65a7.78 7.78 0 0 0 -.11 3.49c-.35-1.24 2.24-5.59 2.66-7 .5-1.65 2.12-6.15 1.21-7.79-1.24-2.23-2.07 2.22-2.23 3.09z" fill="#e0b87c"/><path d="m133.47 95.5a47.59 47.59 0 0 1 -.26 5.21 39.76 39.76 0 0 1 -1.59 6.25 149.53 149.53 0 0 0 -4.48 19.38c-1.1 6.78-1.69 13.91.68 20.35 1.45 3.93 4 7.64 3.91 11.83 0 2.66-1.19 5.17-1.68 7.78s-.14 5.73 2 7.27l11.34-7.81a21 21 0 0 1 3.54-2.1 24.23 24.23 0 0 1 4.2-1.18 81 81 0 0 0 29.5-13.29 88 88 0 0 1 8.65-6 28.42 28.42 0 0 1 9-3.14c3.55-.61 7.32-.57 10.52-2.21 1.54-.78 3-2.39 2.49-4a4.42 4.42 0 0 0 -1.49-1.84l-6.91-5.86a22.75 22.75 0 0 1 -3.74-3.73c-1.51-2.09-2.24-4.63-3.11-7.06-5.88-16.37-20.58-28-37.23-33-3.37-1-6.15-3.38-9.15-5.21-3.74-2.29-12.18-8.93-14.76-1.38-.86 2.52-.27 5.62-.46 8.24-.28 3.83-.88 7.63-.97 11.5z" fill="#ffa300"/><path d="m153.25 92.87a35.93 35.93 0 0 1 3.61 6.2 48.63 48.63 0 0 1 1.69 6.43c1.47 5.89 4.36 11.3 6.27 17 3 9.1 3.52 18.88 3.13 28.48 0 1.16-.26 2.55-1.31 3-1.18-.3-1.22-2-1.07-3.19 1.7-13.84-5.29-27-9.36-40.34-1.07-3.52-2-7.11-3.27-10.55a85.6 85.6 0 0 0 -4.82-9.9l-3.48-6.45a4.73 4.73 0 0 0 -1.77-2.14c-.83-.43-1.89.71-2.32.77s-1.5-4.34.88-5.92c2.07-1.37 3.36.74 4.32 2.45 2.62 4.71 4.54 9.64 7.5 14.16z" fill="#b27200"/><path d="m137.59 160.14a3.57 3.57 0 0 0 -.41 5.23l2.63-2a5.16 5.16 0 0 1 1.1-.71 4.69 4.69 0 0 1 1.53-.31 14.06 14.06 0 0 0 3.71-.62 3.76 3.76 0 0 0 2.48-2.64.8.8 0 0 0 -.06-.55.82.82 0 0 0 -.6-.3 6.06 6.06 0 0 0 -2.62.38c-1 .31-2 .66-3 1.06a1.17 1.17 0 0 1 -.89.1c-.52-.24-.38-1 0-1.49s.84-.92.77-1.49a.86.86 0 0 0 -.82-.74c-1.27-.06-3.11 3.22-3.82 4.08z" fill="#b27200"/><path d="m188.74 139.85c2.23-1.17 4.59-2.39 7-2.59a10 10 0 0 0 1.8-.21 2 2 0 0 0 1.36-1.05 1.27 1.27 0 0 0 -.08-.77l-1.24-3.74c-.22-.67-.63-1.45-1.55-1.34a2.32 2.32 0 0 0 -1.7 1.4c-.27.63-.3 1.28-.62 1.9-1 1.93-3.87 2.72-6.15 3.76-4.17 1.91-7.23 5.52-11.42 7.39a2.05 2.05 0 0 1 -1 .25 2.57 2.57 0 0 1 -.74-.31 2.06 2.06 0 0 0 -2.05.53 1.1 1.1 0 0 0 -.1 1.64 1.89 1.89 0 0 0 .84.32c2.74.53 4-.72 6.18-2.16 2.92-1.87 6.4-3.4 9.47-5.02z" fill="#b27200"/><path d="m204.06 136.31a10.25 10.25 0 0 1 -3.46-3.79 1.24 1.24 0 0 1 -.17-.5c0-.67 1-.93 1.55-.59s.93 1 1.46 1.39a13.26 13.26 0 0 0 2 1 1.66 1.66 0 0 1 1 1.82c-.29.8-1.35.92-2.2.85" fill="#b27200"/><path d="m61.72 119.14c.37-3.85 3.43-8.74 5-9.77s2 4.13 2.8 6.24a116.43 116.43 0 0 1 5.48-20.17c.64-1.74 2.24-4.45 3.83-3.6s-.08 6.9-.12 10.35a10.85 10.85 0 0 1 8.61-5.7 2.87 2.87 0 0 1 2 .34c1.07.77.71 2.23.23 3.26q-5.07 10.77-11.12 21c2.17-.92 5.74-2.3 7-1.53s-2.26 5.36-4.1 7.61c-3.32 4.06-6.09 6.88-7.48 12-.77 2.85-2.86 5.16-6.64 3.32-6.48-3.13-5.98-18.2-5.49-23.35z" fill="#037c3c"/><path d="m67.83 121c-.21-.75-.77-1.67-1.5-1.41s-.72 1.69-1.55 1.91a55 55 0 0 0 -6.67-13.26 3.43 3.43 0 0 0 -1.3-1.29 1.24 1.24 0 0 0 -1.61.44 1.83 1.83 0 0 0 0 1.24l1.83 6.75a5.85 5.85 0 0 0 -5.37 0 1.75 1.75 0 0 0 -.85.78 2 2 0 0 0 .24 1.63 42.91 42.91 0 0 0 8 11.75c.75.78 1.6 1.75 1.37 2.81a4.86 4.86 0 0 0 -.3 1.1 2 2 0 0 0 .89 1.38 10.33 10.33 0 0 0 4.15 2.55c4.42 1 4.1-3 4.1-5.95a38.28 38.28 0 0 0 -1.43-10.43z" fill="#037c3c"/><path d="m123.26 85.68c3.5 6.65 9.44 12.15 12.85 18.84a48.23 48.23 0 0 1 3.81 11.48 133.11 133.11 0 0 1 3 20.68c.25 4 .4 8.19 2.84 11.57 2.11 2.91 5.79 5 7.08 8.21a1.76 1.76 0 0 1 .17 1 1.84 1.84 0 0 1 -.57.87c-1.72 1.64-4.59 1.9-7.1 1.48s-4.84-1.41-7.33-1.9c-4.86-.94-9.89.09-14.83.58a68.14 68.14 0 0 1 -31-4.14c-3.53-1.37-7.07-3.07-10.93-3.13-4.64-.08-9.24 2.24-13.72 1.18a3.68 3.68 0 0 1 -2.24-1.27c-.72-1-.2-2.42.68-3.36s2.08-1.61 3-2.53c2-2.1 2.17-5.08 2.43-7.82a60.47 60.47 0 0 1 14.39-33.42c2.76-3.23 5.85-6.22 8.94-9.21s6-5.8 9.79-7.84c2.08-1.13 4.56-2.09 5.91-4 1.22-1.71.92-4.23 3.48-5 4.9-1.58 7.85 4.9 9.35 7.73z" fill="#d78f00"/><path d="m110.69 94.07c-2.48 5-5 10.05-5.69 15.56-.31 2.53-.24 5.11-.53 7.65-1.2 10.33-8.46 19.74-7.36 30.08a6 6 0 0 0 1.39 3.64c2.49-3.7 2-8.56 2.71-13 .85-5.08 3.45-9.75 4.33-14.83.69-4 .28-8.2 1.08-12.21a41.33 41.33 0 0 1 3.71-9.69l4.31-8.94c.26-.55.6-1.16 1.19-1.31 1.27-.31 1.81 1.6 1.56 2.88s-.34 3.09.93 3.4a1.64 1.64 0 0 0 1.78-1.16 4.91 4.91 0 0 0 0-2.32l-1.1-7.88c-.46-3.13-2.25-3.39-3.77-.93-1.78 2.83-3.06 6.08-4.54 9.06z" fill="#b27200"/><path d="m127.87 151.18c.85-.6 1.5-1.45 2.34-2.07a7.45 7.45 0 0 1 5.87-1 21.78 21.78 0 0 1 5.66 2.32c1.18.62 2.52 1.46 2.59 2.79a.52.52 0 0 1 -.21.53.61.61 0 0 1 -.49-.05l-5.74-2.34a3.1 3.1 0 0 0 -1.22-.31c-1 0-1.72 1-2.24 1.89a9.06 9.06 0 0 1 3 1.64c-.78.45-1.76.1-2.65-.12-3.33-.81-10.46 2.68-13.07.79s5.06-3.25 6.16-4.07z" fill="#b27200"/><path d="m139.13 135a11.1 11.1 0 0 0 -.46 1.59 10.48 10.48 0 0 0 .28 2.94 8.83 8.83 0 0 1 -.11 3c-.18.84-.91 1.85-1.67 1.45a1.54 1.54 0 0 1 -.58-1.31l-.55-5.73a10.28 10.28 0 0 1 0-2.77c.31-1.74 1.51-3.38 1.19-5.12a10 10 0 0 1 -.4-1.77c0-.6.44-1.29 1-1.21 1.67.17 1.65 7.67 1.3 8.93z" fill="#b27200"/><path d="m77.79 143.34c-.35-.47-2.58-4.57-3.13-4.33a.62.62 0 0 0 -.31.35c-.52 1.36 2 3 1.49 4.32-.19.5-.79.94-.52 1.46s.81.61 1.33.8c2.42.84 5.54 4.31 6.38 3.29s-3.13-3.08-5.24-5.89z" fill="#b27200"/><path d="m100.61 100.15c.9-.71 1-2 1.09-3.15l.12-2.55c0-.33 0-.76-.35-.85a.63.63 0 0 0 -.38 0c-1.94.56-3.39 2.15-4.74 3.66l-3.88 4.37c-1.44 1.62-2.87 3.24-4.21 4.94a102.45 102.45 0 0 0 -6.42 9.43 18.69 18.69 0 0 0 -2 3.94 30.12 30.12 0 0 0 -.94 5 26.43 26.43 0 0 1 -1.27 4.89c-.65 1.8-1.44 4-.26 5.46a.93.93 0 0 0 .44.35c.55.16 1-.5 1.1-1.05a23.37 23.37 0 0 0 .52-3 43.84 43.84 0 0 1 4.23-13.48 77.35 77.35 0 0 1 9.79-14.09c1-1.26 1.33-.81 2.6-.72.76 0 .71.08 1.19-.49s.34-1.16.82-1.59c.67-.6 1.78-.47 2.55-1.07z" fill="#ffa300"/><path d="m161.43 156.26c-2.43 5-8.8 8.62-14.27 8-3.56-.43-6.78-2.26-9.76-4.25a78.86 78.86 0 0 1 -18.05-16.68c-1.44-1.83-2.85-3.87-2.94-6.19a11 11 0 0 1 .65-3.63c.56-1.84 1.39-4.45 2.07-6.25a2.48 2.48 0 0 1 1.76-1.81 2.76 2.76 0 0 1 2.52.5 8 8 0 0 1 1.74 2" fill="#360"/><path d="m127.7 122c10.56.13 19.33 8 26 16.25 3.16 3.91 6.15 8.1 7.66 12.89a7.31 7.31 0 0 1 .19 5 6.86 6.86 0 0 1 -3.59 3.23 17.14 17.14 0 0 1 -13.89.28 30.31 30.31 0 0 1 -7.44-5q-5.26-4.43-10.08-9.34a33.17 33.17 0 0 1 -6.58-8.63c-3.31-7.01-.87-14.83 7.73-14.68z" fill="#519600"/><g fill="#72c900"><path d="m156.7 154a2.33 2.33 0 0 1 .38.45 1.41 1.41 0 0 1 -.06 1.35 3.37 3.37 0 0 1 -1 1 10 10 0 0 1 -5.86 1.85 3.42 3.42 0 0 1 -2.12-.57 4.17 4.17 0 0 1 -1.13-1.68c-1.69-3.7-3.32-7.42-4.85-11.2-.38-.94-.46-2.77 1.1-2.61.47.05.94.52 1.31.77.6.41 1.19.82 1.77 1.25a72.36 72.36 0 0 1 6.79 5.82c1.24 1.18 2.46 2.38 3.67 3.57z"/><path d="m157.66 151.44a1 1 0 0 1 -.18.45.73.73 0 0 1 -.81.14 2.37 2.37 0 0 1 -.7-.52 108.67 108.67 0 0 0 -8.71-7.76c-.77-.62-1.62-1.41-1.51-2.39a.58.58 0 0 1 .13-.31.62.62 0 0 1 .55-.08q3.18.6 6.33 1.36c1.91.47 3.35 1.08 3.68 3.09s1.61 3.92 1.22 6.02z"/><path d="m142.6 153.93a1 1 0 0 1 0 .69c-.17.38-.7.4-1.11.31a9.22 9.22 0 0 1 -2.67-1.22 39 39 0 0 1 -3.94-2.8c-.39-.31-.8-.72-.74-1.21a1.5 1.5 0 0 1 .35-.7c.76-1 1.52-2 2.3-2.92.41-.52 1.61-2.55 2.34-2.51s1.11 2.16 1.28 2.77l1 3.6z"/><path d="m145.61 139.3a3.1 3.1 0 0 1 -1.83-.67 2.41 2.41 0 0 1 -.51-1.07 22.92 22.92 0 0 1 -1-6.2c0-.18 0-.39.2-.46a.8.8 0 0 1 .27 0 8 8 0 0 1 4.5 2.22c2.41 2.08 6.21 6.58 5.28 7.4"/><path d="m140.94 138.3a.63.63 0 0 1 -.13.36.53.53 0 0 1 -.52 0 4.38 4.38 0 0 1 -1.55-1.23c-.92-1-1.84-2-2.68-3a58.82 58.82 0 0 1 -4.49-6.77l-1.31-2.19c-.22-.36-.42-.9-.08-1.16a.86.86 0 0 1 .38-.13 6.7 6.7 0 0 1 3.51.63 26 26 0 0 0 3.34 1.36 5 5 0 0 1 1.43.48c.81.51.68 1.56.82 2.39.17 1.05.42 2.08.65 3.12a18.38 18.38 0 0 1 .63 6.14z"/><path d="m128.78 128.07a9.08 9.08 0 0 0 -1.86-1.64 3 3 0 0 0 -2.38-.41 3.41 3.41 0 0 0 -2 3.18c-.08 1.34.26 2.67.26 4 0 .6 0 1.28.4 1.68a2.44 2.44 0 0 0 1.26.4 9.48 9.48 0 0 1 2 .63l11 4.43a1.57 1.57 0 0 0 1.19.14c1.32-.56-2.18-3.91-2.65-4.45-1.48-1.73-3-3.42-4.53-5.1z"/><path d="m136.57 143.77-1.78 2.35c-.52.7-1.22 1.46-2.08 1.36s-1.35-1.06-1.9-1.76a15.27 15.27 0 0 0 -1.51-1.5c-1.31-1.24-2.36-2.74-3.68-3.95a5.47 5.47 0 0 1 -.89-.91 1.47 1.47 0 0 1 -.27-1.19 1.35 1.35 0 0 1 .76-.84 3.65 3.65 0 0 1 2.85.34l6 2.49c.85.35 2.35.7 3 1.36s-.07 1.68-.5 2.25z"/></g><path d="m212.87 143.41c-3.15 1.61-13 3.21-22 4.92-7.77 1.47-15.55 2.94-23.37 3.72s-15.63.88-23.46 1c-19.14.24-38.31.49-57.39-1.52-2.86-.3-5.77-.66-8.41-2.13-3.2-1.77-5.79-5-8.3-8.18l-17.26-21.83a16.11 16.11 0 0 1 -2.53-4.33c.39 3.8.8 7.65 1.07 11.4a96.9 96.9 0 0 0 3.14 19.54c2.92 10.14 8.9 17.38 14.66 24.21 3.47 4.11 7.07 8.33 11.35 10.07 3.1 1.26 6.37 1.14 9.59 1l22.77-.92c28.7-1.17 57.42-2.33 86-6.17 3.25-.44 6.76-1.07 9.16-4.43 1.8-2.52 2.67-6.16 3.45-9.66 1-4.22 2.53-14.54 3.45-19a3.41 3.41 0 0 1 -1.92 2.31z" fill="#ec2044"/><path d="m78.48 174c.09.62.48 1.42 1 1.18l-1-18.24c0-1-1.26-3.59-2-1.71-.19.44.2 1.72.24 2.2.11 1.13.18 2.27.28 3.41q.53 6.57 1.48 13.16z" fill="#9e1c4c"/><path d="m166.37 92.58c1.62.9 3.42 1.59 4.64 3 .77.87 1.25 2 2 2.83a14.81 14.81 0 0 0 4 2.71 50.9 50.9 0 0 1 5.58 3.87 36.21 36.21 0 0 1 6.54 5.87 32 32 0 0 1 4.57 8.73c.71-1 .34-2.38-.11-3.51a33.24 33.24 0 0 0 -9-12.64c-.64-.56-1.3-1.09-2-1.62l-3.77-3.06c-5-4-10-8.09-15.25-11.84a1.1 1.1 0 0 0 -.84-.3.75.75 0 0 0 -.48.85c.43 2.12 2.32 4.11 4.12 5.11z" fill="#ffc783"/></svg>