<svg viewBox="0 0 250 250" xmlns="http://www.w3.org/2000/svg" xmlns:xlink="http://www.w3.org/1999/xlink"><clipPath id="a"><path d="m62.68 122.48c16.16 4.09 32.87 5.45 49.5 6.52 26.43 1.7 53.41 2.67 79-4.29 3.89-1.06 7.8-2.34 11.06-4.71s6-6 6-10c0-6.68-13-12.4-13-12.4-31.24-12.36-65.83-12.8-99.03-8.7-14.78 1.83-29.55 4.55-43.33 10.28a34.38 34.38 0 0 0 -8.55 5.13 6 6 0 0 0 -2.45 3.45 4 4 0 0 0 .32 2.06 8.81 8.81 0 0 0 .88 1.59c4.32 6.34 12.16 9.19 19.6 11.07z"/></clipPath><clipPath id="b"><path d="m50.3 128.15a12.66 12.66 0 0 1 3.22-9.69c4-4.47 8.74-8.19 14.18-10.06 3-1 6.08-1.46 9.08-2.34 7.85-2.28 14.76-7.46 22.57-9.87 12.71-3.93 26.34-.16 39.53-1.27 3.55-.3 7.15-1 10.65-.18 4.2.91 7.93 3.8 12.17 4.42 4.84.72 10-1.58 14.55.26 3.4 1.36 5.75 4.68 8.35 7.45 3.46 3.69 7.6 6.6 10.8 10.56s5.39 9.54 3.86 14.52c-2 6.61-9.21 9-15.35 10.83a197.68 197.68 0 0 0 -26.91 10.09c-8.26 3.8-17 8.28-25.83 6.56-6-1.18-11.29-5.11-17.07-7.33a31.44 31.44 0 0 0 -15.72-1.83c-8.88 1.25-17.72 6.31-26.37 3.66-5.69-1.74-10.13-6.53-14.3-11.14-3.69-4.1-7.66-8.91-7.43-14.64z"/></clipPath><clipPath id="c"><path d="m160 96.93c-1.36-1.59-4.52-2.73-6.36-3.69-4.47-2.33-9.29-4.23-14.39-4.35-2.78-.07-5.55.38-8.32.22-2.5-.14-5-.78-7.48-.24-1.37.3-2.66 1-4.06 1.17-2 .31-4.16-.38-6.17.1-1.7.41-3.12 1.6-4.8 2-1.92.52-4 0-5.89.76-1.41.55-2.47 1.73-3.7 2.62-2.83 2.17-6.83 2.76-9.33 5.3-.7.7-1.26 1.9-.58 2.62a2 2 0 0 0 .86.45c3.77 1.13 7.69-1 11.61-1.38 2.78-.29 5.6.28 8.38 0a39.08 39.08 0 0 1 5.25-.6 11.9 11.9 0 0 1 2 .28 3.68 3.68 0 0 1 2.4 1.7 4.25 4.25 0 0 0 2 2 4.42 4.42 0 0 0 1.92.16c2.85-.23 5.92-1 8.41.43.86.49 1.57 1.2 2.4 1.72 2.28 1.45 5.16 1.39 7.86 1.28 2-.08 4.45-.39 5.41-2.19.82-1.55.31-3.83 1.76-4.81a3.74 3.74 0 0 1 1.61-.49c1.12-.17 2.58.44 3.37-.51 1.62-2 .79-2.67 3.51-2.63 2.07.05 4.03.03 2.33-1.92z"/></clipPath><path d="m183.29 154.53c-33.7-4.1-67.85-7.94-101.44-2.92-8.86 1.32-17.74 3.3-25.8 7.47a3.82 3.82 0 0 0 -2 2.39c-.75 2.76 1.87 4.25 4.06 5 11.56 4.09 23.73 5.85 35.86 7.08a430.56 430.56 0 0 0 56.09 2c10.54-.32 21.09-1.08 31.42-3.48a47.1 47.1 0 0 0 9.59-3.37c2.45-1.17 5.36-2.83 4.93-6.42a5.54 5.54 0 0 0 -.81-2.24 8.81 8.81 0 0 0 -3.18-3 17 17 0 0 0 -5.46-2z" fill="#efefef"/><path d="m62.67 122.38c16.15 4.09 32.86 5.45 49.49 6.52 26.43 1.7 53.41 2.67 79-4.29 3.88-1.06 7.8-2.33 11.05-4.71s5.95-6 5.95-10c0-6.67-13-12.4-13-12.4-31.16-12.35-65.77-12.79-98.96-8.69-14.78 1.82-29.55 4.54-43.33 10.28a33.45 33.45 0 0 0 -8.55 5.13 5.86 5.86 0 0 0 -2.45 3.44 4 4 0 0 0 .32 2.07 8.73 8.73 0 0 0 .88 1.58c4.32 6.34 12.15 9.19 19.6 11.07z" fill="#89cfbb"/><path d="m174 105.05c-.22.48-.38 1-.61 1.45a19.29 19.29 0 0 1 -1.25 2 7.08 7.08 0 0 0 -1.28 4c.09 1.74 1.15 3.27 2.17 4.69l1.57 2.18a5.13 5.13 0 0 0 1.21 1.33 5.29 5.29 0 0 0 1.48.6l3.37 1a6.3 6.3 0 0 0 2.42.35 9.49 9.49 0 0 0 3.18-1.55c1.57-.88 3.42-1.31 4.75-2.53 1.67-1.54 2.11-4 2.45-6.22a18.64 18.64 0 0 0 .28-5.47 6.28 6.28 0 0 0 -2.72-4.56c-.8-.48-1.72-.71-2.51-1.19a12.42 12.42 0 0 0 -1.94-1.23 4.46 4.46 0 0 0 -2-.15c-3.72.32-8.85 1.54-10.57 5.3z" fill="#824646"/><path d="m188 103.37a1.31 1.31 0 0 0 -1.06-.06c-.48.28-.4 1-.06 1.45s.85.7 1.2 1.12a4.12 4.12 0 0 1 .66 2.37l.3 4.88c0 .23.08.52.31.55a.52.52 0 0 0 .29-.09 5.36 5.36 0 0 0 1.44-8.16 9.56 9.56 0 0 0 -1.18-1.11" fill="#5e3434"/><path d="m166.46 92a19.83 19.83 0 0 0 -4 3.35 45.91 45.91 0 0 0 -2.93 4.68c-6.53 10.11-31.81 16.97-29.71 19.68s27.57-13.47 28.94-12.32-4.86 4.29-7.71 5.88l-13.93 7.8c-.57.32-1.2.71-1.37 1.34-.24 1 .76 1.84 1.73 1.88a5.06 5.06 0 0 0 2.69-1l16.35-10.17c1.83-1.14 4.47-3.34 5.88-2.6s-1.37 3.17-2.82 4.2c-6.18 4.38-19.13 10.12-19.24 12.05s4.93-.06 7.13-1.31l6.33-3.6a103.6 103.6 0 0 0 10.71-6.6c4.87-3.68 5.85-4.6 5.9-10.09 0-2-.16-3.94.51-5.8.94-2.62 3.13-4.55 5.26-6.35 14.53-12.24 31.41-22.41 47.53-32.45 1.62-1 2-3.78 1.19-5.49-2.16-4.45-9.58 1.23-11.52 2.58-5.11 3.56-12.71 12-17.81 15.53-10.31 7.16-18.81 11.66-29.11 18.81z" fill="#ddd"/><path d="m124.15 117.09a38.39 38.39 0 0 0 5.19 9.23c2.27 2.72 5.47 4.86 9 5.05 1.13.06 2.28-.08 3.4.07a21.36 21.36 0 0 1 4.91 1.71c2.34.9 5.21 1.25 7.19-.3 1.33-1 2-2.74 3.27-3.85a14 14 0 0 1 4.41-2.08c1.53-.59 3.1-1.54 3.59-3.1a4.49 4.49 0 0 0 -.61-3.6 18.4 18.4 0 0 0 -2.4-2.9 33.39 33.39 0 0 1 -4.57-6.31c-1.66-3-3.15-6.44-6.28-7.74a12.51 12.51 0 0 0 -4.18-.69 31.21 31.21 0 0 0 -7.1.19 10.63 10.63 0 0 0 -6.2 3.2 4.56 4.56 0 0 1 -1.22 1.18 4.61 4.61 0 0 1 -1.82.29 8 8 0 0 0 -6.27 3.8 5.25 5.25 0 0 0 -.31 5.85z" fill="#ffd95f"/><path d="m151.15 128.31c.51-.74-9.74-8.8-13.3-14.27-.39-.61-2.85-4.94-3.6-4.47-1 .64 1.84 4.19 2.17 4.66a52 52 0 0 0 8.6 9.88c1.88 1.62 5.61 4.94 6.13 4.2z" fill="#ffb757"/><path d="m156.34 126.5a2 2 0 0 0 1.71.51c-1.18-1.2-2.45-2.31-3.72-3.41l-5.51-4.79-2.72-2.36a16 16 0 0 0 -2.79-2.43c-1-.5-.79.3-.24 1a32.27 32.27 0 0 0 2.33 2.35q2.4 2.36 5 4.52 2.87 2.41 5.94 4.61z" fill="#ffb757"/><path d="m140.77 129.4c.19.22.49.45.73.3s.12-.6-.06-.87a76.42 76.42 0 0 1 -6.42-12c-.35-.82-.88-1.78-1.76-1.79-.36 2.44 1.65 5.56 2.81 7.65a39.31 39.31 0 0 0 4.7 6.71z" fill="#ffb757"/><path d="m141.37 125.74a48.08 48.08 0 0 0 5.28 11.55c.67 1.07 1.85 2.81 2.76 2.37s-1.69-4.28-1.69-4.28a4.52 4.52 0 0 1 1.86.94 19.77 19.77 0 0 0 7.13 5.59c.41.2 1 .33 1.26-.06s-.09-.83-.39-1.15a57 57 0 0 1 -7.2-8.77 29.79 29.79 0 0 0 -2.57-3.8 6.13 6.13 0 0 0 -3.89-2.24" fill="#ffd95f"/><path d="m147.41 101.68a36.21 36.21 0 0 0 -5.6-.33 12.13 12.13 0 0 0 -5.39 1.4c-1 .56-1.87 1.31-2.86 1.86a21.74 21.74 0 0 1 -3.94 1.49 11.36 11.36 0 0 0 -3.77 1.82 4.5 4.5 0 0 0 -1.78 3.64.62.62 0 0 0 .08.33 1 1 0 0 0 .39.32c.8.51 1.18 1.57 2.07 1.92s2.1-.37 3.1-.85a6.31 6.31 0 0 1 3.68-.55c.93.14 1.82.49 2.73.72a4.59 4.59 0 0 0 2.77 0 5.94 5.94 0 0 0 1.86-1.38l1.68-1.65a2.55 2.55 0 0 0 .66-.87 3 3 0 0 0 .12-1 2.73 2.73 0 0 1 1.15-2.46 3.51 3.51 0 0 1 1.24-.29l3-.3c.65-.07 1.39-.2 1.7-.77a1.53 1.53 0 0 0 .12-1 2.36 2.36 0 0 0 -2.19-2z" fill="#ec2044"/><path d="m147.07 108a3.61 3.61 0 0 0 -1.21 2.46 4.29 4.29 0 0 0 1 2 10.17 10.17 0 0 1 1.27 2.39 4.54 4.54 0 0 0 1.48 2.5.87.87 0 0 0 .86.1c.37-.2.38-.73.33-1.15a11.76 11.76 0 0 1 -.29-3.63 18.85 18.85 0 0 1 .64-2.06 2.7 2.7 0 0 0 -.12-2.09 2.29 2.29 0 0 0 -1.47-1 5.44 5.44 0 0 0 -1.8 0z" fill="#ec2044"/><path d="m153.13 106.9c.23.25.53.43.76.68s.38.47.66.54a.73.73 0 0 0 .77-.52 2.15 2.15 0 0 0 0-1c-.16-1-.54-3.31-2-2.94s-.93 2.48-.19 3.24z" fill="#ec2044"/><g clip-path="url(#a)"><path d="m50.3 128.15a12.66 12.66 0 0 1 3.22-9.69c4-4.47 8.74-8.19 14.18-10.06 3-1 6.08-1.46 9.08-2.34 7.85-2.28 14.76-7.46 22.57-9.87 12.71-3.93 26.34-.16 39.53-1.27 3.55-.3 7.15-1 10.65-.18 4.2.91 7.93 3.8 12.17 4.42 4.84.72 10-1.58 14.55.26 3.4 1.36 5.75 4.68 8.35 7.45 3.46 3.69 7.6 6.6 10.8 10.56s5.39 9.54 3.86 14.52c-2 6.61-9.21 9-15.35 10.83a197.68 197.68 0 0 0 -26.91 10.09c-8.26 3.8-17 8.28-25.83 6.56-6-1.18-11.29-5.11-17.07-7.33a31.44 31.44 0 0 0 -15.72-1.83c-8.88 1.25-17.72 6.31-26.37 3.66-5.69-1.74-10.13-6.53-14.3-11.14-3.69-4.1-7.66-8.91-7.43-14.64z" fill="#ffd95f"/><g clip-path="url(#b)" fill="#efc85b"><path d="m51.31 111c7.85-1.05 15 4.08 22.15 7.46 7.8 3.69 16.37 5.45 24.91 6.71 7.5 1.12 15 1.88 22.58 2.64a88.7 88.7 0 0 0 14.74.67c9.18-.6 17.92-4 26.35-7.69a40.51 40.51 0 0 1 7.7-2.78c2.71-.56 5.52-.54 8.23-1.12 6.48-1.39 11.68-6 17.35-9.48 1.91-1.16 4.09-2.22 6.28-1.83a9.91 9.91 0 0 1 3.4 1.56c4.16 2.66 8.2 5.82 10.57 10.15 3.49 6.4 2.76 14.3.67 21.28a61.12 61.12 0 0 1 -12.18 22.22c-9.11 10.58-21.77 17.79-35.22 21.51s-27.69 4.07-41.54 2.34c-23.49-2.93-46.06-11.79-66-24.46-7.93-5-15.71-10.88-20.29-19.06s-5.24-19.19.64-26.5"/><path d="m103.49 104.23c2.06.22 4.13.31 6.2.4l12.18.51a10.36 10.36 0 0 1 2.43.29 26.72 26.72 0 0 1 2.84 1.27c3.79 1.6 8.19.33 12.19 1.27 1.42.33 2.77.93 4.2 1.21a5 5 0 0 0 4.16-.75c1-.87 1.47-2.27 2.46-3.2s2.29-1.22 3.42-1.87a13.46 13.46 0 0 0 2.88-2.51c1.1-1.17 2.26-2.91 1.34-4.22a3.43 3.43 0 0 0 -2.57-1.07c-6.67-.62-13.34.77-20 1.14-7.78.43-15.58-.54-23.36-.08a26.3 26.3 0 0 0 -4.07.49c-1.1.23-2.17.57-3.26.81a16.87 16.87 0 0 1 -10.7-1.3 16.86 16.86 0 0 0 -3.11-1.38c-1.73-.44-3.85.26-4 2.31-.11 1.69 1.56 2.47 2.88 3.06a45.87 45.87 0 0 0 13.89 3.62z"/></g></g><g fill="#efc85b"><path d="m98.18 104.1c4.25 4 9.38 7.29 15.1 8.49.47.09 1.07.11 1.28-.31a4 4 0 0 0 -1.51-.57 30.58 30.58 0 0 1 -7.79-3.6 30.2 30.2 0 0 1 -3.34-2.16 44.25 44.25 0 0 0 -4.28-3.48c-.17-.11-.42-.2-.56-.06a.36.36 0 0 0 -.09.26 1.12 1.12 0 0 0 .49 1"/><path d="m98.24 110.49a4.61 4.61 0 0 0 2.11 1.17 3 3 0 0 0 -1.13-1.12c-2.72-2-4.77-4.69-7-7.25-.39-.47-1.81-1.33-1.1-.14a17.78 17.78 0 0 0 2.07 2.52 44.64 44.64 0 0 0 5.05 4.82z"/><path d="m105.18 103.88a16.46 16.46 0 0 0 4.91 2c0-.42-.48-.66-.86-.83a36.55 36.55 0 0 1 -6.69-4.07c-.45-.33-2.32-2.11-2.8-1.78-.92.62 1.36 2 1.71 2.22a38.46 38.46 0 0 0 3.73 2.46z"/><path d="m157 106.47c.81 0-1.65 2.11-2.85 2.77a110.83 110.83 0 0 1 -12.87 6.39 77.21 77.21 0 0 1 -22 4.67 23.17 23.17 0 0 1 -6.17-.07c-.32-.06-1.72-.31-1.26-.89.2-.26 1.37.06 1.65.08a54 54 0 0 0 11.07-.66 78 78 0 0 0 21.45-6.25c1.94-.88 3.85-1.83 5.71-2.86.91-.49 1.81-1 2.69-1.54.35-.27 1.73-1.64 2.58-1.64z"/><path d="m139.4 119.84c8.88-2.26 17.77-5.34 25-11a3.52 3.52 0 0 0 1.42-1.78 6.2 6.2 0 0 0 -2.4.9c-2.52 1.44-4.76 3.31-7.29 4.73a39.63 39.63 0 0 1 -4.12 1.94 100.29 100.29 0 0 1 -11.44 3.94c-2 .54-3.94 1-5.93 1.45-1.47.31-3.65.31-4.93 1 .77.52 2.25.38 3.15.26a56.77 56.77 0 0 0 6.54-1.44z"/></g><path d="m160 96.93c-1.36-1.59-4.52-2.73-6.36-3.69-4.47-2.33-9.29-4.23-14.39-4.35-2.78-.07-5.55.38-8.32.22-2.5-.14-5-.78-7.48-.24-1.37.3-2.66 1-4.06 1.17-2 .31-4.16-.38-6.17.1-1.7.41-3.12 1.6-4.8 2-1.92.52-4 0-5.89.76-1.41.55-2.47 1.73-3.7 2.62-2.9 2.12-7 1.6-9.51 4.14-.7.7-2.56 1.05-1.87 1.77a27.38 27.38 0 0 0 3.49.86c3.78 1.13 6.5.57 10.42.17 2.78-.29 5.6.28 8.38 0a39.08 39.08 0 0 1 5.25-.6 11.9 11.9 0 0 1 2 .28 3.68 3.68 0 0 1 2.4 1.7 4.25 4.25 0 0 0 2 2 4.42 4.42 0 0 0 1.92.16c2.85-.23 5.92-1 8.41.43.86.49 1.57 1.2 2.4 1.72 2.28 1.45 5.16 1.39 7.86 1.28 2-.08 4.45-.39 5.41-2.19.82-1.55.31-3.83 1.76-4.81a3.74 3.74 0 0 1 1.61-.49c1.12-.17 2.58.44 3.37-.51 1.62-2 .79-2.67 3.51-2.63 2.1.1 4.06.08 2.36-1.87z" fill="#ec2044"/><g clip-path="url(#c)"><path d="m100.84 90.22a128.85 128.85 0 0 0 25.38 5.59 17.89 17.89 0 0 0 7.47-.28c1.44-.47 2.76-1.27 4.22-1.67a16.26 16.26 0 0 1 3.56-.41q7.14-.3 14.29-.76c-3.44-2.78-7.84-4.16-11.32-6.88a45.45 45.45 0 0 0 -4-3.21 18 18 0 0 0 -5.78-2 92 92 0 0 0 -13.66-1.82 22.93 22.93 0 0 0 -4.83.09 26.12 26.12 0 0 0 -5.43 1.64c-2.44.93-5 2-6.45 4.19-.77 1.21-1.13 2.69-2.17 3.68" fill="#9e1c4c"/></g><path d="m112.41 90.49a22.47 22.47 0 0 0 4.39 2.05c4.47 1.42 9.32.55 13.9-.45 1-.22 2.27-.63 2.5-1.67-7-3.45-9.54-4.85-17.23-6.29-1.49-.28-12.4-.13-12.4-.13s6.43 5.12 8.84 6.49z" fill="#360"/><path d="m139.74 82.56c-5.55 3.35-11.37 9.09-13.65 11.44l-6.59 2.86c.13.46.42 1 .91 1a1.15 1.15 0 0 0 .33-.1l5.26-2.38a5.77 5.77 0 0 0 2.25.32c5-.81 10.17-1.84 14.07-4.89a23.24 23.24 0 0 0 3.55-3.6c1.81-2.2 6.21-9.51 6.21-9.51s-10.97 4.02-12.34 4.86z" fill="#519600"/><path d="m68.56 103.69c-.22.47-.38 1-.6 1.44a22.61 22.61 0 0 1 -1.25 2 7 7 0 0 0 -1.29 4c.09 1.74 1.15 3.27 2.17 4.69l1.57 2.18a5.16 5.16 0 0 0 1.22 1.33 5.06 5.06 0 0 0 1.48.6l3.36 1a6.32 6.32 0 0 0 2.43.35 9.21 9.21 0 0 0 3.18-1.55c1.56-.88 3.42-1.31 4.74-2.53 1.68-1.54 2.11-4 2.45-6.22a18.63 18.63 0 0 0 .29-5.47 6.28 6.28 0 0 0 -2.72-4.51c-.8-.48-1.73-.71-2.52-1.19a12 12 0 0 0 -1.94-1.23 4.46 4.46 0 0 0 -2-.15c-3.7.27-8.83 1.49-10.57 5.26z" fill="#824646"/><path d="m153.42 119.22c-.47-.22-1-.39-1.44-.61a19.43 19.43 0 0 1 -2-1.25 7 7 0 0 0 -4-1.28c-1.74.08-3.27 1.14-4.69 2.16l-2.18 1.57a3.87 3.87 0 0 0 -1.93 2.7l-1 3.36a6.35 6.35 0 0 0 -.35 2.43 9.21 9.21 0 0 0 1.55 3.18c.88 1.57 1.31 3.42 2.53 4.74 1.54 1.68 4 2.11 6.22 2.46a18.63 18.63 0 0 0 5.47.28 6.28 6.28 0 0 0 4.56-2.72c.48-.8.71-1.72 1.19-2.52a11.88 11.88 0 0 0 1.23-1.93 4.52 4.52 0 0 0 .15-2c-.32-3.7-1.54-8.79-5.31-10.57z" fill="#824646"/><path d="m150.91 127.11a2.48 2.48 0 0 1 -1.54.86 11 11 0 0 0 -2.51.81 2.73 2.73 0 0 0 -1.53 2 1.36 1.36 0 0 1 -.17.78 1 1 0 0 1 -.69.25 17.82 17.82 0 0 1 -2.19.08 1.51 1.51 0 0 0 .79 1.55c1.44 1 3.39.65 5-.08a5 5 0 0 1 2.25-.71c.82 0 1.55.55 2.36.59a2.87 2.87 0 0 0 2.57-1.78 8.52 8.52 0 0 0 .55-3.25c.06-1.49-.8-1.3-1.8-1.94a14.11 14.11 0 0 1 -2-2.2c-2.1-2.07-.41 2.03-1.09 3.04z" fill="#5e3434"/><path d="m138.93 122.38a4.91 4.91 0 0 0 -.46 3.73c.06.29.18.62.46.7s.61-.21.82-.47a17 17 0 0 1 3.35-3.16 3.59 3.59 0 0 0 1.17-1.12c.7-1.31-1-1.83-2-1.85a4.47 4.47 0 0 0 -3.34 2.17z" fill="#935650"/><path d="m205.79 121.5c.37-.17 0-.66-.38-.83a42.21 42.21 0 0 0 -6.24-2.37 11.45 11.45 0 0 0 -4.91-.6c-1.89.3-3.47 1.4-5.15 2.22a14.25 14.25 0 0 1 -4.27 1.33c-1.5.21-3.05.11-4.57.21a7.63 7.63 0 0 0 -4.23 1.32c-.34.26-.63.57-1 .82a9.64 9.64 0 0 1 -2.89 1.2c-4.53 1.45-8.43 4.09-12.25 6.69a16 16 0 0 0 -2.82 2.26 87.79 87.79 0 0 0 10.26-.13c10.83-.54 21.89-1.14 31.9-4.77a12.68 12.68 0 0 0 4.56-2.48 5.41 5.41 0 0 0 1.11-1.5" fill="#ec2044"/><path d="m47.56 118.59a1.47 1.47 0 0 1 1.85-1.36c4.88 1.19 10.2.16 15.23 1 2.45.39 4.83 1.21 7.31 1.34a35.09 35.09 0 0 1 4.59.17 17.61 17.61 0 0 1 4.17 1.6 48 48 0 0 0 16.49 4.32c2.67.21 5.36.2 8 .34a155.85 155.85 0 0 1 15.51 2 49.31 49.31 0 0 1 6.33 1.39c1.45.42 3.26 1 3.87 2.51a3.52 3.52 0 0 1 -1 3.66 10.34 10.34 0 0 1 -3.44 2l-15.46 6.54c-5.37 2.27-11 4.59-16.79 4.28a29.65 29.65 0 0 1 -9-2.16c-10-3.78-18.86-9.92-27.63-16-4.33-3-9-6.47-10.12-11.61z" fill="#ec2044"/><path d="m202.2 120c-3.26 2.37-7.17 3.65-11.06 4.71-25.55 7-52.53 6-79 4.29-16.63-1.07-33.34-2.43-49.5-6.52-7.44-1.88-15.28-4.73-19.6-11.07a8.81 8.81 0 0 1 -.88-1.59c6 17.57 16 34 32.39 42.67 8.69 4.62 18.54 6.57 28.27 8.09 15.27 2.38 30.83 3.86 46.18 2s30.56-7.26 42.28-17.34 16.83-24.82 16.83-35.27c.04 4.03-2.66 7.66-5.91 10.03z" fill="#003d32"/><path d="m68.33 107.7a3 3 0 0 0 -.63 2.67c.14.37.4.68.54 1a7.11 7.11 0 0 1 .19 1.73 5.24 5.24 0 0 0 2 3.28 4.26 4.26 0 0 0 2.17 1.06c.81.09 1.63-.18 2.45-.09a15.21 15.21 0 0 1 2.34.76 2 2 0 0 0 2.21-.61 2.11 2.11 0 0 0 -.39-2.14 1.16 1.16 0 0 0 -.35-.38c-.43-.25-.95.07-1.42.24a3.26 3.26 0 0 1 -3.32-1 9.24 9.24 0 0 1 -1.76-3.53c-.3-.89-.59-1.78-.83-2.69-.12-.45-.21-2.47-.51-2.71-.81-.64-2.26 1.8-2.69 2.41z" fill="#5e3434"/><path d="m78.81 107.05c.32.8.8 1.68 1.65 1.87a.36.36 0 0 0 .27 0 .51.51 0 0 0 .2-.37 10.11 10.11 0 0 0 .15-2.33 3 3 0 0 1 .11-1.41c.3-.67 1.11-1 1.09-1.86 0-1-1-1.44-1.86-1.57a10.25 10.25 0 0 0 -4.47.43c-1 .38-1.74 1.11-.87 2.14.61.74 1.57.53 2.32 1a3.89 3.89 0 0 1 1.41 2.1z" fill="#935650"/><path d="m134.2 102.15a10.77 10.77 0 0 0 1.13 1 4.8 4.8 0 0 0 2.07.62c1.4.18 2.82.27 4.23.35a3 3 0 0 0 1.76-.24.47.47 0 0 0 .26-.33c0-.19-.18-.32-.34-.41l-3-1.69a3.2 3.2 0 0 0 -1.64-.56 12.14 12.14 0 0 0 -1.29.32 6 6 0 0 1 -3.13-.82 8.89 8.89 0 0 0 -5-.63c.36.66 1.56.68 2.25.92a7.44 7.44 0 0 1 2.7 1.47z" fill="#ff2453"/><path d="m101 98.15a5.18 5.18 0 0 0 3.45.62c.75-.14 1.47-.44 2.23-.53 1.55-.17 3 .57 4.61.64.25 0 .61-.16.48-.38a.33.33 0 0 0 -.14-.12 10.72 10.72 0 0 0 -3.59-1.28c-1.33-.23-2.69.17-4 0-.72-.12-1.31-.79-2-.79-.96-.04-2.23 1.14-1.04 1.84z" fill="#ff2453"/><path d="m149.72 97.6a3.26 3.26 0 0 0 1.08 0l2.17-.22a2.29 2.29 0 0 0 .82-.19.77.77 0 0 0 .46-.67 1 1 0 0 0 -.25-.52c-.49-.68-.51-1.12-1.26-1.49-.65 1.32-4.83 1.48-5.92 2.21-.5.13-1.45 0-1.53.09s2.93.46 4.43.79z" fill="#ff2453"/></svg>