<svg id="Artwork_-_Primary" data-name="Artwork - Primary" xmlns="http://www.w3.org/2000/svg" xmlns:xlink="http://www.w3.org/1999/xlink" viewBox="0 0 250 250"><defs><style>.cls-1{fill:none;}.cls-2{fill:#efefef;}.cls-3{fill:#116572;}.cls-4{fill:#0c4f60;}.cls-5{clip-path:url(#clip-path);}.cls-6{fill:#0b4654;}.cls-7{fill:#72c900;}.cls-8{fill:#fff5ca;}.cls-9{clip-path:url(#clip-path-2);}.cls-10{fill:#f2dcb1;}.cls-11{fill:#f2b814;}.cls-12{fill:#ffc513;}.cls-13{fill:#ffd95f;}.cls-14{fill:#003d32;}.cls-15{clip-path:url(#clip-path-3);}.cls-16{fill:#ec2044;}.cls-17{clip-path:url(#clip-path-4);}.cls-18{fill:#c11e49;}.cls-19{fill:#ffa300;}.cls-20{fill:#ea301c;}.cls-21{clip-path:url(#clip-path-5);}.cls-22{fill:#ff6243;}.cls-23{clip-path:url(#clip-path-6);}.cls-24{fill:#ffa192;}</style><clipPath id="clip-path"><path class="cls-1" d="M32.71,112.94l126-24.55a22,22,0,0,1,6.15-.6,21.89,21.89,0,0,1,4.36,1c18.41,5.6,37.24,11.42,52.61,23-6.29,3.9-13.44,6.16-20.51,8.34-38.7,11.92-77.8,22.65-117.41,31.06a16.44,16.44,0,0,1-4.87.53,15.57,15.57,0,0,1-4.64-1.41,125.55,125.55,0,0,1-47.22-35.47Z"/></clipPath><clipPath id="clip-path-2"><path class="cls-1" d="M143.38,105.29c3.59,2.88,5.62,7.9,10,9.24,1.65.5,3.44.4,5,1a18,18,0,0,1,3.48,2.13c3.6,2.42,9.94,4.21,12.27,4.09s10.65-6.92,12.7-10.74-.35-8.09-2.61-11.79c-2.5-4.08-7.08-4.69-10.56-8-2.41-2.29-4.3-5.17-7.07-7a24.52,24.52,0,0,0-6.43-2.66A27.1,27.1,0,0,0,154,80.21c-5.82-.34-13.1,2.44-15.42,7.76-.91,2.11-.22,6.3-.44,8.57C137.76,101,140.22,102.74,143.38,105.29Z"/></clipPath><clipPath id="clip-path-3"><path class="cls-1" d="M104.8,112.84c3.58,2.89,5.62,7.9,10,9.24,1.64.5,3.44.4,5.05,1a17.9,17.9,0,0,1,3.48,2.14c3.6,2.41,9.83,3.15,12.15,3s10.76-5.86,12.81-9.68-.34-8.09-2.6-11.78c-2.5-4.09-7.08-4.7-10.56-8-2.42-2.28-4.3-5.17-7.07-7a24.14,24.14,0,0,0-6.44-2.67,27.44,27.44,0,0,0-6.18-1.36c-5.82-.34-13.1,2.44-15.42,7.77-.92,2.1-.22,6.3-.44,8.56C99.18,108.57,101.63,110.3,104.8,112.84Z"/></clipPath><clipPath id="clip-path-4"><path class="cls-1" d="M102.12,89.66a6.2,6.2,0,0,0,2.75,4A42,42,0,0,0,109.24,96c9.46,5.12,14.2,16.35,23.36,22,3.22,2,7.1,3.21,10.81,2.48s7.11-3.77,7.4-7.55a14.38,14.38,0,0,0-1.15-5.78,28.92,28.92,0,0,0-2.75-6.29,27.74,27.74,0,0,0-6.3-6.31c-3-2.43-6.09-4.81-9.18-7.14A26.42,26.42,0,0,0,126,84a26.38,26.38,0,0,0-5-1.36c-4.31-.89-9-1.7-13,.22C105.8,84,101.71,86.84,102.12,89.66Z"/></clipPath><clipPath id="clip-path-5"><path class="cls-1" d="M67.7,122.34c3.59,2.89,5.62,7.9,10,9.24,1.65.5,3.45.4,5.06,1a18.32,18.32,0,0,1,3.47,2.14c3.6,2.41,9.94,4.21,12.27,4.08s10.65-6.92,12.7-10.74-.35-8.08-2.61-11.78c-2.49-4.08-7.08-4.7-10.55-8-2.42-2.29-4.31-5.18-7.08-7a23.86,23.86,0,0,0-6.43-2.66,26.47,26.47,0,0,0-6.19-1.36C72.54,96.93,65.26,99.7,63,105c-.92,2.11-.23,6.3-.44,8.56C62.08,118.08,64.54,119.8,67.7,122.34Z"/></clipPath><clipPath id="clip-path-6"><path class="cls-1" d="M74.52,108a112.63,112.63,0,0,0,11.25,7.79,66.46,66.46,0,0,1,5.75,3.42,32.11,32.11,0,0,1,4.71,4.32,62.93,62.93,0,0,1,5.82,7.4c.8,1.21,1.67,2.53,3.06,3a4.71,4.71,0,0,0,2.24,0,7.58,7.58,0,0,0,2.54-1,8.14,8.14,0,0,0,3.49-6.52,16.8,16.8,0,0,0-1.66-7.44A37.82,37.82,0,0,0,85.25,97.21a52.42,52.42,0,0,0-7.18-.93C74.45,96,70.63,96,67.22,97.4c-.77.32-4,1.63-2.71,2.59,1.55,1.15,3,2.45,4.49,3.69C70.8,105.16,72.66,106.56,74.52,108Z"/></clipPath></defs><path class="cls-2" d="M58.2,140.77l-12.44,4.8s-7.91,2.45-7.88,4,13.74,11.51,16.68,13.66a141.39,141.39,0,0,0,28.37,15.91,10.86,10.86,0,0,0,5,.48C119,177,151.9,163.11,181.86,155c13.08-3.55,37.83-11.22,36.48-13.34s-34.66-22.15-52.08-27.15c-5.42-1.55-8.95,10.8-14.4,9.39-9.9-2.55-20.28-2.46-30.46-1.62-20.29,1.69-40.68,6.47-58.11,17"/><path class="cls-3" d="M166.21,137.56c4.51,3.34,13.29,7.79,18,10.78a12.08,12.08,0,0,1,1.11.85,12.92,12.92,0,0,0,.71-1.18,16.12,16.12,0,0,0,.73-4.79q.28-6,.17-12L171.75,134"/><path class="cls-4" d="M185.35,149.19c2.69-.64,6.24-1.8,6.24-1.8l4.93-2.33c.28-5.76.52-8.95.1-13.27a2,2,0,0,0-.27-1c-.4-.55-1.2-.54-1.86-.47a44.11,44.11,0,0,0-8,1.67,1.64,1.64,0,0,0-1.43,1.63c-.41,2.32.23,4,0,6.3Z"/><path class="cls-3" d="M90.89,158.17q6.77,5,13.88,9.5a10.91,10.91,0,0,1,1.11.84,12.92,12.92,0,0,0,.71-1.18,16.08,16.08,0,0,0,.73-4.79q.29-6,.17-12l-15.21,2.8"/><path class="cls-4" d="M27.21,114.84c.1,3.51.49,6.92.59,10.43a13.27,13.27,0,0,0,.12,3.11,16.51,16.51,0,0,0,2.89,2.94Q48,145.78,66.14,159A19.82,19.82,0,0,0,72,162.37c3.2,1,6.64.33,9.92-.33,16.47-3.31,32.88-6.94,49.17-11a799.05,799.05,0,0,0,91.05-28.15c.7-3.1,1.09-10.48-.29-11.06a67,67,0,0,0-12.08-3.91c-9.4-1.84-19-2-28.61-2a871.15,871.15,0,0,0-115,7.6"/><path class="cls-3" d="M32.71,112.94l126-24.55a22,22,0,0,1,6.15-.6,21.89,21.89,0,0,1,4.36,1c18.41,5.6,37.24,11.42,52.61,23-6.29,3.9-13.44,6.16-20.51,8.34-38.7,11.92-77.8,22.65-117.41,31.06a16.44,16.44,0,0,1-4.87.53,15.57,15.57,0,0,1-4.64-1.41,125.55,125.55,0,0,1-47.22-35.47Z"/><g class="cls-5"><path class="cls-6" d="M63.12,113.5a12.44,12.44,0,0,0-5.35,1c-1.62.83-2.91,2.64-2.53,4.42.3,1.44,1.52,2.47,2.67,3.38l9.22,7.27c5.92,4.67,12,9.43,19.14,11.83s15.71,2,21.44-2.9a3.07,3.07,0,0,0,1-1.34c.38-1.26-.78-2.45-1.95-3.05s-2.56-1-3.24-2.15c-1.08-1.77.24-4,1.7-5.49a3.58,3.58,0,0,1,2.7-1.37c1.09.12,1.84,1.11,2.67,1.83a11.66,11.66,0,0,0,5.8,2.29A58,58,0,0,0,148,126a3.69,3.69,0,0,0,1.36-.78c1.44-1.48-.17-3.86-1.7-5.25a2.66,2.66,0,0,1,2.48-1.33,7.26,7.26,0,0,1,2.75.7l4.71,1.91a25.86,25.86,0,0,0,6.68,2c3.48.38,6.93-.67,10.26-1.7a111.89,111.89,0,0,0,11.82-4.16c1.24-.55,2.7-1.61,2.3-2.91a2.42,2.42,0,0,0-.78-1.07,19.13,19.13,0,0,0-4.79-2.86,169,169,0,0,1-20.5-11.62,38.54,38.54,0,0,0-5.35-3.19c-1.08-.49-2.21-.87-3.29-1.35-1.67-.75-3.23-1.73-4.88-2.52a23.88,23.88,0,0,0-15.57-1.69c-10.85,2.55-22.21,2.32-33.35,2.29-8.75,0-17.67-.85-26.12,1.42-1.81.48-3.8,1.31-4.41,3.08-.5,1.45.11,3.13-.45,4.57-.65,1.68-2.71,2.52-3.3,4.23-.43,1.25,0,2.61.12,3.93S64.44,113.46,63.12,113.5Z"/></g><path class="cls-4" d="M105.88,168.51c2.69-.63,6.24-1.8,6.24-1.8l4.93-2.32c.28-5.77.52-8.95.1-13.28a2.13,2.13,0,0,0-.27-1,2,2,0,0,0-1.86-.46,42.3,42.3,0,0,0-8,1.67,2.06,2.06,0,0,0-1,.54,2.16,2.16,0,0,0-.41,1.09c-.41,2.31.23,3.95,0,6.3Z"/><path class="cls-7" d="M193.36,106.87c1.49-1.22,3.26-1.88,4.76-3.09,1-.79,1.82-1.79,2.79-2.6a4.42,4.42,0,0,1,3.27-1.27c2.09.31,3.09,3,4.71,4.43a5.69,5.69,0,0,1,1,1,4.45,4.45,0,0,1,.49,1.16l1.18,3.77a2.18,2.18,0,0,1,.12,1.26,1.93,1.93,0,0,1-.94,1,21.6,21.6,0,0,1-6.73,3.19c-3.3.68-6.56-.39-9.68-1.44-1.37-.47-3.49-.51-3.47-2.54A6.62,6.62,0,0,1,193.36,106.87Z"/><path class="cls-8" d="M143.38,105.29c3.59,2.88,4.64,5,9,6.35,1.65.5,4.42,3.29,6,3.9a18,18,0,0,1,3.48,2.13c3.6,2.42,9.94,4.21,12.27,4.09s10.65-6.92,12.7-10.74-.35-8.09-2.61-11.79c-2.5-4.08-7.08-4.69-10.56-8-2.41-2.29-4.3-5.17-7.07-7a24.52,24.52,0,0,0-6.43-2.66A27.1,27.1,0,0,0,154,80.21c-5.82-.34-13.1,2.44-15.42,7.76-.91,2.11-.22,6.3-.44,8.57C137.76,101,140.22,102.74,143.38,105.29Z"/><g class="cls-9"><path class="cls-10" d="M140.43,78.65a8.65,8.65,0,0,0,1,10.15,16.85,16.85,0,0,0,2.46,2.07q8.79,6.48,17.37,13.25a6.54,6.54,0,0,1,1.29,1.23c.86,1.18.85,2.83,1.68,4,1,1.46,3,1.92,4.24,3.17.73.74,1.19,1.71,1.93,2.43a8.48,8.48,0,0,0,4,1.78l5.09,1.3a4.07,4.07,0,0,0,4.39-.93l6-4.37a8.79,8.79,0,0,0,1.63-1.41,6,6,0,0,0,.85-5.24,30.57,30.57,0,0,0-2.09-5.07c-1.54-3.45-2.39-7.23-4.4-10.42A27.77,27.77,0,0,0,180.77,85c-5-4.47-10.54-8.44-16.94-10.3s-13.73-1.36-19.16,2.51"/></g><path class="cls-11" d="M140.88,79.58a5,5,0,0,0,1.38,5.48c4,4,9.11,6.82,13.44,10.52,2.48,2.12,4.7,4.54,7.29,6.52a46.25,46.25,0,0,1,4,3.16c.91.88,1.69,1.9,2.55,2.84a43.24,43.24,0,0,0,6.28,5.31,2.24,2.24,0,0,0,.87.47,2.27,2.27,0,0,0,1.32-.23,45.05,45.05,0,0,0,7.73-4c2.66-1.74,6.35-4.51,5.64-7.23-2.38-1.42-5.07-3-7.29-4.7-3.31-2.49-6.22-5.47-9.56-7.92-7.08-5.17-15.73-7.67-24.26-9.72-1.34-.32-2.68-.63-4-1.07"/><path class="cls-12" d="M170.65,105a30.68,30.68,0,0,0,3.21,4,6.33,6.33,0,0,0,4.56,2,8.67,8.67,0,0,0,4.13-1.76,93.19,93.19,0,0,0,8.88-6.72,64.15,64.15,0,0,0-19-18.83c-1.84-1.17-3.74-2.26-5.64-3.34L161.3,77.1a13.44,13.44,0,0,0-4.71-1.94,13.56,13.56,0,0,0-4.93.53l-7.56,1.78c-1.08.25-3.39.87-3.22,2.38.11,1,2.14,2.48,2.81,3.12a61,61,0,0,0,6.52,5.37c4.61,3.37,9.51,6.35,13.92,10A41.24,41.24,0,0,1,170.65,105Z"/><path class="cls-13" d="M161.28,89.05a62.64,62.64,0,0,1,13.48,13.23c.9,1.2,2,2.55,3.49,2.51a4.64,4.64,0,0,0,1.76-.55l3.62-1.71a1.19,1.19,0,0,0,.58-.45,1.1,1.1,0,0,0-.09-.93c-2-4.74-6.47-7.85-10.65-10.83q-7.29-5.17-14.22-10.85c-1.25-1-2.78-2.12-4.33-1.69L171.4,91.37c3.27,2.7,6.58,5.43,9.06,8.87a.88.88,0,0,1,.2.41.81.81,0,0,1-.47.72,3.46,3.46,0,0,1-3.41-.1,10.35,10.35,0,0,1-2.66-2.37A74.82,74.82,0,0,0,165.26,90c-3.74-3-8.1-5.31-11.27-8.92-.65-.74-1.74-2.21-2.8-1.3-1.23,1.06.23,2.29,1,2.93C155.08,85,158.28,86.89,161.28,89.05Z"/><path class="cls-14" d="M151.05,91.68a2.46,2.46,0,0,1,.34-.82,2.62,2.62,0,0,1,.82-.61A74.13,74.13,0,0,1,165,85.38l3.38-1c1.72-.53,3.81-2.06,5.27-1,1.25.89,3.52,1.71,3.67,2.78s-7.9,2.22-12.34,3.53c-2.47.73-4.87,1.68-7.27,2.63a4.55,4.55,0,0,0-1.92,1.19,4.2,4.2,0,0,0-.67,1.58c-1.34,5.17-1.57,10.56-2,15.88-.06.63-.19,1.38-.76,1.67a2,2,0,0,1-1.72-.31c-1.36-.74-3.07-1.19-3-3a48.17,48.17,0,0,1,.84-6A110.75,110.75,0,0,1,151.05,91.68Z"/><path class="cls-10" d="M138.37,90.66a7.15,7.15,0,0,0,1.93,2.9.3.3,0,0,0,.17.08c.17,0,.26-.19.29-.35a8.42,8.42,0,0,0-.45-3.84c-.23-.8-.56-3.39-1.94-2.67S137.93,89.69,138.37,90.66Z"/><path class="cls-10" d="M159.87,114.72a4.42,4.42,0,0,0,2.65,1.52,3.61,3.61,0,0,0-.83-2c-.4-.56-1.74-3-2.63-2.54S159.46,114.22,159.87,114.72Z"/><path class="cls-8" d="M104.8,112.84c3.58,2.89,5.62,7.9,10,9.24,1.64.5,3.44.4,5.05,1a17.9,17.9,0,0,1,3.48,2.14c3.6,2.41,9.83,3.15,12.15,3s10.76-5.86,12.81-9.68-.34-8.09-2.6-11.78c-2.5-4.09-7.08-4.7-10.56-8-2.42-2.28-4.3-5.17-7.07-7a24.14,24.14,0,0,0-6.44-2.67,27.44,27.44,0,0,0-6.18-1.36c-5.82-.34-13.1,2.44-15.42,7.77-.92,2.1-.22,6.3-.44,8.56C99.18,108.57,101.63,110.3,104.8,112.84Z"/><path class="cls-10" d="M118.07,113.37c-.32,0-.49.4-.58.72a7.33,7.33,0,0,0,.08,4c.28.88,1,1.84,1.88,1.66a1.44,1.44,0,0,0,1-1.3,3.8,3.8,0,0,0-.34-1.75A24.72,24.72,0,0,0,119,114a1.1,1.1,0,0,0-.49-.57c-.24-.1-.59,0-.57.3"/><g class="cls-15"><path class="cls-10" d="M102.12,85.82a8.64,8.64,0,0,0,.8,10.16,17.43,17.43,0,0,0,2.43,2.11q8.69,6.61,17.16,13.51a6.28,6.28,0,0,1,1.28,1.24c.84,1.2.8,2.85,1.62,4.06,1,1.48,3,2,4.19,3.24.72.74,1.16,1.72,1.9,2.45a8.49,8.49,0,0,0,3.92,1.85l5.07,1.37a5.59,5.59,0,0,0,2,.29A5.48,5.48,0,0,0,144.9,125l6.1-4.28a8.88,8.88,0,0,0,1.66-1.39,6.07,6.07,0,0,0,.93-5.22,31,31,0,0,0-2-5.11c-1.48-3.47-2.27-7.25-4.24-10.48a27.72,27.72,0,0,0-5-5.73c-4.88-4.54-10.41-8.6-16.78-10.55s-13.71-1.57-19.19,2.21"/></g><path class="cls-16" d="M102.12,89.66a6.2,6.2,0,0,0,2.75,4A42,42,0,0,0,109.24,96c9.46,5.12,14.2,16.35,23.36,22,3.22,2,7.1,3.21,10.81,2.48s7.11-3.77,7.4-7.55a14.38,14.38,0,0,0-1.15-5.78,28.92,28.92,0,0,0-2.75-6.29,27.74,27.74,0,0,0-6.3-6.31c-3-2.43-6.09-4.81-9.18-7.14A26.42,26.42,0,0,0,126,84a26.38,26.38,0,0,0-5-1.36c-4.31-.89-9-1.7-13,.22C105.8,84,101.71,86.84,102.12,89.66Z"/><g class="cls-17"><path class="cls-18" d="M99.8,84.51c4,4.5,10,6.73,14.8,10.36,7.32,5.48,11.86,14,19,19.73a9.07,9.07,0,0,0,3.94,2.11c1.94.35,3.88-.41,5.71-1.16l11-4.5a1.81,1.81,0,0,1,.79-.2c.68,0,1.12.73,1.35,1.38,1.12,3.21.06,6.88-2,9.56a22.19,22.19,0,0,1-8.14,6c-3.15,1.5-6.56,2.71-10,2.48-3.8-.25-7.29-2.19-10.34-4.47a45.62,45.62,0,0,1-13.62-16.42,27.82,27.82,0,0,0-2.4-4.43,6.64,6.64,0,0,0-4.05-2.8c-2-.37-4.22.61-6.21,0a7,7,0,0,1-3.22-2.45,24.55,24.55,0,0,1-5.67-14.41"/><path class="cls-18" d="M139.14,105.48c4.31-1.49,8.73-2.64,13.15-3.78-.07,1.07-1.3,1.61-2.33,1.92a165.46,165.46,0,0,0-16.8,6.14,7.87,7.87,0,0,0-2.32,1.33c-1.35,1.26-1.84,3.82-3.34,4.78-.37-1.69,1.19-4.17,2.33-5.3a17.53,17.53,0,0,1,4.45-3.08C135.5,106.87,137.75,105.44,139.14,105.48Z"/><path class="cls-18" d="M127.49,99.26a59.19,59.19,0,0,1,10.93-3.88,13.93,13.93,0,0,1,6.27-.77L132.58,99c-1.71.62-3.43,1.25-5.08,2-1.44.68-3.07,2.41-4.48,2.84-1.8.56-1-1,0-1.78A24.41,24.41,0,0,1,127.49,99.26Z"/><path class="cls-18" d="M130.64,88a4.11,4.11,0,0,1,3.23-.21,54,54,0,0,1-9.73,4.65c-1.8.65-3.64,1.22-5.36,2s-2.71,2.09-4.14,2.87C112.85,93.84,128.26,88.86,130.64,88Z"/><path class="cls-18" d="M120.89,81.62c.4-.17,1.09-.13,1,.3a.58.58,0,0,1-.22.32,13.59,13.59,0,0,1-3.09,1.9,57.58,57.58,0,0,0-12.92,8.14c-2-1.7,4.78-5.16,6-5.93A72.87,72.87,0,0,1,120.89,81.62Z"/></g><path class="cls-10" d="M107.53,117.67c.18.28.39.59.7.66,2.37.6,0-8-2.36-8.87C101.92,108.1,106.7,116.4,107.53,117.67Z"/><path class="cls-19" d="M122.31,89.09A2.33,2.33,0,0,0,123.63,91a3.84,3.84,0,0,0,2.39.27,1.34,1.34,0,0,0,.75-.32,1.31,1.31,0,0,0,.34-.71c.27-1.35-.41-3.52-1.86-4C123.64,85.7,122.27,87.64,122.31,89.09Z"/><path class="cls-19" d="M120.44,93a2.33,2.33,0,0,0,1.32,1.92,3.92,3.92,0,0,0,2.39.27,1.45,1.45,0,0,0,.75-.32,1.31,1.31,0,0,0,.34-.71c.27-1.36-.41-3.52-1.86-4C121.77,89.59,120.4,91.52,120.44,93Z"/><path class="cls-19" d="M128,91.82a2.33,2.33,0,0,0,1.32,1.92,3.92,3.92,0,0,0,2.39.27,1.45,1.45,0,0,0,.76-.32,1.3,1.3,0,0,0,.33-.71c.27-1.36-.41-3.52-1.86-4S127.94,90.36,128,91.82Z"/><path class="cls-19" d="M131.88,95.9a2.33,2.33,0,0,0,1.32,1.93,3.94,3.94,0,0,0,2.4.26,1.36,1.36,0,0,0,.75-.31,1.3,1.3,0,0,0,.33-.71c.27-1.36-.41-3.52-1.86-4S131.84,94.45,131.88,95.9Z"/><path class="cls-19" d="M126.66,93.42a2.3,2.3,0,0,0-.69,2.23,3.85,3.85,0,0,0,1.26,2,1.33,1.33,0,0,0,.72.4,1.23,1.23,0,0,0,.76-.18c1.23-.62,2.52-2.49,2-3.94S127.78,92.49,126.66,93.42Z"/><path class="cls-10" d="M98.29,97.87c-.31,1.78.65,3.51,1.58,5.06.4.67.95,1.43,1.73,1.41a1.48,1.48,0,0,0,1.29-1.37,3.65,3.65,0,0,0-.48-2C102,100,98.88,94.56,98.29,97.87Z"/><path class="cls-20" d="M61.14,100.43a65.61,65.61,0,0,0,13,2.59l-3-5.48c-1.11-2-2.22-4-3.43-6a69.25,69.25,0,0,0-8.61-11.19,32.41,32.41,0,0,0,1.61,9c1.15,3,3.17,5.65,4.27,8.69q-3.51-2-7.12-3.83a18.17,18.17,0,0,0-3.2-1.33l-5.37-1.41s3.28,4,3.91,4.53A24.38,24.38,0,0,0,61.14,100.43Z"/><path class="cls-8" d="M67.7,122.34c3.59,2.89,5.62,7.9,10,9.24,1.65.5,3.45.4,5.06,1a18.32,18.32,0,0,1,3.47,2.14c3.6,2.41,9.94,4.21,12.27,4.08s10.65-6.92,12.7-10.74-.35-8.08-2.61-11.78c-2.49-4.08-7.08-4.7-10.55-8-2.42-2.29-4.31-5.18-7.08-7a23.86,23.86,0,0,0-6.43-2.66,26.47,26.47,0,0,0-6.19-1.36C72.54,96.93,65.26,99.7,63,105c-.92,2.11-.23,6.3-.44,8.56C62.08,118.08,64.54,119.8,67.7,122.34Z"/><path class="cls-10" d="M65.49,111.2c-.32,1.78.65,3.51,1.57,5.06.4.67,1,1.43,1.74,1.41a1.49,1.49,0,0,0,1.29-1.37,3.65,3.65,0,0,0-.48-2C69.14,113.37,66.07,107.89,65.49,111.2Z"/><path class="cls-10" d="M72.45,124.18c-.32,0-.49.4-.58.72a7.36,7.36,0,0,0,.08,4c.28.87,1,1.83,1.88,1.66a1.46,1.46,0,0,0,1-1.31,3.8,3.8,0,0,0-.34-1.75,25.6,25.6,0,0,0-1.19-2.69,1.1,1.1,0,0,0-.49-.57c-.24-.1-.59,0-.57.31"/><g class="cls-21"><path class="cls-10" d="M67,95.53a8.65,8.65,0,0,0,1,10.15,16.93,16.93,0,0,0,2.47,2.07Q79.21,114.22,87.8,121a6.84,6.84,0,0,1,1.3,1.22c.86,1.19.85,2.83,1.68,4,1,1.46,3,1.91,4.25,3.16.73.73,1.19,1.7,1.93,2.42a8.52,8.52,0,0,0,4,1.78l5.09,1.29a4.06,4.06,0,0,0,4.39-.93l6-4.38a8.59,8.59,0,0,0,1.64-1.42,6,6,0,0,0,.84-5.24,31,31,0,0,0-2.1-5.07c-1.54-3.45-2.4-7.22-4.41-10.41a27.82,27.82,0,0,0-5.08-5.65c-4.95-4.46-10.55-8.42-16.95-10.27s-13.73-1.34-19.16,2.54"/></g><path class="cls-22" d="M74.52,108a112.63,112.63,0,0,0,11.25,7.79,66.46,66.46,0,0,1,5.75,3.42,32.11,32.11,0,0,1,4.71,4.32,62.93,62.93,0,0,1,5.82,7.4c.8,1.21,1.67,2.53,3.06,3a4.71,4.71,0,0,0,2.24,0,7.58,7.58,0,0,0,2.54-1,8.14,8.14,0,0,0,3.49-6.52,16.8,16.8,0,0,0-1.66-7.44A37.82,37.82,0,0,0,85.25,97.21a52.42,52.42,0,0,0-7.18-.93C74.45,96,70.63,96,67.22,97.4c-.77.32-4,1.63-2.71,2.59,1.55,1.15,3,2.45,4.49,3.69C70.8,105.16,72.66,106.56,74.52,108Z"/><g class="cls-23"><path class="cls-24" d="M74,100a4.21,4.21,0,0,0,1.76-1c1-1.1.61-2.86,1.13-4.26a1.39,1.39,0,0,1,.92-1,2.44,2.44,0,0,1,1.25.27c1,.33,2.23.28,2.75,1.16a2.58,2.58,0,0,1,0,2l-1,3.42A56.49,56.49,0,0,0,70.3,105c-1,.52-2.19,1.18-3.3.63a1.48,1.48,0,0,1-.53-2.39,6.49,6.49,0,0,1,3.16-1.71Z"/><path class="cls-24" d="M81.72,105.68a6.45,6.45,0,0,0,3.45-2.05,7.43,7.43,0,0,0,.9-2.75,24.92,24.92,0,0,1,1.45-4.61c.12-.26.28-.56.56-.6a.81.81,0,0,1,.57.18L92,97.9a1.22,1.22,0,0,1,.73,1.68l-1.5,5.68a4.9,4.9,0,0,1-.61,1.58c-.86,1.23-2.56,1.41-4,1.63a23.69,23.69,0,0,0-6,1.67,19.71,19.71,0,0,1-3,1.18A4.34,4.34,0,0,1,74.4,111c-.56-.33-1.49-1.35-1.28-2.1s1.44-.83,2.08-1Z"/><path class="cls-24" d="M93.52,112.2a8.11,8.11,0,0,0,2.33-1.44c1.23-1.2,1.65-3,2.11-4.64.35-1.24.74-2.47,1.18-3.68.1-.26.26-.57.54-.58a.73.73,0,0,1,.39.15,25.62,25.62,0,0,1,4.29,3.48,2.25,2.25,0,0,1,.51,2.93l-1.77,5.34a1.87,1.87,0,0,1-.33.68,1.84,1.84,0,0,1-.75.45l-6.33,2.58a48.84,48.84,0,0,1-8,2.74,3.79,3.79,0,0,1-2.76-.15,4.05,4.05,0,0,1-1.26-1.43c-.44-.7-1.47-1.89-.73-2.58s2.62-.78,3.5-1.06A60,60,0,0,0,93.52,112.2Z"/><path class="cls-24" d="M92.65,125.76l2.47.08a34.62,34.62,0,0,0,6.11-.16c1-.14,2-.37,2.93-.59l3-.71a2.77,2.77,0,0,0,1.39-.6,3,3,0,0,0,.65-1.91,39.63,39.63,0,0,1,1.5-7.32.7.7,0,0,1,.22-.37.64.64,0,0,1,.47,0,14.21,14.21,0,0,1,4,1.73,3.18,3.18,0,0,1,1.09,1c.57,1,.11,2.19-.39,3.19a89,89,0,0,1-4.54,7.71,4.44,4.44,0,0,1-1,1.18,3.85,3.85,0,0,1-1.08.52,27.56,27.56,0,0,1-8,1,11.39,11.39,0,0,1-5.66-.79,11.16,11.16,0,0,1-2-1.47l-2.39-2"/></g><path class="cls-10" d="M79.76,121.25a3.79,3.79,0,0,0,2-.54.8.8,0,0,0,.22-.23c.15-.27,0-.61-.29-.79a2.83,2.83,0,0,0-1.74-.4c-.8,0-3.39-.11-3.7.89C75.89,121.36,79.11,121.27,79.76,121.25Z"/><path class="cls-10" d="M86,134.6a5.65,5.65,0,0,0,1.76,2.18c.14.12.34.23.49.12a.4.4,0,0,0,.13-.18,1.86,1.86,0,0,0,.14-.78,3.66,3.66,0,0,0-.23-1c-.27-.8-.58-1.58-.92-2.35s-.94-1.6-1.49-.63A3.4,3.4,0,0,0,86,134.6Z"/></svg>