<svg id="Artwork_-_Primary" data-name="Artwork - Primary" xmlns="http://www.w3.org/2000/svg" viewBox="0 0 250 250"><defs><style>.cls-1{fill:none}.cls-2{fill:#efefef}.cls-3{fill:#0c4f60}.cls-4{fill:#519600}.cls-5{fill:#67ad39}.cls-6{fill:#3e6d00}.cls-7{fill:#7acc46}.cls-8{fill:#85db4d}.cls-9{fill:#c4e8dd}.cls-10{fill:#cc89a7}.cls-11{fill:#9e1c4c}.cls-12{fill:#681436}.cls-13{fill:#af6461}.cls-14{fill:#6b3d3b}.cls-15{fill:#d37676}.cls-16{fill:#a3653b}.cls-17{fill:#965e38}.cls-18{fill:#845331}.cls-19{fill:#bc7742}.cls-20{fill:#c6173d}.cls-21{fill:#ec2044}.cls-22{clip-path:url(#clip-path)}.cls-23{fill:#ff4363}.cls-24{fill:#ffc513}.cls-25{clip-path:url(#clip-path-2)}.cls-26{clip-path:url(#clip-path-3)}.cls-27{fill:#116572}.cls-28{fill:#fff5ca}</style><clipPath id="clip-path"><path class="cls-1" d="M70.39 146.2a318.85 318.85 0 0 0-27.8-35.07c-3 3.63-6.15 7.84-6.09 12.57a21 21 0 0 0 1.38 6.38 43.23 43.23 0 0 0 3.95 8.92 20.8 20.8 0 0 0 6.9 7.06c5.87 3.49 15.63 2.85 21.66.11"/></clipPath><clipPath id="clip-path-2"><path class="cls-1" d="M103.78 110.23a4.64 4.64 0 0 1 4.88-3.22l12.86-.74a.69.69 0 0 1 .87.86c0 2.16.86 6.16-.51 8-.83 1.12-7.21 5.28-10.66 6.37a32.68 32.68 0 0 1-6.63 1.44c-1.38.13-5.36.59-6.44-.54s1.42-4.29 2-5.39z"/></clipPath><clipPath id="clip-path-3"><path class="cls-1" d="M80 151.35a260.83 260.83 0 0 1 31.45-15.13c1 3.32 1.91 7.08.34 10.22a15.73 15.73 0 0 1-3.06 3.85 33.75 33.75 0 0 1-5.75 4.8 17.2 17.2 0 0 1-7.28 2.66c-5.37.58-12.22-2.77-15.7-6.4"/></clipPath></defs><path class="cls-2" d="M52.55 169.6a2.48 2.48 0 0 1 .86.39 30.11 30.11 0 0 0 7.88 3.49c36 11.72 75.47 14.27 111.83 3.73 6.72-2 13.4-4.38 19.11-8.45a4.15 4.15 0 0 0 1.44-1.72c.75-1.77-.25-2.82-1.33-3.62a26.82 26.82 0 0 0-9.21-4.31c-12.94-3.39-26.36-4.11-39.63-5.23-12.27-1-24.54-1.89-36.84-2.3-13.36-.45-26.89-.35-39.92 2.64-3.92.9-7.87 2.11-11.08 4.54a13.14 13.14 0 0 0-5.07 7.79 2.64 2.64 0 0 0 2 3z"/><path class="cls-3" d="M209.33 125.41zm-.11-4.99a16.18 16.18 0 0 0-3.84-6.21c-12.41-13.91-30.84-21-49.11-24.69A183.81 183.81 0 0 0 45 101.83c-5 2.25-10.24 5-12.86 9.85a14.48 14.48 0 0 0-1.62 8 20.89 20.89 0 0 0 5 11.9c10.36 12.07 32.94 19.35 48.5 20.27 19.81 1.18 39.61 2.95 59.47 1.76a185.14 185.14 0 0 0 34.33-5.11c11.09-2.79 22.64-7.39 28.86-17a18 18 0 0 0 2.58-6 .36.36 0 0 0 0-.1 10.75 10.75 0 0 0-.04-4.98z"/><path class="cls-4" d="M104.63 140.45a80 80 0 0 1-20.38-12.65c-5.1-4.35-9.94-10-9.9-16.76 0-.73.19-1.62.89-1.84a1.89 1.89 0 0 1 1.54.47l3.47 2.33c-4-4.92-5.45-11.41-6.36-17.68-.73-5-1.16-10.27 1-14.8a4.69 4.69 0 0 1 2.64-2.72c1.84-.54 3.65.89 4.89 2.36 5.87 7 7.26 16.79 12.38 24.36-.17-5.51-.2-11.49 3.09-15.92 1-1.35 2.54-2.58 4.19-2.26s2.63 2 3.31 3.59a63.86 63.86 0 0 1 4.92 18.61 16.44 16.44 0 0 1 5.7-5.45 2.27 2.27 0 0 1 1.29-.41c.88.07 1.41 1 1.64 1.86 1.44 5.41-2.61 10.84-2.4 16.43 3.4.72 6.66-2.94 10-2.07a2.27 2.27 0 0 1 1.16.65 2.92 2.92 0 0 1 .58 1.53 18.77 18.77 0 0 1-10 19.27c-2.09 1-4.65 1.63-6.7.52"/><path class="cls-5" d="M119.24 132.31a13.28 13.28 0 0 0-.6-7.71A64.11 64.11 0 0 1 115 93.42c.48-3.63 1.42-7.48 4.17-9.89 1.34-.13 2.1 1.47 2.46 2.77l2.33 8.38c1.5-1.84 1.89-4.31 2.4-6.62a49.53 49.53 0 0 1 6.91-16.45 15.26 15.26 0 0 1 4.66-5 3.06 3.06 0 0 1 2.27-.44c1.6.38 1.9 2 2 3.41.32 6-1 12-2.26 17.91a24.09 24.09 0 0 1 13.76-14.44c1.14-.45 2.5-.81 3.44.57a2.93 2.93 0 0 1 .41 2.22c-.85 4.47-2.86 8.6-4.85 12.67l-3.06 6.26a49.42 49.42 0 0 1 12.68-5.55 2.87 2.87 0 0 1 2.69.56c1.43 1.27.6 3-.24 4.27a90.62 90.62 0 0 1-9 11.76c1.66 1.06 3.77-.11 5.7-.46a2.59 2.59 0 0 1 1.8.19 2.18 2.18 0 0 1 .83 2.32 6 6 0 0 1-1.24 2.29 64.86 64.86 0 0 1-8.24 9 4.79 4.79 0 0 0-1.71 2.31 21.63 21.63 0 0 0 0 2.28c-.16 1.51-1.44 2.64-2.65 3.56a67.88 67.88 0 0 1-21.45 10.91 11 11 0 0 1-4.57.63 6.06 6.06 0 0 1-5-6.24z"/><path class="cls-4" d="M65.69 134.7a236.79 236.79 0 0 0-24.26-9.84 28.06 28.06 0 0 1-6-2.36 8.19 8.19 0 0 1-3.95-4.84 1.25 1.25 0 0 1 1-1.73c2.6-.87 5.62.4 8.14-.7-3.53-2.83-6.85-6.1-8-10.78a9.91 9.91 0 0 1 .08-4.81 5.54 5.54 0 0 1 1.3-2.43 5.14 5.14 0 0 1 5-1.14 15.08 15.08 0 0 1 4.76 2.57l4.43 3.14a6.23 6.23 0 0 1 .27-2.36A2.11 2.11 0 0 1 50.29 98a1.71 1.71 0 0 1 .78.16 8 8 0 0 1 3.93 4.3L59.52 113c.15.35.4.76.78.71a.89.89 0 0 0 .54-.42 16.63 16.63 0 0 1 2.82-3.29 4.69 4.69 0 0 1 4.06-1.1 4.59 4.59 0 0 1 2.79 2.65 13.65 13.65 0 0 1 .89 3.86l.8 6.16c.9-.59 1.61-1.45 2.53-2a2.55 2.55 0 0 1 3 0 3.21 3.21 0 0 1 .75 2.14c.27 3.51-1.48 10.19-3 14.7a2.48 2.48 0 0 1-3.43 1.44z"/><path class="cls-5" d="M75.77 157c-4.08-2.26-8.12-4.7-11.37-8s-5.66-7.72-5.8-12.37a1.87 1.87 0 0 1 .2-1.08 1.74 1.74 0 0 1 .94-.62c3-1 6.38.32 9.09 2s5.28 3.87 8.41 4.6a34.14 34.14 0 0 1-1-13.19c.18-1.61.86-3.59 2.48-3.75a3.5 3.5 0 0 1 2.78 1.56c4.35 5.13 5.28 12.4 9.19 17.88a1.12 1.12 0 0 0 .79.59c.53 0 .8-.63 1-1.14a12.13 12.13 0 0 1 9.76-8.43 5.13 5.13 0 0 1 2.88.28 4.39 4.39 0 0 1 2.24 3.31 12.77 12.77 0 0 1-.18 4.13l-.91 6a21.3 21.3 0 0 1 12.88-6 2.93 2.93 0 0 1 2.38.52c1 1 .26 2.63-.49 3.8l-3.41 5.3 6.46-1.3a6.32 6.32 0 0 1 2.73-.14 2.13 2.13 0 0 1 1.7 1.91 2.89 2.89 0 0 1-1 1.82c-5 5.32-12.58 7.46-19.84 8.49-8.43 1.2-17.66 1-24.62-3.88zm89.81-31.63a45.82 45.82 0 0 1 11.54-16.85c2.33-2.15 5.08-4.14 8.24-4.4a1.62 1.62 0 0 1 1.54.48 1.7 1.7 0 0 1 .1 1.4 19.91 19.91 0 0 1-2.44 5.78 46.18 46.18 0 0 1 22.4-13.39 16.75 16.75 0 0 1 3.3-.49 5.14 5.14 0 0 1 2.61.4 2.13 2.13 0 0 1 1.2 2 3.25 3.25 0 0 1-1.15 1.74q-4.31 4.13-8.83 8c4.34-1.45 8.89-2.82 13.42-2.2.83.12 1.81.44 2 1.26s-.66 1.64-1.42 2.14l-7.49 4.92 3.6.89c.76.19 1.68.56 1.73 1.35a1.63 1.63 0 0 1-.5 1.09c-1.41 1.63-3.55 2.4-5.61 3a101.66 101.66 0 0 1-13.24 3.07c1.29-.1 1.93 1.79 1.23 2.88s-2.05 1.5-3.3 1.84l-12.4 3.37-2.55.69-1.12.3a101.36 101.36 0 0 1-19 3.17 2.22 2.22 0 0 1-1.75-3.72z"/><path class="cls-6" d="M75.41 117.25a6.09 6.09 0 0 0-1.64 4.75 11.92 11.92 0 0 0 1.56 4.85 23.72 23.72 0 0 0 9.91 9.78 15.47 15.47 0 0 0 9 1.92 9.25 9.25 0 0 0 7.32-5 9.53 9.53 0 0 0-.86-8.57 18.22 18.22 0 0 0-6.49-6 26.8 26.8 0 0 0-12.9-4.07 7.5 7.5 0 0 0-5 1.75z"/><path class="cls-7" d="M75.53 120.58a7.91 7.91 0 0 0 1.25 2.64 41.72 41.72 0 0 0 6.5 7.11 39 39 0 0 0 4.94 4 14.14 14.14 0 0 0 5.9 2.34 5.06 5.06 0 0 0 3-.39 6.69 6.69 0 0 0 2.09-2.11 10.24 10.24 0 0 0 1.38-2.31 6.57 6.57 0 0 0-1-5.8 17.19 17.19 0 0 0-2.31-2.59c-1.21-1.16-2.44-2.3-3.7-3.4a18.18 18.18 0 0 0-3.47-2.54 16.93 16.93 0 0 0-4.63-1.43 18.93 18.93 0 0 0-3.43-.43A10.85 10.85 0 0 0 77 117a3 3 0 0 0-1.47 3.58z"/><path class="cls-8" d="M82.11 120a2.12 2.12 0 0 0-.71 1.63 4.28 4.28 0 0 0 1.6 2.79l2.89 2.87a35.65 35.65 0 0 0 3.89 3.49 12.05 12.05 0 0 0 4.71 2.22c.63.14 1.43.13 1.75-.43a1.51 1.51 0 0 0-.12-1.39 11.87 11.87 0 0 0-1-1.56 37.29 37.29 0 0 0-7.75-8.71 5.56 5.56 0 0 0-2.85-1.27c-.86-.07-1.64-.28-2.41.36z"/><path class="cls-9" d="M87.44 124.92c.2 0 .46-.07.44-.26a.39.39 0 0 0-.1-.19c-.36-.4-2-1.64-2.5-1-.7.98 1.72 1.43 2.16 1.45zm.66 5.19c.22.11.43-.16.58-.36.31-.44 1.9-2.1.43-2.11-.88 0-1.69 2.16-1.01 2.47zm2.79-3.11a4.19 4.19 0 0 0 .75 1 2.54 2.54 0 0 0 1.75 1 .16.16 0 0 0 .1 0 .11.11 0 0 0 0-.09 1.28 1.28 0 0 0-.23-1 3.37 3.37 0 0 0-.72-.69 6.4 6.4 0 0 0-1.24-1c-.44-.06-.63.3-.41.78zm-2.69-6.56c0-.16.11-.34.26-.39s.39.11.5.29c.28.42.88 2.06.1 2.25-1 .25-.96-1.68-.86-2.15zm5.68 3.71a.61.61 0 0 0-.24-.65c-.51-.4-2.22-.6-1.82.46.26.71 1.77 1.04 2.06.19z"/><path class="cls-6" d="M64.07 109.92a6.09 6.09 0 0 0 3.62 3.42 12 12 0 0 0 5.06.57 23.68 23.68 0 0 0 13-5 15.44 15.44 0 0 0 5.42-7.37 9.22 9.22 0 0 0-1.6-8.75A9.5 9.5 0 0 0 81.4 90a18.28 18.28 0 0 0-8.16 3.44 26.83 26.83 0 0 0-9 10.11 7.47 7.47 0 0 0-.46 5.28z"/><path class="cls-7" d="M67.16 111.17a8 8 0 0 0 2.92-.06 41.93 41.93 0 0 0 9.15-3 40.06 40.06 0 0 0 5.77-2.85 14.13 14.13 0 0 0 4.55-4.42 5.08 5.08 0 0 0 .89-2.93 6.56 6.56 0 0 0-1.07-2.77 10 10 0 0 0-1.54-2.2 6.51 6.51 0 0 0-5.67-1.51 16.19 16.19 0 0 0-3.32 1q-2.33.93-4.62 2a18.13 18.13 0 0 0-3.74 2.12 17.14 17.14 0 0 0-3.2 3.64 20.12 20.12 0 0 0-1.8 2.94 11 11 0 0 0-1 5.2 3 3 0 0 0 2.68 2.84z"/><path class="cls-8" d="M69.36 104.94a2.13 2.13 0 0 0 1.19 1.32 4.32 4.32 0 0 0 3.19-.35l3.8-1.47a34.52 34.52 0 0 0 4.78-2.11 12.19 12.19 0 0 0 4-3.35c.37-.52.69-1.25.32-1.77a1.52 1.52 0 0 0-1.32-.47 12.42 12.42 0 0 0-1.82.24 37.07 37.07 0 0 0-11.12 3.5 5.52 5.52 0 0 0-2.38 2.08c-.43.78-.94 1.44-.64 2.38z"/><path class="cls-9" d="M76 102.08c.09-.17.13-.44-.06-.5a.31.31 0 0 0-.21 0c-.51.16-2.31 1.14-1.9 1.88.57 1.04 1.97-.97 2.17-1.38zm5 1.54c.19-.16 0-.46-.1-.68-.27-.47-1.13-2.6-1.74-1.26-.35.8 1.28 2.42 1.84 1.94zm-1.72-3.84a4.19 4.19 0 0 0 1.2-.28 2.58 2.58 0 0 0 1.67-1.17v-.1a.14.14 0 0 0-.07-.08 1.27 1.27 0 0 0-1-.18 3.26 3.26 0 0 0-.93.38 6 6 0 0 0-1.37.74c-.24.39.01.71.5.69zm-7.05-.23c-.13-.1-.27-.23-.25-.39s.26-.31.47-.34c.5-.08 2.24 0 2.09.84-.19 1.01-1.92.18-2.31-.11zM78 95.9a.62.62 0 0 0-.7-.05c-.57.3-1.46 1.78-.33 1.85.71.05 1.61-1.19 1.03-1.8z"/><path class="cls-10" d="M64 114.17c.31.12.75.44 1.06.56a1.58 1.58 0 0 1 .3.19l.14.47s.78 5 1.36 7.48a19.23 19.23 0 0 0 1.5 4.7A17.44 17.44 0 0 0 70 130a16.79 16.79 0 0 0 2.28 2.6 12.63 12.63 0 0 0 3.19 1.94 30.5 30.5 0 0 0 7.25 2.3 28.92 28.92 0 0 1 3.54 2.16v2.71l-8.89-2.2-12.76-11.1-.48-5"/><path class="cls-11" d="M62.1 125a19.63 19.63 0 0 0 2.16 8.48 17.2 17.2 0 0 0 3.31 4.17 19.25 19.25 0 0 0 9.31 4.87c3.25.64 9.4-.78 9.4-.78l-.79-1.86s-4.75-.91-7.11-1.68a16.21 16.21 0 0 1-6.68-3.94 24.27 24.27 0 0 1-2.92-3.84c-2-3.13-3.75-6.63-4.15-10.27-.17-1.56-.12-4.61-.12-4.61l-.5-1.36s-.79 1.73-1 2.37a21.19 21.19 0 0 0-.74 3.61 27.74 27.74 0 0 0-.17 4.84z"/><path class="cls-12" d="M64.57 132.21a9.5 9.5 0 0 0 1 1.93 9.07 9.07 0 0 0 .84 1 19.6 19.6 0 0 0 5.35 3.9 49.49 49.49 0 0 0 5.8 2.38 18 18 0 0 1-4.08-2.42c-.7-.51-1.4-1-2.08-1.59-1.38-1.17-2.64-2.57-4-3.71a8.19 8.19 0 0 1-1.28-1.16 7.36 7.36 0 0 1-1-1.95 63.5 63.5 0 0 1-2.25-6.79 28.5 28.5 0 0 0 1.7 8.41z"/><path class="cls-13" d="M118 129.85a8.14 8.14 0 0 0-1.77 1.37 7.59 7.59 0 0 0-1.44 3.75 11.65 11.65 0 0 0-.13 5.28 4.3 4.3 0 0 0 3.71 3.32 4.13 4.13 0 0 0 3.13-1.58 9.69 9.69 0 0 0 1.65-3.21 32.8 32.8 0 0 0 1.05-3.78 6.68 6.68 0 0 0 0-3.81c-1.13-2.93-4.01-2.74-6.2-1.34z"/><path class="cls-14" d="M118.25 131.29c-.06.05-.12.14-.06.2a6.19 6.19 0 0 0 3 .41 1.06 1.06 0 0 0 .93-.5c.32-.81-.75-1.2-1.33-1.18a4 4 0 0 0-2.54 1.07z"/><path class="cls-15" d="M116 134a7.49 7.49 0 0 0-.45 1.65 9 9 0 0 0 .48 3.6c.19.68.38 1.35.58 2 .3-1.67.57-3.34.81-5a3.82 3.82 0 0 0 .06-.68 6.45 6.45 0 0 0-.14-.88c-.06-.38-.09-.77-.13-1.16s0-.8-.25-1c-.43-.37-.82 1.13-.96 1.47z"/><path class="cls-13" d="M100.25 101.52a11.57 11.57 0 0 0 5 1.5 10.75 10.75 0 0 0 5.11-.33 4.14 4.14 0 0 0 1.17-7.52 11.51 11.51 0 0 0-4-1.76c-2.57-.71-6.66-1.38-8.78.81s-.75 5.86 1.5 7.3z"/><path class="cls-14" d="M99 98c.08.36.29.78.67.79s.64-.45.76-.85c.17-.66.94-3.81-.26-3.48S98.8 97.11 99 98z"/><path class="cls-15" d="M108.16 96.26a6.45 6.45 0 0 1 2.25 1.13c.63.58 1 1.4 1.61 2A2 2 0 0 0 112 97a5.35 5.35 0 0 0-2-1.54 7.43 7.43 0 0 0-1.64-.7 8 8 0 0 0-1-.16l-2.25-.26c-.28 0-1.8-.38-1.19.25a6.78 6.78 0 0 0 2 .85c.8.3 1.51.56 2.24.82z"/><path class="cls-16" d="M155.6 96.2a16.58 16.58 0 0 0-7.14 5.63c-2.65 3.39-4.57 7.81-3.4 12a32.29 32.29 0 0 0 2.62 5.39 43.86 43.86 0 0 0 2.79 5.62c2.3 3.32 6.37 5.06 10.38 5.54a13.89 13.89 0 0 0 5.3-.24 20.62 20.62 0 0 0 6.72-3.77c3-2.26 6.26-4.72 7.61-8.27a18.54 18.54 0 0 0 1-5c.26-2.88.37-6-1-8.47a15.63 15.63 0 0 0-3.83-4.12 31.64 31.64 0 0 0-6.19-4.43 11.43 11.43 0 0 0-7.57-1c-2.47.44-4.98.27-7.29 1.12z"/><path class="cls-17" d="M170.27 111.25c-2.81 2-6.9.94-10 2.48-1.79.88-3.33 2.63-5.32 2.48-1.21-.1-2.29-.92-3.51-.9a.7.7 0 0 0-.45.12.85.85 0 0 0-.22.53 8.56 8.56 0 0 0 1.11 5.56 7 7 0 0 0 4.59 3.23c2.05.38 4.42-.2 6.07 1.08.85.65 1.47 1.77 2.54 1.86a2.85 2.85 0 0 0 1.46-.41 32 32 0 0 0 11.17-9.12 2 2 0 0 0 .57-1.53 6.89 6.89 0 0 0-.55-1 3.14 3.14 0 0 1 .38-2.35 10.26 10.26 0 0 0 .62-6.34c-.55-2.17-2.93-5.89-4.64-2.56-1.26 2.34-1.49 5.18-3.82 6.87z"/><path class="cls-18" d="M165.51 111.15a4.05 4.05 0 0 0-.29 2.1 1.38 1.38 0 0 0 .26.87 1.4 1.4 0 0 0 .71.35 1.94 1.94 0 0 0 1.4 0 1.46 1.46 0 0 0 .65-.91c.58-1.75-1.33-5.14-2.73-2.41zM151.36 105a1.19 1.19 0 0 0 .57 1.26 1.41 1.41 0 0 0 1.24-.15 3.28 3.28 0 0 0 1.5-1.76 1.29 1.29 0 0 0-1.4-1.79c-.91.17-1.78 1.58-1.91 2.44zm20.77 11.58a1.29 1.29 0 0 0 .54 1.27 1.64 1.64 0 0 0 .93.18 1.26 1.26 0 0 0 .4-.03 1.23 1.23 0 0 0 .6-.84c.24-.8.43-2.29-.71-2.5-.89-.23-1.67 1.13-1.76 1.92zm-5.95 5.57a1.64 1.64 0 0 0 .6 1.38 1.34 1.34 0 0 0 1.24.14 1.51 1.51 0 0 0 .88-.9 1.48 1.48 0 0 0-.28-1.52 1.42 1.42 0 0 0-2.44.9zm-9.79 3.85a1.91 1.91 0 0 0 1 .47 1.25 1.25 0 0 0 1-.39 2 2 0 0 0 .35-.86 1.63 1.63 0 0 0 0-.82 1.45 1.45 0 0 0-.68-.68c-.66-.36-2-.84-2.48 0s.25 1.77.81 2.28zm12.01-25a1.32 1.32 0 0 0 .65 1.1 1.16 1.16 0 0 0 1.36-.36 1.73 1.73 0 0 0-.73-2.36c-1.05-.73-1.35.73-1.28 1.62z"/><path class="cls-19" d="M194.73 118.09a10.1 10.1 0 0 0-6.72-3.45c-2.82-.12-5.44 1.32-8.14 2.13-1.7.51-3.46.78-5.15 1.31a8.78 8.78 0 0 0-4.43 2.8 9.46 9.46 0 0 0-1.36 2.78 20.23 20.23 0 0 0-1.09 8.82 6.91 6.91 0 0 0 .73 2.58 20 20 0 0 0 1.76 2.27c2.13 2.81 2.3 6.89 4.89 9.28a9 9 0 0 0 4.31 2 18.22 18.22 0 0 0 10.89-1.25 26 26 0 0 0 8.87-6.58 12 12 0 0 0 2.67-4.2 11.14 11.14 0 0 0-.13-6.29 15.69 15.69 0 0 0-2.75-6.23c-1.57-1.9-2.64-4.16-4.35-5.97z"/><path class="cls-16" d="M173.68 128.79a2 2 0 0 0 .52 1.26 2 2 0 0 0 .79.24 8.53 8.53 0 0 1 4.7 3c1.27 1.4 2.32 3 3.7 4.29a4.44 4.44 0 0 0 1.51 1 6 6 0 0 0 2.66.15 70.18 70.18 0 0 1 8.2-.22c.25 0 .54 0 .67.25a.71.71 0 0 1 0 .62 6.39 6.39 0 0 1-4.5 4.05c-.66.16-1.35.2-2 .39-2.41.68-4.18 3.18-6.69 3.27a7.88 7.88 0 0 1-5.72-1.9 33.92 33.92 0 0 1-6.55-9.3c-.91-1.75-.91-3.72-1.43-5.62-.27-1 .29-4.14 1.85-4.18 1.15-.02 2.09 1.78 2.29 2.7z"/><path class="cls-18" d="M187 120a3.34 3.34 0 0 0-1.61 3.63 2.3 2.3 0 0 0 1 1.5 2.34 2.34 0 0 0 2.08 0 6.07 6.07 0 0 0 1.75-1.24c2.57-2.28-.51-5.29-3.22-3.89zm-4.6-1.4a5.88 5.88 0 0 0-1.91.86c-.38.26-.77.66-.66 1.11a.9.9 0 0 0 .25.39 1.71 1.71 0 0 0 1.67.34 3.36 3.36 0 0 0 1.47-1 1.72 1.72 0 0 0 .49-.76c.21-.79-.66-1.11-1.31-.94zm2.2 18.4a1.83 1.83 0 0 0-.92 1 2.64 2.64 0 0 0 0 1.22 2.23 2.23 0 0 0 .19.67 1.33 1.33 0 0 0 1.45.52 2.76 2.76 0 0 0 1.34-.9c.55-.61 1.19-1.29.57-2a2.16 2.16 0 0 0-2.63-.51zm-9.23-1a1.12 1.12 0 0 0-1.38.29 1.58 1.58 0 0 0-.22.91 3.07 3.07 0 0 0 .52 1.75.66.66 0 0 0 .23.21.65.65 0 0 0 .39 0 1.72 1.72 0 0 0 .46-3.16zm16.21 6.22a1.35 1.35 0 0 0-1.33 1.08 1.09 1.09 0 0 0 1.06 1.23 1.78 1.78 0 0 0 1.1-.65 1 1 0 0 0-.83-1.66zm7.29-10.69a.52.52 0 0 0-.47-.44 1.05 1.05 0 0 0-.66.18.86.86 0 0 0-.46.61.87.87 0 0 0 .1.42 1.86 1.86 0 0 0 .59.81.76.76 0 0 0 .94 0c.3-.3.2-.79.07-1.19"/><path class="cls-19" d="M130.23 137.79a14.14 14.14 0 0 0 0 4.59c.79 4.61 4.3 8.2 7.72 11.38a21.59 21.59 0 0 0 3.77 3 14.27 14.27 0 0 0 8 1.69 29.28 29.28 0 0 0 8.08-1.85 9.48 9.48 0 0 0 2.56-1.24 10.1 10.1 0 0 0 2.16-2.53l3.91-5.74c1.41-2.07 2.86-4.29 2.9-6.79a12 12 0 0 0-1.84-5.68 86.85 86.85 0 0 0-6.09-9.75 11.49 11.49 0 0 0-2.58-2.8 10.1 10.1 0 0 0-3-1.28 17.19 17.19 0 0 0-4.93-.76c-4.44.06-7.67 2.59-11.36 4.66a16.45 16.45 0 0 0-6.9 6.38 19.31 19.31 0 0 0-2.4 6.72z"/><path class="cls-16" d="M137.05 142.28c.92.25 1.52 1.5 2.46 1.32a1.87 1.87 0 0 0 .7-.36 9.12 9.12 0 0 1 4-1.69 4.33 4.33 0 0 1 3.92 1.51 6.31 6.31 0 0 0 1 1.39c.85.66 2.07.36 3.09 0l6.41-2.12a3 3 0 0 0 .81-.36 2.62 2.62 0 0 0 .81-1.12c.84-1.9 1.07-4.24 2.72-5.5a1.27 1.27 0 0 1 .53-.27 1.33 1.33 0 0 1 .68.1 4.12 4.12 0 0 1 2.53 4.26 7.94 7.94 0 0 1-1 2.59l-2.39 4.56a8.35 8.35 0 0 1-1.88 2.65c-1.4 1.14-3.48 1.32-4.63 2.72-.39.46-.63 1-1 1.51a5.44 5.44 0 0 1-2.3 1.51c-2.85 1.14-6.42 1.25-8.66-.83-.63-.59-1.12-1.31-1.76-1.89a14.83 14.83 0 0 0-2.73-1.73 36.73 36.73 0 0 1-4.08-2.84c-1.05-.8-2.18-1.62-1.9-3 .28-1.07 1.35-2.77 2.67-2.41z"/><path class="cls-18" d="M141.14 140.31a1.24 1.24 0 0 0-.35.84 2.15 2.15 0 0 0 1.9 2.4 1.43 1.43 0 0 0 1-.23 1.49 1.49 0 0 0 .49-1.06A2.59 2.59 0 0 0 143 140a1.33 1.33 0 0 0-1.16-.21 3.45 3.45 0 0 0-.7.52zm14.42-7.53a2.33 2.33 0 0 0 .81 1.11 1.93 1.93 0 0 0 2.58-.56c2.24-3.33-5.51-5.95-3.39-.55zm-16.31-3.02a3.17 3.17 0 0 0-1.17 1.29 4.4 4.4 0 0 0-.66 1.83 1.43 1.43 0 0 0 .09.68 1.26 1.26 0 0 0 1.09.7 2.62 2.62 0 0 0 1.31-.35 3.87 3.87 0 0 0 1.48-1.27 2.58 2.58 0 0 0 .45-1.86 1.64 1.64 0 0 0-.68-1.11 1.68 1.68 0 0 0-1.44-.07zm6.12 19.8a1.11 1.11 0 0 0-.64.45.92.92 0 0 0 0 .57 2.21 2.21 0 0 0 .77 1.21 1.22 1.22 0 0 0 .61.28 1 1 0 0 0 .9-.51 1.23 1.23 0 0 0 0-1.06 1.82 1.82 0 0 0-.73-.8 1.4 1.4 0 0 0-.68-.22.71.71 0 0 0-.6.34m13-.02a3.37 3.37 0 0 0 .78 1.19 1.87 1.87 0 0 0 1.33.71 1.63 1.63 0 0 0 .84-.29 2.83 2.83 0 0 0 1.26-1.89 2.41 2.41 0 0 0-1.72-2.74c-1-.27-1.55.45-2.16 1.15a1.84 1.84 0 0 0-.33 1.87z"/><path class="cls-20" d="M70.39 146.2a9.76 9.76 0 0 1-.82 3.07 3.89 3.89 0 0 1-1.06 1.32 4.37 4.37 0 0 1-2 .67c-5.77.79-13.6-2.55-18.49-5.6"/><path class="cls-21" d="M70.39 146.2a318.85 318.85 0 0 0-27.8-35.07c-3 3.63-6.15 7.84-6.09 12.57a21 21 0 0 0 1.38 6.38 43.23 43.23 0 0 0 3.95 8.92 20.8 20.8 0 0 0 6.9 7.06c5.87 3.49 15.63 2.85 21.66.11"/><g class="cls-22"><path class="cls-23" d="M47.53 109.16a36.84 36.84 0 0 0-6.43 6.17 11.35 11.35 0 0 0-2.8 5.5 14.22 14.22 0 0 0 .39 4.39 30.44 30.44 0 0 0 1.2 4.69 24 24 0 0 0 1.61 3.35 51.73 51.73 0 0 0 7.12 9.74 10.19 10.19 0 0 0 3.25 2.56 10.16 10.16 0 0 0 3.62.64 58.52 58.52 0 0 0 12.83-.84 8.24 8.24 0 0 0 3.19-1.06 5.35 5.35 0 0 0 1.67-1.93c1.38-2.58 1.06-5.79-.06-8.58a45.4 45.4 0 0 0-4.61-7.8c-2.4-3.64-4.52-7.5-7.55-10.69s-7.23-5.7-11.62-5.57"/></g><path class="cls-21" d="M44.62 116.34a61.1 61.1 0 0 0 7.14 10.2 3.07 3.07 0 0 0-1.07.95c-.63 1 .11 2.36.83 3.4a6.86 6.86 0 0 0 1.48 1.69 2.31 2.31 0 0 0 2.13.41c.28-.1.56-.29.85-.19a.9.9 0 0 1 .38.29c1.34 1.49 2.53 3.1 3.71 4.7l4 5.47a22.71 22.71 0 0 1-11.42-.4 9.54 9.54 0 0 1-3.45-1.67 9.77 9.77 0 0 1-1.87-2.28 43.47 43.47 0 0 1-2.92-5.83 41.8 41.8 0 0 1-3.17-9.67 7.8 7.8 0 0 1-.11-2.31c.3-2.07 2-3.62 3.1-5.38"/><path class="cls-24" d="M44.55 122.53a2.39 2.39 0 0 0 1.74.21.58.58 0 0 0 .34-.29.5.5 0 0 0-.09-.45 1.42 1.42 0 0 0-.37-.32c-.59-.39-1.8-1.19-2.53-.84-.28.13-.75.6-.61.9s1.2.66 1.52.79zm.5 5.8a1.44 1.44 0 0 0-.85.63.52.52 0 0 0 0 .51.91.91 0 0 0 .28.23 2.06 2.06 0 0 0 .75.35 1.7 1.7 0 0 0 .71 0 7.18 7.18 0 0 0 1.61-.63c.7-.34 1-1.1 0-1.33a4.57 4.57 0 0 0-2.5.24zm3.95 6.79a4.8 4.8 0 0 0-1.2 2.24.77.77 0 0 0 0 .4.38.38 0 0 0 .27.29.56.56 0 0 0 .35-.09 5.11 5.11 0 0 0 2.31-2.63c.13-.33.44-1.21-.18-1.31s-1.29.8-1.55 1.1zm6.64 5.49c.09.14.21.31.38.29s.22-.13.28-.24a4.2 4.2 0 0 0 .26-.78 3.32 3.32 0 0 0 0-1.95c-.15-.39-.49-1.22-1-1-1.12.5-.31 2.96.08 3.68z"/><path class="cls-20" d="M99.11 122.92a27 27 0 0 0 11.31 1.43 10.25 10.25 0 0 0 2.59-.44 11 11 0 0 0 2.18-1.13 56.58 56.58 0 0 0 8.22-6.23 2.71 2.71 0 0 0 1.1-3.39l-1.51-5.85a1.73 1.73 0 0 0-1.14-1c-.19 0 0 0-.15.09l-3.94 1.23a50.51 50.51 0 0 0-7.56 2.83 25.24 25.24 0 0 0-2.42 1.39c-.43.28-.9.73-.73 1.21"/><path class="cls-21" d="M103.78 110.23a4.64 4.64 0 0 1 4.88-3.22l12.86-.74a.69.69 0 0 1 .87.86c0 2.16.86 6.16-.51 8-.83 1.12-7.21 5.28-10.66 6.37a32.68 32.68 0 0 1-6.63 1.44c-1.38.13-5.36.59-6.44-.54s1.42-4.29 2-5.39z"/><g class="cls-25"><path class="cls-23" d="M96.39 119.25c2.91.77 5.94 1.55 8.91 1a19.2 19.2 0 0 0 3.77-1.19c1.82-.73 3.61-1.51 5.41-2.3a26.21 26.21 0 0 0 4.87-2.54 3.44 3.44 0 0 0 1-1 3.56 3.56 0 0 0 .34-1.41c.11-1.27.17-2.54.19-3.82a1.94 1.94 0 0 0-.14-.9 2 2 0 0 0-.54-.61c-1-.86-2.07-1.72-3.12-2.56a8.42 8.42 0 0 0-1.49-1 7.29 7.29 0 0 0-2.48-.61 15.7 15.7 0 0 0-5.25.31 14.47 14.47 0 0 0-7.31 4.51 19 19 0 0 0-4 7.64 10.72 10.72 0 0 0-.42 4"/></g><path class="cls-21" d="M106.7 110.61a1 1 0 0 1 .78-.48l9.34-1.53a2 2 0 0 1 .76 0 1.29 1.29 0 0 1 .7 1.7 3.18 3.18 0 0 1-1.43 1.45c-1.29.79-2.68 1.38-3.94 2.22-.4.26-.79.55-1.19.81a16.64 16.64 0 0 1-2.89 1.38c-.93.37-1.87.73-2.83 1-.49.16-1 .31-1.48.44-.34.09-1 .4-1.34.24-.81-.39.12-1.42.38-1.81.53-.82 1-1.69 1.44-2.55a24.58 24.58 0 0 1 1.7-2.87z"/><path class="cls-24" d="M106.54 114.12c0 .27 0 .6.23.74s.51 0 .71-.17a3 3 0 0 0 1.08-2.65.69.69 0 0 0-.38-.63c-1.25-.41-1.6 2.05-1.64 2.71zm4.74-2.58a5.17 5.17 0 0 0 .71 1 1.34 1.34 0 0 0 .33.3.38.38 0 0 0 .42 0 .52.52 0 0 0 .11-.29 5.31 5.31 0 0 0 .09-1 1.54 1.54 0 0 0-.32-.9 4.06 4.06 0 0 0-.49-.44 1 1 0 0 0-.41-.3c-.92-.29-.62 1.25-.44 1.63z"/><path class="cls-10" d="M142.54 118.39c-2 5.78-5 8.91-8.63 13.86-.64.88-3.56 2.85-4.27 3.67-4.3 5-12.22 8.55-16.83 13.11.81.35 1.66-.17 2.47.17a1.57 1.57 0 0 0 .64.18 1.62 1.62 0 0 0 .6-.13c4-1.39 6.5-3.67 10.16-5.8a37.46 37.46 0 0 0 16.85-21.29"/><path class="cls-11" d="M142.54 118.39a32.81 32.81 0 0 1-3.67 9.3 40.6 40.6 0 0 1-5 7.38 43.06 43.06 0 0 1-9.77 7.88 94.71 94.71 0 0 1-11.29 6.05 6.18 6.18 0 0 0 3.46.71 14.37 14.37 0 0 0 4.39-.42 13.24 13.24 0 0 0 3-1.54 85.29 85.29 0 0 0 11.44-8.66 36.42 36.42 0 0 0 3.65-3.7 23.89 23.89 0 0 0 5.38-12.6c.21-1.4-1.59-4.4-1.59-4.4z"/><path class="cls-20" d="M80 151.35a6.52 6.52 0 0 0-.4 2.3 2.71 2.71 0 0 0 .34 1.2 3.33 3.33 0 0 0 1.2 1c3.91 2.26 10.66 2.36 15.18 1.79"/><path class="cls-21" d="M80 151.35a260.83 260.83 0 0 1 31.45-15.13c1 3.32 1.91 7.08.34 10.22a15.73 15.73 0 0 1-3.06 3.85 33.75 33.75 0 0 1-5.75 4.8 17.2 17.2 0 0 1-7.28 2.66c-5.37.58-12.22-2.77-15.7-6.4"/><g class="cls-26"><path class="cls-23" d="M108.52 133.43a26.21 26.21 0 0 1 2.66 6 7.62 7.62 0 0 1 .24 4.5 9.65 9.65 0 0 1-1.7 2.82 23.16 23.16 0 0 1-2.38 2.78 17.77 17.77 0 0 1-2.25 1.75 42 42 0 0 1-8.29 4.37 8.54 8.54 0 0 1-3.18.74 8.64 8.64 0 0 1-2.83-.65 48.09 48.09 0 0 1-9-4.39 6.44 6.44 0 0 1-2-1.67 3.61 3.61 0 0 1-.58-1.78c-.17-2.13 1.11-4.19 2.81-5.72a37 37 0 0 1 5.86-3.83c2.91-1.72 5.7-3.66 8.92-4.89s7.07-1.64 10.2-.25"/></g><path class="cls-21" d="M108.31 139.1a50 50 0 0 1-8.47 4.68 2.23 2.23 0 0 1 .47.95c.12.88-.85 1.55-1.7 2a5.52 5.52 0 0 1-1.62.68 1.93 1.93 0 0 1-1.68-.36c-.16-.15-.31-.36-.55-.38a1 1 0 0 0-.37.08c-1.45.6-2.83 1.32-4.21 2l-4.69 2.45a19 19 0 0 0 8.39 3.15 8.39 8.39 0 0 0 3-.09 7.81 7.81 0 0 0 2.09-1 33 33 0 0 0 4-3 32.07 32.07 0 0 0 5.42-5.51 5.56 5.56 0 0 0 .82-1.51c.46-1.48-.26-3-.5-4.52"/><path class="cls-24" d="M106.35 143.26a2 2 0 0 1-1.32-.39.36.36 0 0 1-.15-.29.33.33 0 0 1 .21-.27 1.14 1.14 0 0 1 .37-.11c.55-.08 1.68-.25 2.1.2.16.16.35.62.15.78s-1.08.08-1.36.08zm-2.23 3.74a1.07 1.07 0 0 1 .41.68.38.38 0 0 1-.17.33.84.84 0 0 1-.27.08 2.43 2.43 0 0 1-.66 0 1.48 1.48 0 0 1-.51-.23 5.48 5.48 0 0 1-1-.9c-.39-.44-.34-1 .43-.89a3.68 3.68 0 0 1 1.77.93zm-5.04 3.34a3.29 3.29 0 0 1 .15 1.86.72.72 0 0 1-.12.27.31.31 0 0 1-.29.11.44.44 0 0 1-.22-.16 3.55 3.55 0 0 1-.83-2.45c0-.26.08-.93.56-.82s.67.91.75 1.19zM92.49 152c-.11.07-.26.15-.38.08s-.11-.08-.11-.22a3.07 3.07 0 0 1 .07-.6 2.34 2.34 0 0 1 .65-1.3c.24-.21.75-.67 1.06-.34.6.64-.78 2.04-1.29 2.38z"/><path class="cls-27" d="M177.87 148.51a185.14 185.14 0 0 1-34.33 5.11c-19.86 1.19-39.66-.58-59.47-1.76-15.56-.92-38.14-8.2-48.5-20.27a20.89 20.89 0 0 1-5-11.9c.83 14 14 30.58 27.92 39.24s30.31 12.63 46.61 14.45c17.14 1.92 34.72 1.58 51.36-3s32.32-13.58 43.2-27c5-6.16 8.16-10.16 9.69-17.91a18 18 0 0 1-2.58 6c-6.26 9.65-17.77 14.25-28.9 17.04z"/><path class="cls-28" d="M56.09 103.57a1.56 1.56 0 0 1 .9-.51 1.53 1.53 0 0 1 1 .48 24.62 24.62 0 0 1 3.37 3.46 2.24 2.24 0 0 1 .54 1c.13.67-.32 1.32-.39 2-.1 1 .6 1.9.76 2.89.24 1.5-.77 2.91-1.88 3.94a13.28 13.28 0 0 0-3.11 3.29 2 2 0 0 1-.42.66c-.53.43-1.32 0-1.79-.44a10.79 10.79 0 0 1-2.14-3.78 3.76 3.76 0 0 1-.38-1.54c0-.42.17-.84.15-1.26a4.28 4.28 0 0 0-.88-1.82c-.88-1.47.4-2.82 1.08-4.1a17.18 17.18 0 0 1 3.19-4.27zm42.31 27.16A3.65 3.65 0 0 1 100 128a4.43 4.43 0 0 1 1.23-.4l7.85-1.77c.49-.11 1.1-.19 1.42.2s.21.6.34.9c.45 1 2.17 1.13 2.18 2.2a1.78 1.78 0 0 1-.23.74l-1.42 2.91a4.37 4.37 0 0 1-1.14 1.65 4.52 4.52 0 0 1-2.76.68 4.6 4.6 0 0 1-2.06-.26c-.31-.14-.58-.34-.89-.46a3.5 3.5 0 0 0-2.16.14l-2 .56a2.9 2.9 0 0 1-1.48.14c-1.37-.41-.64-3.49-.48-4.5zm33.99-32.09a5.12 5.12 0 0 0-1.45 1.29 5.38 5.38 0 0 0-.87 2.74 12 12 0 0 0 .55 4.79 8.76 8.76 0 0 1 .74 3c0 1.5-1.13 3-.68 4.4a4.42 4.42 0 0 0 2 2.1 3.38 3.38 0 0 0 2 .8 3.26 3.26 0 0 0 1.45-.55c1.88-1.06 3.93-2.35 4.44-4.45.4-1.66-.27-3.49.38-5.07a14.33 14.33 0 0 1 1.34-2.07 2.43 2.43 0 0 0 .34-2.34 6.32 6.32 0 0 0-1.05-1.15 3 3 0 0 1-.74-2.37c.13-.93.6-2.11-.18-2.64a1.64 1.64 0 0 0-.69-.21 11.84 11.84 0 0 0-7.58 1.73z"/></svg>