<svg height="200" width="200" xmlns="http://www.w3.org/2000/svg" xmlns:xlink="http://www.w3.org/1999/xlink"><clipPath id="a"><path d="m162.3 121.6a12.92 12.92 0 0 0 -3.14 2.27 9.78 9.78 0 0 0 -2 4 22.94 22.94 0 0 0 -.83 6.49 2.11 2.11 0 0 0 1.58 2.34c3.36 1.49 7.06 2 10.71 2.46a22.52 22.52 0 0 0 6.29.22 14 14 0 0 0 9.23-6.36 27.56 27.56 0 0 0 3.86-10.8c.49-3 1-12.42-.37-16.55a66.18 66.18 0 0 0 -7.67 3.92c-2.73 2-5.48 4-8.28 6-3.04 2.09-6.17 4.12-9.38 6.01z"/></clipPath><path d="m-1-1h202v202h-202z" fill="none"/><path d="m13.28 133.54a3.35 3.35 0 0 0 1.72 5.86h.07q41.62 4.68 83.4 7.93c23.16 1.8 46.42 3.28 69.61 1.92 2.53-.15 5.2-.37 7.29-1.8 2.78-1.89 3.88-5.38 4.79-8.61l5.89-20.76a36 36 0 0 0 1.82-9.77 12.23 12.23 0 0 0 -3.48-9c-3.55-3.24-8.91-3.16-13.71-3q-13.19.48-26.37-.11c-15.42-.69-30.81-2.47-46.25-2.29s-31.15 2.45-44.94 9.39a142.33 142.33 0 0 0 -15.41 9.46c-6.85 4.64-24.43 20.78-24.43 20.78z" fill="#efefef"/><path d="m184.65 89.55s0 .31-1.16-.34l-23.9 29.13a21.19 21.19 0 0 0 -3 10.09q-.6-.17-1.2-.3c-12.34-2.9-25.08-3.66-37.74-4.42-9-.53-18.07-1.07-27.12-1.41-19.22-.72-38.45-.53-57.68-.35a57.61 57.61 0 0 0 -12.73 1.84c-3.11.9-6 1.63-7 4.75l2.14 4.78a6.1 6.1 0 0 0 4.91 3.57c17.63 1.88 96.1 6.63 137.91 8.93 3.25.18 6.93.18 9.29-2v-.05l.3-.29a5.43 5.43 0 0 0 .48-.62c7.13-8.43 8.47-19.13 12.55-29.57 2.62-6.67 5.16-16.66 3.95-23.74z" fill="#9e1c4c"/><path d="m49.07 89.65c3.37-2.92 6.82-5.85 10.79-7.52 5.25-2.19 11-2 16.59-1.8 34.78 1.3 65.78 2.58 104.82 7.1a4.35 4.35 0 0 1 3 1.31c1.38 1.65-.15 5.82-1 7.88q-5.81 14-11.59 28c-1.36 3.27-2.32 8.22-4.65 10.11s-11.18 3.08-16.89 2.8l-20.87-1q-35.18-1.74-70.35-3.52c-11.86-.61-23.72-1.21-35.58-1.89-3.42-.19-10.44-.34-10.44-3.37s6.5-9.32 8.64-11.55c9.62-10.04 17.93-18.2 27.53-26.55z" fill="#ec2044"/><path d="m193.77 134h.11" fill="none"/><path d="m36 107.09a9.63 9.63 0 0 0 -3.45 2.28 3.46 3.46 0 0 0 -.59 3.86 5 5 0 0 0 1.74 1.53 49.62 49.62 0 0 0 22.28 7.68c4.79.35 9.62-.13 14.4.35 12.93 1.31 25.24 9.64 38 7.12 3.26-.65 6.35-2 9.58-2.79 15.36-3.82 32.11 4.79 47.11-.26 1.86-.62 3.87-1.71 4.26-3.63s-1.25-3.92-3-5.1-3.75-2.16-4.71-4c-1.4-2.7.19-6.16 2.65-8s5.57-2.38 8.52-3.12 6-1.8 7.93-4.18a4.33 4.33 0 0 0 1.07-2.84c-.17-2.65-3.52-3.67-6.17-3.91a129.81 129.81 0 0 0 -49.4 5.13c-4.76 1.45-10.05 3.15-14.52 1-2.5-1.21-4.3-3.46-6.42-5.25-8.36-7.08-21.22-6.46-30.95-1.42-3.46 1.8-6.72 4.09-10.46 5.19-3.13.92-6.46 1-9.65 1.67a14.28 14.28 0 0 0 -5 2.12c-1.07.75-2 1.74-3.09 2.41-3.13 1.82-6.92 2.68-10.13 4.16z" fill="#c41c40"/><path d="m40.29 97.33a67.69 67.69 0 0 1 11.24-24.15 48 48 0 0 1 21-16.13 56 56 0 0 1 17.47-3.21c10.09-.4 20.48 1.09 29.28 6s15.8 13.7 17 23.73a53.61 53.61 0 0 1 .06 8.78 8.7 8.7 0 0 1 -.76 3.76c-1 1.76-3 2.61-4.91 3.27a231.68 231.68 0 0 1 -25.83 6.87l-38.08 8.58a49.14 49.14 0 0 0 -10.38 3.17c-2 .93-5.09 2.51-5.09 2.51a23.54 23.54 0 0 1 -6-.75 29.43 29.43 0 0 1 -7-3.07c-1.78-1.13-1.48-2.12-1-3.93 1.38-5.02 1.71-10.35 3-15.43z" fill="#f90"/><path d="m91.4 78a62.39 62.39 0 0 0 -10.4 0c-4.73.26-9.76.62-13.54 3.47-1.74 1.31-3.13 3.11-5.08 4.07-1.61.8-3.44 1-5.17 1.44a14.21 14.21 0 0 0 -9.09 7.92 5.37 5.37 0 0 1 -1.23 2.06 6.79 6.79 0 0 1 -1.75.86 6.11 6.11 0 0 0 -3.52 4.91 3.33 3.33 0 0 1 -.34 1.58 3.79 3.79 0 0 1 -1 .88c-2.11 1.62-1.88 4.81-1.43 7.43a4.63 4.63 0 0 0 .86 2.35 2.71 2.71 0 0 0 2.83.67 3.62 3.62 0 0 1 1.26-.33 2.83 2.83 0 0 1 1.48.85 6 6 0 0 0 5.12 1.15 7.68 7.68 0 0 1 2.64-.54 14.32 14.32 0 0 1 2.55 1c2.19.66 4.35-.9 6.42-1.88 4-1.87 8.67-1.68 12.67-3.48 3-1.34 5.35-3.68 7.73-5.91a5.38 5.38 0 0 1 2.87-1.7 20.84 20.84 0 0 1 2.23.13 7.12 7.12 0 0 0 3.65-1.56c3.08-2.08 6.23-4.23 8.37-7.27s3.11-7.19 1.44-10.51c-1.2-2.39-3.53-4-5.77-5.46" fill="#6b3d3b"/><path d="m98.09 71a8.68 8.68 0 0 1 -2.88.25 4.72 4.72 0 0 0 -2.77.64 1.93 1.93 0 0 0 -.7 2.51 1.06 1.06 0 0 1 .24.47c0 .28-.26.47-.49.62a5.28 5.28 0 0 0 -2.12 2.67 2.14 2.14 0 0 0 -.15.86 1.76 1.76 0 0 0 .52 1c1 1 2.62 1.1 4.06 1.08h3.5a3.42 3.42 0 0 0 2.77-.88c.72-.93.49-2.6 1.59-3 .67-.26 1.42.17 2.14.12 1.24-.07 2.61-1.7 2.94-2.83s-.29-1.95-1.25-2.62a11.85 11.85 0 0 0 -3.63-1.89c-1.49-.31-2.45.56-3.77 1z" fill="#6b3d3b"/><path d="m112.05 79.07c.54.85 1.71 1 2.61 1.4 1.25.61 2.1 2 3.44 2.29a1.54 1.54 0 0 0 1.44-.29 1.47 1.47 0 0 0 0-1.76 5.81 5.81 0 0 0 -1.36-1.3 2.8 2.8 0 0 1 -1.09-1.5c-.06-.3 0-.61-.11-.91a2.26 2.26 0 0 0 -1.48-1.37 6.1 6.1 0 0 0 -2.74-.39.43.43 0 0 0 -.27.08.5.5 0 0 0 -.13.26c-.23.98-1.07 2.54-.31 3.49z" fill="#6b3d3b"/><path d="m112.79 85.89c-.25.31-.4.68-.67 1a3.33 3.33 0 0 1 -2.54.72 14.21 14.21 0 0 0 -5 .57 4.63 4.63 0 0 0 -3.17 3.64 2.54 2.54 0 0 1 -.31 1.4 1.88 1.88 0 0 1 -.93.5 7.51 7.51 0 0 0 -3.47 2 3.21 3.21 0 0 0 -.48 3.75c.84 1.27 2.57 1.45 4 2 2.47.94 4.39 3.23 7 3.52 1.51.16 3-.38 4.51-.54 2.26-.25 4.54.37 6.81.27s4.81-1.3 5.25-3.53c1.83.4 3.61-1.32 3.87-3.17.51-3.64-3-7.09-5.26-9.5-1.94-2.01-7.2-5.68-9.61-2.63z" fill="#6b3d3b"/><path d="m102.19 70.8a1.28 1.28 0 0 0 .35-.26 39.76 39.76 0 0 1 14.66-9.18 1 1 0 0 1 1.1 1.7c-.59.63-1.2 1.25-1.81 1.87a46.35 46.35 0 0 1 16.51-6.38c.64-.1 1.58.07 1.52.72a1.12 1.12 0 0 1 -.52.73 49 49 0 0 1 -8.45 5.1s0 0 0 0c2.27-.51 4.68-1 6.86-.2.4.15.86.49.73.89a.89.89 0 0 1 -.34.38 37.91 37.91 0 0 1 -4.8 2.3 15.75 15.75 0 0 1 2.31 1.79 1.14 1.14 0 0 1 -.27 1.36 3.06 3.06 0 0 1 -1.34.65 27.28 27.28 0 0 1 -11.59.41c-1.27 2.74-4.44 4.25-7.46 4.2a15.32 15.32 0 0 1 -8.36-3.13 1.5 1.5 0 0 1 .16-2.55l.74-.4z" fill="#037c3c"/><path d="m91.83 60.22c-1.09 0-2.35.28-2.81 1.26s0 2 .51 2.85c-4-.06-8.07-.09-11.7 1.49-.76.33-1.58.87-1.61 1.7a1.74 1.74 0 0 0 .43 1.11 4.37 4.37 0 0 0 2.94 1.5 13.17 13.17 0 0 0 3.41-.13l5.85-.8a1.23 1.23 0 0 1 .93.12c.28.23.31.63.42 1a2.14 2.14 0 0 0 1.65 1.29 4.94 4.94 0 0 0 2.15-.21 17 17 0 0 0 6-2.78 1.2 1.2 0 0 0 1.19.77 3.44 3.44 0 0 0 1.45-.44c2.23-1 4.72-2.4 5.21-4.81.78.12 1.34-.91 1.05-1.65-1.19-3.07-6.11-.93-8.2-.44-2.99.71-5.79-1.83-8.87-1.83z" fill="#037c3c"/><path d="m84.42 69.51a43.13 43.13 0 0 0 -16.71-.61c-3 .49-6.16 1.37-8.42 3.46a2.19 2.19 0 0 0 -.89 1.89c.29 1.35 2.45 1.29 3.15 2.49-7.15 2.35-14.5 5.26-19.46 10.9-.46.53-.9 1.36-.42 1.87a1.33 1.33 0 0 0 .86.33c3.56.36 6.64-2.54 10.17-3-4.19 2.7-8.67 5.75-10.22 10.49.45.33 1.08 0 1.55-.28l7-4.61a24.16 24.16 0 0 0 -4.94 7.94c-.34.91-.58 2.07.1 2.77a1.88 1.88 0 0 0 2.06.26 5.51 5.51 0 0 0 1.75-1.41l2.88-3a23.18 23.18 0 0 1 -.14 3 2.88 2.88 0 0 0 1.2 2.6 2.42 2.42 0 0 0 2.31-.18 6.78 6.78 0 0 0 1.75-1.71q1.59-2 3-4.1c.88 1 .44 2.73 1.31 3.76a2.49 2.49 0 0 0 3 .32 7.33 7.33 0 0 0 2.26-2.37l5.87-8.38a2 2 0 0 0 2.49 1.19 5.77 5.77 0 0 0 2.46-1.82l4-4.33c.57-.62 1.3-1.29 2.13-1.14a8.64 8.64 0 0 1 1.1.43c1.19.39 2.38-.5 3.32-1.32a27.26 27.26 0 0 0 4.13-4.19 9.18 9.18 0 0 0 2-5.44 11.54 11.54 0 0 0 -1.07-4.32" fill="#037c3c"/><path d="m87.56 55.82c-2.66.94-5.1 2.44-7.8 3.25-2.94.88-6.07.9-9.11 1.34s-6.2 1.4-8.24 3.7-2.71 6-4.89 8.4c-.67.75-1.48 1.37-2.1 2.16a3.23 3.23 0 0 0 -.78 2.79c.61 2.14 3.74 2.14 5.33 3.7 1.24 1.23 1.39 3.33 2.78 4.4s3.19.71 4.67 0a27.16 27.16 0 0 1 4.4-2.16 2.71 2.71 0 0 1 1.23-.09 7.29 7.29 0 0 1 1.95 1.18c1.39.81 3.16.47 4.68-.09a45 45 0 0 0 8.46-4.77 122.61 122.61 0 0 1 22.06-11.25 10.66 10.66 0 0 0 3.73-2 3.44 3.44 0 0 0 .92-3.89 4.35 4.35 0 0 0 -1.08-1.23 16.77 16.77 0 0 0 -9.12-3.93c-1.71-.24-3.24-1.25-4.88-1.73a20.14 20.14 0 0 0 -5.77-.84 19.57 19.57 0 0 0 -6.44 1.06z" fill="#fff5ca"/><path d="m70.38 77.24c-.38 1.33-.71 2.68-1 4.05a1.94 1.94 0 0 0 0 1.12 1.91 1.91 0 0 0 1.34.92 8.22 8.22 0 0 0 2.55.43 3.62 3.62 0 0 0 2.38-.87c1.66-1.53 2.5-5.71.88-7.54-1.85-2.14-5.48-.51-6.15 1.89z" fill="#ea5757"/><path d="m98.54 66.6c1.42 1 3.35.67 5 .29a2.92 2.92 0 0 0 1.29-.51 2.6 2.6 0 0 0 .64-1.1 12.68 12.68 0 0 0 .72-3.5 1.63 1.63 0 0 0 -.11-.85 1.73 1.73 0 0 0 -1.4-.73 20.13 20.13 0 0 0 -6.75.12 3.55 3.55 0 0 0 -2.18 1 2.57 2.57 0 0 0 -.33 2.32 7.75 7.75 0 0 0 1.16 2.13" fill="#ea5757"/><path d="m69.73 82.11a54.83 54.83 0 0 1 28.76-19c11.33-2.88 23.82-1.48 33.87 4.48a26.38 26.38 0 0 1 5.44 4.13c3.2 3.28 5.2 7.58 6.8 11.89a90 90 0 0 1 4.19 15.47c-29.9 9-60.87 13.86-91.39 20.51-2.23.48-6.11.92-6.11.92-.33-1.94 2.9-8.9 3.74-11a144.77 144.77 0 0 1 8.36-18 72 72 0 0 1 6.34-9.4z" fill="#ffc513"/><path d="m76.53 58.23a3 3 0 0 0 -1.78 1.18 3.44 3.44 0 0 0 -.39 1.45 18.07 18.07 0 0 0 0 3.37 1.44 1.44 0 0 0 .21.71 1.36 1.36 0 0 0 .89.42 9 9 0 0 0 2.07.07 1.62 1.62 0 0 0 .84-.25 1.72 1.72 0 0 0 .47-.76c.37-1 .72-1.9 1-2.86a4.46 4.46 0 0 0 .46-2.39c-.4-1.62-2.58-1.3-3.77-.94z" fill="#ea5757"/><path d="m69.69 94.5a1.47 1.47 0 0 0 1.65.46c1.47-.47 2.8-3.3 1-4.23s-3.51 2.5-2.65 3.77z" fill="#e8b113"/><path d="m62.8 103a3.32 3.32 0 0 0 .4 2.54.5.5 0 0 0 .34.23.57.57 0 0 0 .41-.18 5.42 5.42 0 0 0 1.79-3.09c.18-.94-.06-3.4-1.54-3.24-1.3.13-1.29 2.79-1.4 3.74z" fill="#e8b113"/><path d="m73.15 100.34c.11-.2-.11-.46-.34-.47a.8.8 0 0 0 -.59.33 2.07 2.07 0 0 0 -.42 1.88 1.78 1.78 0 0 0 1.44 1.24.94.94 0 0 0 .57-.08 1.17 1.17 0 0 0 .44-1.2 3.32 3.32 0 0 0 -.94-2" fill="#e8b113"/><path d="m113.51 69.45c-.23.62.42 1.22 1 1.47 1.25.53 6.47.63 5.18-1.85-1.02-2.07-5.39-1.73-6.18.38z" fill="#e8b113"/><path d="m98.26 69.92a.78.78 0 0 0 -.92.06 1.67 1.67 0 0 0 -.53.81 4.54 4.54 0 0 0 -.28 1.51 1.2 1.2 0 0 0 .17.72 1 1 0 0 0 .42.33 1.8 1.8 0 0 0 2.3-1.06 2.1 2.1 0 0 0 -1-2.43" fill="#e8b113"/><path d="m58.79 71.28c.09.66.29 1.29.42 1.93a3.32 3.32 0 0 0 .55 1.56 2.88 2.88 0 0 0 2.25.66 1.08 1.08 0 0 0 .54-.09c.31-.18.36-.59.39-1 .1-1.61.92-4.84-.55-6.09-1.88-1.54-3.84 1.3-3.6 3.03z" fill="#ea5757"/><path d="m56.53 89.67a10.35 10.35 0 0 0 1 2.53 1.91 1.91 0 0 0 .83.9 1.56 1.56 0 0 0 1 .05 3 3 0 0 0 2.26-2.81 5.11 5.11 0 0 0 -.22-1.4 21.64 21.64 0 0 0 -.72-2.24c-.47-1.25-1.78-2.7-3.14-1.6s-1.4 3.09-1.01 4.57z" fill="#ea5757"/><path d="m78.52 120.32c-.66-2.94 5.43-17 11.24-25.48a78 78 0 0 1 9.63-12c9.62-9.39 23.1-14.16 36.52-15.07a19.36 19.36 0 0 1 6.17.33 19.6 19.6 0 0 1 6.68 3.66 91.78 91.78 0 0 1 19 19.24c.31 3 .13 6.39-2 8.45a10 10 0 0 1 -3.19 1.81q-29.44 12.1-59.32 23.15c-3.29 1.22-.59 5.73-4.07 6.21s-13.18-3.09-16.27-4.76a9.43 9.43 0 0 1 -4.39-5.54z" fill="#f90"/><path d="m151.64 88.32c-2.83-3.29-7.32-4.59-11.63-5.17-6.31-.84-13.5-.14-17.8 4.57-1.78 2-3 4.52-5.24 5.91-2.9 1.79-6.63 1.11-10 1.67a13.43 13.43 0 0 0 -6.6 3.14 17.52 17.52 0 0 1 -3.66 3 22.46 22.46 0 0 1 -2.92.91c-5.48 1.8-8 7.94-9.93 13.4-.76 2.21-3 3.85-1.88 6.11s5.84 3.29 8.39 3.48c2.28.18 5.19 2.7 7.44 2.28 2-.37 3.23-3.54 5.19-3.95 2.22-.46 4.55-.4 6.72-1.08 5.53-1.74 8.74-7.81 14.17-9.83 1.51-.57 3.13-.79 4.68-1.23 4.16-1.16 7.75-3.81 11.78-5.36 2.58-1 5.31-1.53 7.87-2.57 6.26-2.54 3.42-15.28 3.42-15.28z" fill="#6b3d3b"/><path d="m123.23 90.88c-.82-.82-2.18-.92-3-1.78a6.63 6.63 0 0 1 -.94-1.74 5.94 5.94 0 0 0 -10.12-.91c-.58.8-1 1.72-1.55 2.51-1.22 1.6-3.18 2.41-4.9 3.46s-3.4 2.67-3.36 4.68 1.73 3.51 3.43 4.54c5.13 3.1 9.39 1.32 14.45-.84 2.76-1.16 9.17-6.71 5.99-9.92z" fill="#935650"/><path d="m113.09 112.63a1.61 1.61 0 0 0 1.13 1.81c1.89.8 4.36.11 5.91 1.46.45.4.76.92 1.22 1.31a3.68 3.68 0 0 0 3.44.5 10.87 10.87 0 0 0 3.12-1.81l5.48-4a4.67 4.67 0 0 0 1-.89c3.53-4.67-6.9-6.89-9.8-6.21-3.82.87-11.3 3.09-11.5 7.83z" fill="#935650"/><path d="m147.37 98.56a4.35 4.35 0 0 1 3.41.29 10.09 10.09 0 0 0 11.59-1.76 5.45 5.45 0 0 0 1.89-4.52 4.72 4.72 0 0 1 -.21-1.85 3.38 3.38 0 0 1 .95-1.32 7 7 0 0 0 1.54-7 5.75 5.75 0 0 0 -5.91-3.71c-1.4.19-2.67.95-4.06 1.16-1.91.28-3.85-.5-5.76-.25a6.46 6.46 0 0 0 -4.49 3.1 10.08 10.08 0 0 0 -1.32 5.4 3.07 3.07 0 0 1 -.21 1.57c-.46.88-1.63 1-2.46 1.58-1.43 1-1.61 3.13-.79 4.65a6.44 6.44 0 0 0 1.81 2 4.46 4.46 0 0 0 4 .65z" fill="#935650"/><path d="m130.76 75a27.62 27.62 0 0 0 -14.26 4c-2.13 1.37-4 3.13-6.22 4.34-4.66 2.54-10.61 2.52-14.68 5.93a6.36 6.36 0 0 0 -2.5 4.45 3.51 3.51 0 0 0 3 3.67 61.52 61.52 0 0 0 -10.38 9.89c-.74.9-1.49 2.19-.83 3.16s2.23.72 3.25.08 2-1.55 3.2-1.53a24.63 24.63 0 0 0 .26 4.85 2.37 2.37 0 0 0 .67 1.56 2.1 2.1 0 0 0 1.85.2c2.51-.69 4.17-3 6.21-4.64a1.06 1.06 0 0 1 .8-.33c.44.08.6.6.88.94.91 1.13 2.72.19 3.77-.81a59 59 0 0 0 6.16-7c.75-1 2.12-2.12 3.06-1.29a4.2 4.2 0 0 1 .71 1.26 3.4 3.4 0 0 0 3.89 1.28 11.17 11.17 0 0 0 3.75-2.31 60.48 60.48 0 0 1 8.69-5.83 7 7 0 0 1 3.79-1.18 15.93 15.93 0 0 1 2.41.58 10.09 10.09 0 0 0 4.2-.09c3.43-.67 6.62-2.22 10-3.21 4.46-1.31 9.7-1.93 12.39-5.72a2.09 2.09 0 0 0 .43-1 2.32 2.32 0 0 0 -.77-1.58c-6.23-6.83-15.29-7.95-24-9.08a62.25 62.25 0 0 0 -9.73-.59z" fill="#037c3c"/><path d="m142.32 72.49a26.67 26.67 0 0 1 7.11-1.34 2.41 2.41 0 0 1 2.22.82c.16.26.22.58.39.84.49.74 1.6.63 2.47.44 4-.84 8.22-1.35 12.23-.43 1.57.36 3.38 1.31 3.39 2.92s-1.71 2.56-3.19 3.16c.43 1 1.93 1 2.52 1.84a1.8 1.8 0 0 1 -.46 2.26 5 5 0 0 1 -2.32.92 85.61 85.61 0 0 1 -19.68 1.8 10 10 0 0 0 -4.58.56c-.52.25-1 .59-1.52.85-3.76 1.86-8.45-1.23-12.38.24-1.37.51-2.54 1.54-4 1.8-1.61.3-5.66-.61-6.22-2.48-.48-1.63 1.88-3.11 3-3.87a73.58 73.58 0 0 1 13.08-7.4 71.58 71.58 0 0 1 7.94-2.93z" fill="#037c3c"/><path d="m140.32 72.67a6.12 6.12 0 0 1 -3.92 0 20.77 20.77 0 0 0 -24.31 8.27 2.79 2.79 0 0 1 -.85 1 2.92 2.92 0 0 1 -.81.25c-3 .67-5.4 2.73-7.66 4.75-1.29 1.15-2.63 2.38-2.9 4.18a2.9 2.9 0 0 0 .67 2.41c1.12 1.21 2.76.82 4.15.36 7.56-2.54 14.6-7 22.53-7.79 2.6-.28 5.28-.16 7.75-1 1.92-.67 3.61-1.9 5.52-2.59 4.14-1.5 9.11-.41 12.78-2.83a3 3 0 0 0 1.56-2.39c-.07-1.27-1.39-2-2.58-2.52a33.86 33.86 0 0 0 -9.57-2.28 5.74 5.74 0 0 0 -2.36.3z" fill="#fff5ca"/><path d="m115.69 89.23a3.55 3.55 0 0 0 -1.28 1.49 1.36 1.36 0 0 0 .59 1.7 2 2 0 0 0 1.07 0l6.28-1a5.2 5.2 0 0 1 2.48 0 15.31 15.31 0 0 1 2.38 1.5 4.06 4.06 0 0 0 4.45-.43c1.06-.88 1.6-2.26 2.63-3.16 1.8-1.58 4.64-1.38 6.52-2.87a1.65 1.65 0 0 0 .75-1.35c-.06-.68-.77-1.1-1.44-1.26-2.32-.56-4.54.67-6.67 1.4-1.13.38-2 .83-2.42-.48-.18-.6.23-1.34-.28-1.9-1.51-1.66-6.52 1.88-8 2.51a29.67 29.67 0 0 0 -7.06 3.85z" fill="#fff5ca"/><path d="m135.12 84a1.14 1.14 0 0 0 .36 1.1 1.39 1.39 0 0 0 .63.21c2.16.29 4.53-.72 6.46.3 1.25.67 2.11 2.13 3.53 2.32 4.75.63 4.48-6.19.47-7-2.57-.58-10.89-.25-11.45 3.07z" fill="#fff5ca"/><path d="m107.78 98.37a11.1 11.1 0 0 0 -2.92-.34 3.85 3.85 0 0 0 -2.65 1.11 4.42 4.42 0 0 0 -1 2.06 9.85 9.85 0 0 0 -.26 2.23 3 3 0 0 0 .17 1.13 2.92 2.92 0 0 0 1.07 1.19 5.89 5.89 0 0 0 2.54 1.13 3.53 3.53 0 0 0 2.66-.61 5.28 5.28 0 0 0 1.26-1.62 7.69 7.69 0 0 0 .86-2.05 8.69 8.69 0 0 0 -.26-3.54" fill="#ea5757"/><path d="m159.06 74a6.27 6.27 0 0 1 1.76.67 15.23 15.23 0 0 1 3.09 1.89 5 5 0 0 1 1.78 3.07 2.37 2.37 0 0 1 -.3 1.55 2.3 2.3 0 0 1 -1.9.91 6.8 6.8 0 0 1 -2.13-.44c-2-.65-3.62-1.39-4.41-3.54-.62-1.68-.23-4.48 2.11-4.11z" fill="#ea5757"/><path d="m129.81 74.68a4.85 4.85 0 0 0 -2.17.29 7.17 7.17 0 0 0 -1.64 1.19 27.81 27.81 0 0 0 -2.55 2.17 7.25 7.25 0 0 0 -1.9 4.7.73.73 0 0 0 .66.92 5.31 5.31 0 0 0 2.06-.11c1.68-.33 3.33-.74 5-1.16a2 2 0 0 0 1.66-1.26c.92-1.72 2.26-4.36 2.26-5.38s-2.49-1.32-3.38-1.36z" fill="#ea5757"/><path d="m137.39 74.3c6.36-1.8 13.59.2 20.15 1s16.31 10.42 20.46 15.58c1 1.21 1.95 2.63 1.76 4.16-.26 2-2.4 3.23-4.28 4.08l-26.59 12c-11.42 5.15-22.86 10.31-34.67 14.48-2.68.94-5.37 1.83-8.11 2.57-2.56.68-5.43 3.54-9.19 2.37-.67-.21 5.86-24.35 9.56-31.4s17.17-20.95 30.91-24.84z" fill="#ffc513"/><path d="m93.26 98.8a3.41 3.41 0 0 0 -2.94 1.43c-.95 1.37-.77 3.2-.51 4.84a2.6 2.6 0 0 0 .31 1 1.67 1.67 0 0 0 1 .63 2.53 2.53 0 0 0 2.8-1.19 4.35 4.35 0 0 0 .41-1.47 15.8 15.8 0 0 0 -.1-4.9" fill="#ea5757"/><path d="m105.18 81.81a3.25 3.25 0 0 0 -1.93 1.28 3.63 3.63 0 0 0 -.42 1.57 19.25 19.25 0 0 0 0 3.64 1.57 1.57 0 0 0 .22.77 1.43 1.43 0 0 0 1 .45 9.32 9.32 0 0 0 2.24.08 1.73 1.73 0 0 0 .9-.27 2 2 0 0 0 .52-.82c.4-1 .78-2.06 1.13-3.1a4.67 4.67 0 0 0 .49-2.58c-.51-1.75-2.87-1.4-4.15-1.02z" fill="#ea5757"/><g fill="#e8b113"><path d="m156.61 94.72c-.09.45-.12 1 .27 1.26a1 1 0 0 0 .82 0c1.27-.39 4.11-3.11 2.45-4.37-1.9-1.42-3.25 1.75-3.54 3.11z"/><path d="m146.48 100.22a1.07 1.07 0 0 0 .44 1 .92.92 0 0 0 .59.06 2 2 0 0 0 1.53-1.62c.13-.64.05-2.64-.92-2.57s-1.61 2.41-1.64 3.13z"/><path d="m153.31 90.39c-.19-.24-.58-.06-.79.17a2.76 2.76 0 0 0 -.7 1.55 1.06 1.06 0 0 0 0 .5.86.86 0 0 0 1.24.3 1.55 1.55 0 0 0 .59-1.27 2.6 2.6 0 0 0 -.43-1.53"/><path d="m112.53 118.7a1.53 1.53 0 0 0 .54.31c1.87.7 3.76-1.55 2-2.91s-4.07 1.14-2.54 2.6z"/><path d="m107.45 115.91c1.24-.39 1.73-3.15 0-3s-1.32 3.41 0 3z"/><path d="m108.18 121.2a2.18 2.18 0 0 1 .74 1.41 2.12 2.12 0 0 1 -1.1 1.82c-1.21.74-4.67 1.44-4-1 .46-1.69 2.78-3.75 4.36-2.23z"/><path d="m175.78 92.91a2.4 2.4 0 0 0 -2.15 1.72 1.1 1.1 0 0 0 .26 1.17.91.91 0 0 0 1.11-.12 2 2 0 0 0 .56-1.05 7.37 7.37 0 0 1 .33-1.16"/></g><path d="m140.3 111.6a12.92 12.92 0 0 0 -3.14 2.27 9.78 9.78 0 0 0 -2 4 22.94 22.94 0 0 0 -.83 6.49 2.11 2.11 0 0 0 1.58 2.34c3.36 1.49 7.06 2 10.71 2.46a22.52 22.52 0 0 0 6.29.22 14 14 0 0 0 9.23-6.36 27.56 27.56 0 0 0 3.86-10.8c.49-3 1-12.42-.37-16.55a66.18 66.18 0 0 0 -7.67 3.92c-2.73 2-5.48 4-8.28 6-3.04 2.09-6.17 4.12-9.38 6.01z" fill="#519600"/><g clip-path="url(#a)"><path d="m165.62 94.42a118.35 118.35 0 0 1 -3.17 22.58 22.25 22.25 0 0 1 -1.4 4.32 13.37 13.37 0 0 1 -4.5 5.17 8.28 8.28 0 0 1 -2.81 1.34c-2.69.62-5.52-.77-7.35-2.83a23 23 0 0 1 -3.88-7.25l-3.51-9.12c-.12-.32-.29-.68-.62-.77a1.15 1.15 0 0 0 -.52 0 18.69 18.69 0 0 0 -6.16 2.72l-9.7 34.73 30.48-9.87 16-12.32 3-32.74" fill="#360"/></g><path d="m158.65 116.15a6.72 6.72 0 0 1 .86 2.4 4.83 4.83 0 0 1 -.34 2.12 8.9 8.9 0 0 1 -4.17 4.82 1.36 1.36 0 0 1 -1.38.14 1.42 1.42 0 0 1 -.46-.74 22.72 22.72 0 0 1 -.87-6l-.28-5.31a24.57 24.57 0 0 1 .07-5c.15-1 .48-3.28 1.71-1.88a19.66 19.66 0 0 1 2.21 4.2z" fill="#72c900"/><path d="m150 123.51c0 .4-.12.94-.52 1a.75.75 0 0 1 -.5-.23 15 15 0 0 1 -3.27-4.48 7.27 7.27 0 0 1 -1.25-3.68 6.48 6.48 0 0 1 1.26-3.17c.65-1 1.36-1.9 2.07-2.83a2.14 2.14 0 0 1 1.24-1c1.65-.24 1 5.27 1 6.23-.03 2.72-.03 5.44-.03 8.16z" fill="#72c900"/><path d="m156.89 104.7a4.19 4.19 0 0 0 -2.29-.58 5.63 5.63 0 0 0 1.33 2.85c1.39 2.07 2.16 4.55 3.83 6.41a1.41 1.41 0 0 0 .71.5 1.05 1.05 0 0 0 1-.42 2.54 2.54 0 0 0 .44-1c.29-1.19 1-4.62-.08-5.55a12.45 12.45 0 0 0 -2.24-.89z" fill="#72c900"/><path d="m163.53 103.8a1.4 1.4 0 0 1 -1 .93 2 2 0 0 1 -.91-.09 15.29 15.29 0 0 1 -2.85-1.07 1.07 1.07 0 0 1 -.57-.47c-.18-.39.12-.83.4-1.16a6.08 6.08 0 0 1 1.47-1.35c.81-.47 2.55-1.25 3.32-.37.66.7.5 2.78.14 3.58z" fill="#72c900"/></svg>