<svg id="Artwork_-_Primary" data-name="Artwork - Primary" xmlns="http://www.w3.org/2000/svg" viewBox="0 0 250 250"><defs><style>.cls-1{fill:none}.cls-2{fill:#efefef}.cls-3{fill:#0c4f60}.cls-4{clip-path:url(#clip-path)}.cls-5{fill:#ffc513}.cls-6{fill:#ffda71}.cls-7{fill:#f22222}.cls-8{fill:#360}.cls-9{fill:#e59f13}.cls-10{fill:#093b47}.cls-11{fill:#960}.cls-12{fill:#116977}</style><clipPath id="clip-path"><ellipse class="cls-1" cx="123.41" cy="103.43" rx="77.37" ry="36.14"/></clipPath></defs><path class="cls-2" d="M175 184.93c-4.14-1.47-8.57-1.93-12.95-2.37l-16.29-1.66c-10.08-1-20.2-2.05-30.34-1.73a208 208 0 0 0-22.26 2.27c-7.12 1-14.28 2.12-21.08 4.45a29.93 29.93 0 0 0-8.23 4.11c-1.7 1.28-3.31 3.13-3.12 5.25a6.3 6.3 0 0 0 1.18 2.75c2.78 4.06 7.27 6.71 12 8.16s9.66 1.85 14.57 2.23c23.67 1.82 47.46 3.64 71.13 1.76 8.55-.68 17.74-2.15 23.81-8.22 2.7-2.71 4.13-6.5 1.6-9.67a21.93 21.93 0 0 0-10.02-7.33z"/><path class="cls-3" d="M46.11 102c-.59 16.25-.74 38.14 4 53.7s14.77 30.21 29.6 36.86a74.24 74.24 0 0 0 14.19 4.34 176.47 176.47 0 0 0 39 4c31 0 48.47-21.08 50.56-23.62 6-7.25 11-15.5 13.66-24.51a60.84 60.84 0 0 0 1.78-9c1.9-13.84 1.84-26.85 1.84-40.35"/><ellipse class="cls-3" cx="123.41" cy="103.43" rx="77.37" ry="36.14"/><ellipse class="cls-3" cx="123.41" cy="103.43" rx="77.37" ry="36.14"/><g class="cls-4"><ellipse class="cls-5" cx="123.41" cy="116.43" rx="72.13" ry="33.69"/></g><path class="cls-6" d="M101.57 108.42a24.46 24.46 0 0 0-2.15 1.2c-3.21 1.6-8.37.55-12.68 1a2.41 2.41 0 0 0-1 .26c-.72.5.88 1.1.9 1.74s-1.61.93-2.86.94a65 65 0 0 1-7.26-.3c-2-.2-4.34-.62-5.07-1.66-.86-1.22 1-2.57 3.31-3a35.5 35.5 0 0 1 7.17-.24c2.41 0 5.06-.15 6.71-1.1 1.28-.74 1.78-1.85 3.34-2.4a12.66 12.66 0 0 1 4.45-.36c3.61.14 13.25-.37 15.39 1.85 2.28 2.33-8.3 1.34-10.25 2.07z"/><path class="cls-7" d="M113.42 116.93C101.69 115.88 96.28 108 94 103a1.4 1.4 0 0 1 2-1.77c5.69 3.61 16.84 10.16 21.37 9"/><path class="cls-6" d="M148.11 102.34c-3.86.19-7.6-.59-11.42-.83-3.52-.22-7.42.13-10.26 1.85a.44.44 0 0 0 .08.79 22.6 22.6 0 0 0 5.35.52c3.08.21 5.9 1.23 8.79 2a60 60 0 0 0 15 2.12c3.5.06 10.87-1.94 7.37-5.6-3.02-3.19-10.7-1.07-14.91-.85z"/><path class="cls-5" d="M96.79 116s8.43-4.43 14.19-4.21 4.44-7.31 15.08-6.65 2.35 16.63 2.35 16.63L111 123.14"/><path class="cls-7" d="M128.41 106.71l6.31-6.68a4.15 4.15 0 0 1 4.59-1l5.32 2.19a4.14 4.14 0 0 1 1.13 7l-7.76 6.65"/><path class="cls-5" d="M123.4 109s6.33-2.82 11.53 0 16 .86 15.29 4.19-5.62 10-5.62 10l-15.07-3.81"/><path class="cls-8" d="M144.83 98.09s-8.29-3.42-14.48-.79l8.71 3.82-1.47 3.16 7.9-.66 2.37 6.71s2.73-2.39 0-8.13c-1.71-3.62-3.03-4.11-3.03-4.11z"/><path class="cls-8" d="M144.57 99.22c.55-1.72.05-3.67.79-5.31.07-.15.17-.32.33-.34a.51.51 0 0 1 .27 0l1 .34a.34.34 0 0 1 .15.09.37.37 0 0 1 0 .31c-.47 1.92-1.38 3.75-1.54 5.72"/><path class="cls-3" d="M49.16 102.41s-9.06-17.85-8.64-21.74 11.22-15.87 14.13-15 5.82 20.61 5.82 20.61l-3.3 2.5s-2-16-3.49-16.63-8.51 7.23-8.51 10 5.32 16 5.32 16m147.17 4.26s9.06-17.85 8.65-21.74-11.22-15.87-14.13-15-5.82 20.61-5.82 20.61l3.3 2.5s2-16 3.49-16.63 8.5 7.23 8.5 10-5.32 16-5.32 16"/><path class="cls-6" d="M136.65 113.49c-1.94.09-3.8.59-5.75.7-2.2.12-4.73-.21-6.36.77-.29.17-.54.43-.43.67a1 1 0 0 0 .58.38c2.81 1 6.28.27 9.49.35 2.94.08 5.71.88 8.6 1.24 2.56.32 6.59.68 9.13.2 2.16-.42 2.66-1.72.41-2.33-1.89-.5-4.71-.21-6.8-.64-2.89-.59-5.76-1.48-8.87-1.34zm-27.97.42a1.47 1.47 0 0 0-1 .38 1.16 1.16 0 0 0 .29 1.62 3.29 3.29 0 0 0 1.75.54c1.28.14 6.52 1.47 5.88-.64s-5.44-2.05-6.92-1.9zm-10.12 3.35c.47-.1 1-.48.86-.93A.83.83 0 0 0 99 116c-.81-.47-3.67-1.49-4.16-.07-.52 1.56 2.83 1.51 3.72 1.33zm12.87-19.07a.82.82 0 0 0-.29.42c0 .3.21.58.47.75a6.4 6.4 0 0 0 3.18.77c1.52.1 7.17 1.27 5-2-1.24-1.89-6.89-1.28-8.36.06zm-25.95 4.06a5.87 5.87 0 0 0-2.5-.31 2.16 2.16 0 0 0-1.21.42 1 1 0 0 0-.3 1.17 1.4 1.4 0 0 0 1.2.54 7.65 7.65 0 0 0 2.73-.33 1.22 1.22 0 0 0 .84-.61c.13-.33-.21-.8-.53-.63m85.55 7.74a1.5 1.5 0 0 0-1.18.47c-.23.36 0 .82.41 1.1a4 4 0 0 0 1.47.52c1.56.3 6.92 1.13 6-1.13s-4.75-1.02-6.7-.96zM99 124.8c-2-.22-4.23-.59-6 .49a1.24 1.24 0 0 0-.56.55c-.34.75.49 1.48 1.21 1.78 4.53 1.84 9.56.73 14.38 1.06a47.13 47.13 0 0 1 4.73.64c1.35.23 2.69.46 4 .59a57.24 57.24 0 0 0 6.68.11c11.34-.26 22.74-.53 33.93-2.59a5.1 5.1 0 0 0 2.65-1.05c-1.81-1.33-4.13-1.41-6.31-1.43l-11.62-.14c-3.23 0-6.61.25-9.81-.32-7.1-1.26-13.85-.65-21 .05a59.21 59.21 0 0 1-12.28.26z"/><path class="cls-9" d="M114.89 120.68a2.66 2.66 0 0 0-1 .57 3.07 3.07 0 0 0-.52.94l-1 2.61a.65.65 0 0 0-.07.41.6.6 0 0 0 .42.35c1 .3 2-.11 3-.06.66 0 1.29.27 2 .32a1.75 1.75 0 0 0 1.7-.74 1.71 1.71 0 0 1 .22-.4 1 1 0 0 1 .43-.22 14.15 14.15 0 0 0 2-.85c.37-.2.78-.51.74-.93s-.51-.59-.59-1 .23-.88.13-1.36a2.16 2.16 0 0 0-1.88-1.57 5.6 5.6 0 0 0-2.09.75c-1.22.5-2.38.73-3.49 1.18zM90.52 91a3.2 3.2 0 0 0-1.11 0 3.11 3.11 0 0 0-1.24.66 18.33 18.33 0 0 0-5 6A1.37 1.37 0 0 0 83 99a1 1 0 0 0 .53.36c1 .35 2.15-.23 3.25-.31 1.28-.09 2.53.51 3.81.44 2.62-.16 4.35-3 6.91-3.59.82-.2 1.8-.22 2.27-.92 1.66-2.49-8.01-3.78-9.25-3.98zm23.36-2.53a.93.93 0 0 0-.64.07 1 1 0 0 0-.24.46l-1 2.32a1.87 1.87 0 0 0-.12 1.59 1.51 1.51 0 0 0 1.55.51c1.4-.21 2.71-1.16 4.1-.88.31.06.61.18.92.21 1.58.14 3.61-1.67 1.94-2.91s-4.6-1.1-6.51-1.37zm36.43 1.69a3.75 3.75 0 0 0-.88 1.25c-.41.82-.78 1.65-1.12 2.49 0 .09-.07.2 0 .28a.46.46 0 0 0 .27.1c1.61.26 3.44.07 4.83.67a2.18 2.18 0 0 0 .62.22 1.8 1.8 0 0 0 1.33-.48 5.05 5.05 0 0 0 1.56-3.48 1.34 1.34 0 0 0-.08-.95c-1.26-1.97-4.63-1.74-6.53-.1z"/><path class="cls-7" d="M169.69 119.73a2.43 2.43 0 0 0-.83.34 1.91 1.91 0 0 0-.61 1.31 6 6 0 0 0 .8 3.81 1 1 0 0 0 1 .57 4.1 4.1 0 0 0 2.55-.83c.48-.37.88-.84 1.39-1.17s1.22-.52 1.8-.83c1.65-.87 2.63-3.78.47-4.7-1.88-.79-4.8 1.04-6.57 1.5z"/><path class="cls-9" d="M80.82 119.63a8.28 8.28 0 0 1 3.84 3.89.37.37 0 0 1 0 .25c0 .1-.14.14-.24.18-2.46.86-5.16.58-7.72.14a7.9 7.9 0 0 1-3.94-1.49c-.31-.28-.59-.69-.44-1.07s.44-.43.71-.57c1.36-.73 1.42-2 3-2.11a9.76 9.76 0 0 1 4.79.78z"/><path class="cls-7" d="M65 105.94a1.67 1.67 0 0 0-1 .69 2.09 2.09 0 0 0-.21.76l-.16 1.15a1.24 1.24 0 0 0 .07.79 1.1 1.1 0 0 0 .78.42 4.79 4.79 0 0 0 2.91-.4c.93-.46 1.84-1.9 1.28-3s-2.67-.74-3.67-.41z"/><path class="cls-9" d="M170.24 100.47l-2 .62a4.67 4.67 0 0 0-1.39.61 1.33 1.33 0 0 0 1 2.44 3.73 3.73 0 0 0 2-.93c.59-.46 1.21-1.16 1-1.86 0-.14-.13-.27-.19-.4"/><path class="cls-8" d="M96.34 123.59a4.1 4.1 0 0 0 1.79 1.52c.48.26 1 .49 1.46.74a2.46 2.46 0 0 0 .55.25 2 2 0 0 0 .54.05c1.9 0 4.35 0 1.91-1.94a6.76 6.76 0 0 0-2.68-1.33c-.44-.09-3.82.22-3.57.71zm67.53-7.1a8.75 8.75 0 0 1 2.65-.9 3 3 0 0 1 2.57.83c-.78 1.23-2.29 1.72-3.52 2.49s-3.37 2.51-4.75 1c-1.71-1.91 1.86-2.86 3.05-3.42zM78.54 97.62a3.78 3.78 0 0 0 1.06 1.58 3.59 3.59 0 0 0 2.51.71 2.29 2.29 0 0 0 2.07-1.43.47.47 0 0 0 0-.43c-.18-.29-.75-.41-1.27-.48a18.11 18.11 0 0 0-4.29-.06"/><path class="cls-5" d="M171.64 88.41c-3.27-.79-6.69-.73-10-1.48-2.65-.61-5.15-1.73-7.76-2.49-8.85-2.56-18.29-.76-27.51-.93-4-.08-8-.53-11.93-.77-13.09-.82-26.64.62-38.29 6.64-2.55 1.32-5 2.84-7.42 4.37L62.05 98c-2.41 1.52-4.89 3.08-6.61 5.35s-2.39 4.79-3.63 9a74.47 74.47 0 0 0 11.19-8.3c12.61-11 29.86-14.75 46.46-16.76 12.37-1.49 24.94-2.21 37.27-.36s24.45 6.4 33.92 14.5c2.06 1.76 4 3.68 6.06 5.42a7.36 7.36 0 0 0 3.31 1.84c1.26.21 4.67 2.87 4.33 1.64-.81-2.9-1.4-5.5-2.07-6.47-4.56-6.69-12.66-13.54-20.64-15.45z"/><path class="cls-10" d="M153.31 178.29c-8.28 4.86-17.88 6.83-27 9.86-1.25.41-2.78 1.46-2.23 2.65a2.35 2.35 0 0 0 1.87 1c11.59 2 23.72-.5 34.15-5.92a74 74 0 0 0 16.26-11.62c4.18-3.88 11-9.65 12.79-15.25 1.29-4.09-2.19-9.95-7-8.61-4.66 1.29-9.38 10-12.49 13.49-4.83 5.48-10.04 10.69-16.35 14.4zm-5.7-9.58a1.41 1.41 0 0 0-.59.85c-.1.85 1.16 1.1 2 .88a16.89 16.89 0 0 0 5.83-3.48c1.42-1.15 9.54-6.22 4.26-6.14-3.65.06-8.91 5.63-11.5 7.89z"/><path class="cls-11" d="M166.84 82.27c-3.51 4.21-7.06 8.47-11.44 11.77-2 1.51-4.41 3.22-4 5.94a4.37 4.37 0 0 0 2.09 3c2.3 1.42 4.95 1.15 7.49.86a4 4 0 0 0 1.93-.55 4.4 4.4 0 0 0 1.33-2.32c1.81-5.45 5-10.31 8.27-15 12.2-17.69 17.89-24.97 32.84-40.36a38.6 38.6 0 0 0 3.65-4.13 2.56 2.56 0 0 0-1-3.86 4.68 4.68 0 0 0-4-.14c-2.2.94-5.05 6.05-6.61 7.93l-12.97 15.52c-8.52 10.21-9.06 11.13-17.58 21.34z"/><path class="cls-12" d="M77 78.78c-8.36 3.27-16.56 7.66-22.38 14.5-.83 1-1.15 3.07.14 3a1.7 1.7 0 0 0 .95-.46 103.73 103.73 0 0 1 48.53-20.58c2.21-.32 8.7.26 10.34-1 2.08-1.65.74-2.86-1.22-3.41-3.08-.86-8.54.77-11.68 1.27A118.59 118.59 0 0 0 77 78.78z"/><path class="cls-1" d="M45.46 109.45l.16-.5"/></svg>